<svg width="149" height="88" viewBox="0 0 149 88" fill="none" xmlns="http://www.w3.org/2000/svg">
<path d="M3.7617 43.6092H13.0438C15.2911 43.6092 17.3429 43.1369 19.1993 42.1924C21.0883 41.2479 22.7167 39.994 24.0846 38.4307C25.4525 36.8674 26.511 35.0924 27.2601 33.1057C28.0092 31.0865 28.3837 29.0021 28.3837 26.8525C28.3837 24.703 28.0092 22.6349 27.2601 20.6482C26.511 18.6289 25.4525 16.8376 24.0846 15.2743C22.7167 13.711 21.0883 12.4571 19.1993 11.5126C17.3429 10.5681 15.2911 10.0959 13.0438 10.0959H3.7617V43.6092ZM13.0438 9.65618C15.4213 9.65618 17.7174 10.0959 19.9321 10.9752C22.1468 11.822 24.1009 13.0108 25.7945 14.5415C27.5206 16.0397 28.8885 17.8472 29.8982 19.9642C30.9078 22.0812 31.4126 24.3773 31.4126 26.8525C31.4126 29.3277 30.9078 31.6239 29.8982 33.7408C28.8885 35.8252 27.5206 37.6328 25.7945 39.1635C24.1009 40.6943 22.1468 41.8993 19.9321 42.7787C17.7174 43.6255 15.4213 44.0489 13.0438 44.0489H1.17248V9.65618H13.0438ZM46.9964 22.5046V22.9931H39.2776V43.6092H47.9246V44.0489H36.6884V9.65618H46.1659V10.0959H39.2776V22.5046H46.9964ZM70.1063 45.0259C67.5659 45.0259 65.1721 44.5537 62.9249 43.6092C60.7102 42.6321 58.7723 41.3131 57.1113 39.6521C55.4503 37.9911 54.1313 36.0532 53.1542 33.8385C52.2097 31.5913 51.7375 29.1975 51.7375 26.6571C51.7375 24.1167 52.226 21.7392 53.2031 19.5245C54.1801 17.2773 55.4992 15.3232 57.1602 13.6621C58.8212 12.0011 60.759 10.6821 62.9737 9.70504C65.221 8.72797 67.5985 8.23944 70.1063 8.23944C71.8976 8.23944 73.6074 8.48371 75.2359 8.97224C76.8969 9.46077 78.4439 10.161 79.8769 11.0729C81.31 11.9849 82.5964 13.0922 83.7363 14.3949C84.9088 15.6651 85.8859 17.0819 86.6675 18.6452L84.2249 19.6222C83.6712 18.1241 82.9384 16.7236 82.0265 15.4209C81.1145 14.0855 80.0561 12.9293 78.851 11.9523C77.646 10.9427 76.3106 10.161 74.845 9.60733C73.3794 9.02109 71.7999 8.72797 70.1063 8.72797C67.7613 8.72797 65.6444 9.26536 63.7554 10.3401C61.8664 11.3823 60.2542 12.7502 58.9189 14.4438C57.6161 16.1374 56.6065 18.0589 55.89 20.2085C55.1735 22.358 54.8152 24.5076 54.8152 26.6571C54.8152 28.8066 55.1735 30.9562 55.89 33.1057C56.6065 35.2553 57.6161 37.1768 58.9189 38.8704C60.2542 40.564 61.8664 41.9482 63.7554 43.0229C65.6444 44.0651 67.7613 44.5862 70.1063 44.5862C72.0604 44.5862 73.9168 44.2768 75.6755 43.658C77.4343 43.0392 79.0464 42.1924 80.512 41.1177C81.9776 40.0103 83.2478 38.6913 84.3226 37.1605C85.3973 35.6298 86.2116 33.9362 86.7652 32.0798L87.2049 32.2264C86.6187 34.1154 85.7719 35.8578 84.6645 37.4537C83.5572 39.017 82.2544 40.3686 80.7563 41.5085C79.2907 42.6158 77.646 43.4789 75.8221 44.0977C73.9983 44.7165 72.093 45.0259 70.1063 45.0259ZM110.968 8.4837C108.59 8.4837 106.457 9.02109 104.568 10.0959C102.679 11.1381 101.067 12.5222 99.7316 14.2484C98.3962 15.942 97.3703 17.8635 96.6538 20.0131C95.9373 22.1626 95.579 24.3284 95.579 26.5105C95.579 28.6601 95.9373 30.8096 96.6538 32.9592C97.3703 35.1087 98.3962 37.0466 99.7316 38.7727C101.067 40.4663 102.679 41.8505 104.568 42.9252C106.457 43.9674 108.59 44.4885 110.968 44.4885C113.345 44.4885 115.479 43.9674 117.368 42.9252C119.289 41.8505 120.918 40.4663 122.253 38.7727C123.588 37.0466 124.614 35.1087 125.331 32.9592C126.047 30.8096 126.405 28.6601 126.405 26.5105C126.405 24.3284 126.047 22.1626 125.331 20.0131C124.614 17.8635 123.588 15.942 122.253 14.2484C120.918 12.5222 119.289 11.1381 117.368 10.0959C115.479 9.02109 113.345 8.4837 110.968 8.4837ZM110.968 8.04403C113.508 8.04403 115.902 8.53256 118.149 9.50962C120.396 10.4541 122.351 11.7732 124.012 13.4667C125.705 15.1277 127.024 17.0819 127.969 19.3291C128.946 21.5764 129.434 23.9702 129.434 26.5105C129.434 29.0509 128.946 31.4447 127.969 33.692C127.024 35.9392 125.705 37.8933 124.012 39.5544C122.351 41.2154 120.396 42.5344 118.149 43.5115C115.902 44.4885 113.508 44.9771 110.968 44.9771C108.427 44.9771 106.034 44.4885 103.786 43.5115C101.539 42.5344 99.585 41.2154 97.924 39.5544C96.263 37.8933 94.9439 35.9392 93.9669 33.692C92.9898 31.4447 92.5013 29.0509 92.5013 26.5105C92.5013 23.9702 92.9898 21.5764 93.9669 19.3291C94.9439 17.0819 96.263 15.1277 97.924 13.4667C99.585 11.7732 101.539 10.4541 103.786 9.50962C106.034 8.53256 108.427 8.04403 110.968 8.04403Z" fill="#BC936A"/>
<path d="M3.7617 43.6092H2.96381V44.4071H3.7617V43.6092ZM19.1993 42.1924L18.8425 41.4788L18.8375 41.4813L19.1993 42.1924ZM24.0846 38.4307L23.4842 37.9053L24.0846 38.4307ZM27.2601 33.1057L28.0067 33.3872L28.0082 33.3832L27.2601 33.1057ZM27.2601 20.6482L26.512 20.9257L26.5135 20.9297L27.2601 20.6482ZM24.0846 15.2743L23.4842 15.7997V15.7997L24.0846 15.2743ZM19.1993 11.5126L18.8375 12.2238L18.8425 12.2263L19.1993 11.5126ZM3.7617 10.0959V9.29798H2.96381V10.0959H3.7617ZM19.9321 10.9752L19.6376 11.7168L19.6472 11.7205L19.9321 10.9752ZM25.7945 14.5415L25.2595 15.1334L25.2654 15.1388L25.2715 15.1441L25.7945 14.5415ZM29.8982 19.9642L30.6183 19.6207L29.8982 19.9642ZM29.8982 33.7408L30.6163 34.0886L30.6183 34.0843L29.8982 33.7408ZM25.7945 39.1635L25.2651 38.5665L25.2595 38.5716L25.7945 39.1635ZM19.9321 42.7787L20.2171 43.524L20.2266 43.5202L19.9321 42.7787ZM1.17248 44.0489H0.374591V44.8467H1.17248V44.0489ZM1.17248 9.65618V8.8583H0.374591V9.65618H1.17248ZM3.7617 44.4071H13.0438V42.8113H3.7617V44.4071ZM13.0438 44.4071C15.4067 44.4071 17.5839 43.9095 19.5611 42.9036L18.8375 41.4813C17.1019 42.3643 15.1755 42.8113 13.0438 42.8113V44.4071ZM19.5561 42.9061C21.5362 41.916 23.2478 40.5987 24.6851 38.9561L23.4842 37.9053C22.1857 39.3893 20.6404 40.5798 18.8425 41.4788L19.5561 42.9061ZM24.6851 38.9561C26.1173 37.3193 27.2246 35.4613 28.0067 33.3872L26.5135 32.8242C25.7974 34.7235 24.7877 36.4155 23.4842 37.9053L24.6851 38.9561ZM28.0082 33.3832C28.7901 31.2753 29.1816 29.097 29.1816 26.8525H27.5858C27.5858 28.9071 27.2282 30.8976 26.512 32.8282L28.0082 33.3832ZM29.1816 26.8525C29.1816 24.608 28.7901 22.4445 28.0067 20.3667L26.5135 20.9297C27.2283 22.8252 27.5858 24.7979 27.5858 26.8525H29.1816ZM28.0082 20.3706C27.2266 18.2639 26.1192 16.3879 24.6851 14.7489L23.4842 15.7997C24.7859 17.2874 25.7954 18.9939 26.512 20.9257L28.0082 20.3706ZM24.6851 14.7489C23.2478 13.1063 21.5362 11.789 19.5561 10.799L18.8425 12.2263C20.6404 13.1252 22.1857 14.3157 23.4842 15.7997L24.6851 14.7489ZM19.5611 10.8015C17.5839 9.79552 15.4067 9.29798 13.0438 9.29798V10.8938C15.1755 10.8938 17.1019 11.3407 18.8375 12.2237L19.5611 10.8015ZM13.0438 9.29798H3.7617V10.8938H13.0438V9.29798ZM2.96381 10.0959V43.6092H4.55959V10.0959H2.96381ZM13.0438 10.4541C15.3203 10.4541 17.5165 10.8746 19.6377 11.7168L20.2266 10.2337C17.9184 9.31717 15.5224 8.8583 13.0438 8.8583V10.4541ZM19.6472 11.7205C21.7733 12.5334 23.6419 13.6714 25.2595 15.1334L26.3295 13.9496C24.56 12.3502 22.5202 11.1106 20.2171 10.23L19.6472 11.7205ZM25.2715 15.1441C26.9126 16.5684 28.2143 18.2871 29.178 20.3077L30.6183 19.6207C29.5628 17.4074 28.1287 15.5109 26.3175 13.9389L25.2715 15.1441ZM29.178 20.3077C30.1336 22.3115 30.6147 24.4894 30.6147 26.8525H32.2105C32.2105 24.2652 31.682 21.8509 30.6183 19.6207L29.178 20.3077ZM30.6147 26.8525C30.6147 29.2156 30.1336 31.3936 29.178 33.3974L30.6183 34.0843C31.682 31.8541 32.2105 29.4399 32.2105 26.8525H30.6147ZM29.1801 33.393C28.2161 35.3831 26.9122 37.1059 25.2651 38.5666L26.3239 39.7605C28.1291 38.1597 29.5609 36.2673 30.6163 34.0886L29.1801 33.393ZM25.2595 38.5716C23.6396 40.0357 21.7678 41.1913 19.6377 42.0371L20.2266 43.5202C22.5258 42.6073 24.5622 41.3528 26.3295 39.7555L25.2595 38.5716ZM19.6472 42.0334C17.5237 42.8453 15.3242 43.251 13.0438 43.251V44.8467C15.5185 44.8467 17.9112 44.4056 20.2171 43.5239L19.6472 42.0334ZM13.0438 43.251H1.17248V44.8467H13.0438V43.251ZM1.97036 44.0489V9.65618H0.374591V44.0489H1.97036ZM1.17248 10.4541H13.0438V8.8583H1.17248V10.4541ZM46.9964 22.5046H47.7943V21.7067H46.9964V22.5046ZM46.9964 22.9931V23.791H47.7943V22.9931H46.9964ZM39.2776 22.9931V22.1952H38.4797V22.9931H39.2776ZM39.2776 43.6092H38.4797V44.4071H39.2776V43.6092ZM47.9246 43.6092H48.7225V42.8113H47.9246V43.6092ZM47.9246 44.0489V44.8467H48.7225V44.0489H47.9246ZM36.6884 44.0489H35.8905V44.8467H36.6884V44.0489ZM36.6884 9.65618V8.8583H35.8905V9.65618H36.6884ZM46.1659 9.65618H46.9638V8.8583H46.1659V9.65618ZM46.1659 10.0959V10.8938H46.9638V10.0959H46.1659ZM39.2776 10.0959V9.29798H38.4797V10.0959H39.2776ZM39.2776 22.5046H38.4797V23.3025H39.2776V22.5046ZM46.1985 22.5046V22.9931H47.7943V22.5046H46.1985ZM46.9964 22.1952H39.2776V23.791H46.9964V22.1952ZM38.4797 22.9931V43.6092H40.0755V22.9931H38.4797ZM39.2776 44.4071H47.9246V42.8113H39.2776V44.4071ZM47.1267 43.6092V44.0489H48.7225V43.6092H47.1267ZM47.9246 43.251H36.6884V44.8467H47.9246V43.251ZM37.4863 44.0489V9.65618H35.8905V44.0489H37.4863ZM36.6884 10.4541H46.1659V8.8583H36.6884V10.4541ZM45.368 9.65618V10.0959H46.9638V9.65618H45.368ZM46.1659 9.29798H39.2776V10.8938H46.1659V9.29798ZM38.4797 10.0959V22.5046H40.0755V10.0959H38.4797ZM39.2776 23.3025H46.9964V21.7067H39.2776V23.3025ZM62.9249 43.6092L62.6027 44.3393L62.6157 44.3447L62.9249 43.6092ZM57.1113 39.6521L56.5471 40.2163L57.1113 39.6521ZM53.1542 33.8385L52.4185 34.1477L52.4242 34.1606L53.1542 33.8385ZM53.2031 19.5245L53.9331 19.8466L53.9348 19.8427L53.2031 19.5245ZM57.1602 13.6621L56.596 13.098L57.1602 13.6621ZM62.9737 9.70504L62.6556 8.97331L62.6516 8.97504L62.9737 9.70504ZM75.2359 8.97224L75.0066 9.73649L75.0107 9.7377L75.2359 8.97224ZM79.8769 11.0729L79.4486 11.7461V11.7461L79.8769 11.0729ZM83.7363 14.3949L83.1359 14.9204L83.1428 14.9283L83.15 14.9361L83.7363 14.3949ZM86.6675 18.6452L86.9639 19.386L87.769 19.0639L87.3812 18.2883L86.6675 18.6452ZM84.2249 19.6222L83.4764 19.8988L83.7605 20.6674L84.5212 20.3631L84.2249 19.6222ZM82.0265 15.4209L81.3675 15.8709L81.3728 15.8784L82.0265 15.4209ZM78.851 11.9523L78.3385 12.564L78.3485 12.572L78.851 11.9523ZM74.845 9.60733L74.5487 10.3481L74.5559 10.351L74.5631 10.3537L74.845 9.60733ZM63.7554 10.3401L64.1408 11.0388L64.1499 11.0336L63.7554 10.3401ZM58.9189 14.4438L58.2923 13.9497L58.2865 13.9573L58.9189 14.4438ZM55.89 20.2085L56.6469 20.4608L55.89 20.2085ZM55.89 33.1057L55.133 33.358L55.89 33.1057ZM58.9189 38.8704L58.2864 39.3569L58.2923 39.3644L58.9189 38.8704ZM63.7554 43.0229L63.3608 43.7165L63.3699 43.7215L63.7554 43.0229ZM75.6755 43.658L75.4107 42.9054L75.6755 43.658ZM80.512 41.1177L80.9839 41.7611L80.993 41.7543L80.512 41.1177ZM84.3226 37.1605L84.9756 37.619L84.3226 37.1605ZM86.7652 32.0798L87.0175 31.3229L86.2361 31.0624L86.0006 31.8518L86.7652 32.0798ZM87.2049 32.2264L87.9669 32.4629L88.1986 31.7165L87.4572 31.4694L87.2049 32.2264ZM84.6645 37.4537L85.3157 37.9149L85.3201 37.9085L84.6645 37.4537ZM80.7563 41.5085L81.2373 42.1451L81.2394 42.1435L80.7563 41.5085ZM75.8221 44.0977L75.5658 43.3421L75.8221 44.0977ZM70.1063 44.228C67.6675 44.228 65.3793 43.7752 63.234 42.8736L62.6157 44.3447C64.965 45.3321 67.4643 45.8238 70.1063 45.8238V44.228ZM63.2469 42.8792C61.1197 41.9407 59.2646 40.677 57.6755 39.0879L56.5471 40.2163C58.28 41.9492 60.3007 43.3235 62.6028 44.3392L63.2469 42.8792ZM57.6755 39.0879C56.0864 37.4988 54.8227 35.6437 53.8842 33.5165L52.4242 34.1606C53.4399 36.4627 54.8142 38.4833 56.5471 40.2163L57.6755 39.0879ZM53.8898 33.5294C52.9881 31.3841 52.5354 29.0959 52.5354 26.6571H50.9396C50.9396 29.2991 51.4313 31.7984 52.4187 34.1477L53.8898 33.5294ZM52.5354 26.6571C52.5354 24.222 53.003 21.9548 53.9331 19.8466L52.4731 19.2025C51.449 21.5236 50.9396 24.0114 50.9396 26.6571H52.5354ZM53.9348 19.8427C54.8737 17.6832 56.1372 15.8135 57.7244 14.2263L56.596 13.098C54.8612 14.8328 53.4866 16.8714 52.4713 19.2064L53.9348 19.8427ZM57.7244 14.2263C59.3135 12.6372 61.1686 11.3735 63.2958 10.435L62.6516 8.97504C60.3495 9.99069 58.3289 11.365 56.596 13.098L57.7244 14.2263ZM63.2918 10.4368C65.4363 9.50437 67.7053 9.03733 70.1063 9.03733V7.44155C67.4916 7.44155 65.0056 7.95157 62.6556 8.97332L63.2918 10.4368ZM70.1063 9.03733C71.8241 9.03733 73.4564 9.27142 75.0066 9.73648L75.4651 8.208C73.7584 7.69599 71.971 7.44155 70.1063 7.44155V9.03733ZM75.0107 9.7377C76.6014 10.2055 78.0798 10.8751 79.4486 11.7461L80.3053 10.3998C78.808 9.44694 77.1924 8.71599 75.461 8.20677L75.0107 9.7377ZM79.4486 11.7461C80.8163 12.6164 82.045 13.6737 83.1359 14.9204L84.3368 13.8695C83.1478 12.5107 81.8037 11.3533 80.3053 10.3998L79.4486 11.7461ZM83.15 14.9361C84.271 16.1505 85.2054 17.5051 85.9539 19.002L87.3812 18.2883C86.5663 16.6587 85.5466 15.1797 84.3226 13.8538L83.15 14.9361ZM86.3712 17.9044L83.9285 18.8814L84.5212 20.3631L86.9639 19.386L86.3712 17.9044ZM84.9733 19.3457C84.396 17.7836 83.6314 16.3223 82.6801 14.9633L81.3728 15.8784C82.2454 17.1249 82.9464 18.4645 83.4764 19.8988L84.9733 19.3457ZM82.6854 14.9709C81.7317 13.5744 80.6211 12.3603 79.3535 11.3325L78.3485 12.572C79.491 13.4984 80.4974 14.5967 81.3676 15.8708L82.6854 14.9709ZM79.3634 11.3407C78.0899 10.2737 76.6768 9.44638 75.127 8.86093L74.5631 10.3537C75.9445 10.8756 77.202 11.6116 78.3386 12.5639L79.3634 11.3407ZM75.1414 8.86651C73.5748 8.23989 71.8939 7.93008 70.1063 7.93008V9.52586C71.7058 9.52586 73.1841 9.80229 74.5487 10.3481L75.1414 8.86651ZM70.1063 7.93008C67.6342 7.93008 65.3795 8.49808 63.3608 9.64664L64.1499 11.0336C65.9092 10.0326 67.8884 9.52586 70.1063 9.52586V7.93008ZM63.3699 9.64152C61.3877 10.7351 59.6936 12.1726 58.2923 13.9498L59.5454 14.9378C60.8148 13.3279 62.345 12.0295 64.1408 11.0387L63.3699 9.64152ZM58.2865 13.9573C56.9262 15.7256 55.876 17.7273 55.133 19.9562L56.6469 20.4608C57.337 18.3906 58.306 16.5491 59.5513 14.9303L58.2865 13.9573ZM55.133 19.9562C54.3909 22.1826 54.0173 24.4173 54.0173 26.6571H55.6131C55.6131 24.5979 55.9561 22.5334 56.6469 20.4608L55.133 19.9562ZM54.0173 26.6571C54.0173 28.897 54.3909 31.1316 55.133 33.358L56.6469 32.8534C55.9561 30.7808 55.6131 28.7163 55.6131 26.6571H54.0173ZM55.133 33.358C55.876 35.5869 56.9262 37.5886 58.2865 39.3569L59.5513 38.3839C58.306 36.7651 57.337 34.9236 56.6469 32.8534L55.133 33.358ZM58.2923 39.3644C59.6919 41.1395 61.383 42.5912 63.3608 43.7164L64.1499 42.3294C62.3497 41.3052 60.8165 39.9885 59.5454 38.3764L58.2923 39.3644ZM63.3699 43.7215C65.387 44.8344 67.6385 45.3841 70.1063 45.3841V43.7884C67.8841 43.7884 65.9017 43.2958 64.1408 42.3243L63.3699 43.7215ZM70.1063 45.3841C72.1462 45.3841 74.0925 45.0608 75.9404 44.4107L75.4107 42.9054C73.7411 43.4928 71.9746 43.7884 70.1063 43.7884V45.3841ZM75.9404 44.4107C77.7712 43.7665 79.4534 42.8834 80.9839 41.7611L80.0402 40.4742C78.6395 41.5014 77.0974 42.3119 75.4107 42.9054L75.9404 44.4107ZM80.993 41.7543C82.5261 40.596 83.854 39.2165 84.9756 37.619L83.6696 36.7021C82.6416 38.1661 81.4292 39.4247 80.031 40.4811L80.993 41.7543ZM84.9756 37.619C86.1015 36.0155 86.9525 34.2436 87.5298 32.3079L86.0006 31.8518C85.4706 33.6288 84.6932 35.2441 83.6696 36.7021L84.9756 37.619ZM86.5129 32.8368L86.9526 32.9833L87.4572 31.4694L87.0175 31.3229L86.5129 32.8368ZM86.4429 31.9899C85.8803 33.8025 85.0691 35.4711 84.009 36.9988L85.3201 37.9085C86.4747 36.2445 87.357 34.4282 87.9669 32.4629L86.4429 31.9899ZM84.0134 36.9925C82.9521 38.4908 81.7057 39.7835 80.2731 40.8735L81.2394 42.1435C82.8032 40.9536 84.1623 39.5431 85.3156 37.9149L84.0134 36.9925ZM80.2753 40.8719C78.881 41.9254 77.3128 42.7494 75.5658 43.3421L76.0785 44.8533C77.9791 44.2084 79.7004 43.3063 81.2373 42.1451L80.2753 40.8719ZM75.5658 43.3421C73.8271 43.932 72.0086 44.228 70.1063 44.228V45.8238C72.1774 45.8238 74.1694 45.501 76.0785 44.8533L75.5658 43.3421ZM104.568 10.0959L104.953 10.7945L104.963 10.7894L104.568 10.0959ZM99.7316 14.2484L100.358 14.7424L100.363 14.7366L99.7316 14.2484ZM96.6538 20.0131L95.8969 19.7608L96.6538 20.0131ZM96.6538 32.9592L95.8969 33.2115L96.6538 32.9592ZM99.7316 38.7727L99.1004 39.2609L99.105 39.2667L99.7316 38.7727ZM104.568 42.9252L104.173 43.6188L104.183 43.6238L104.568 42.9252ZM117.368 42.9252L117.753 43.6239L117.757 43.6216L117.368 42.9252ZM122.253 38.7727L122.879 39.2667L122.884 39.2609L122.253 38.7727ZM125.331 32.9592L126.088 33.2115L125.331 32.9592ZM122.253 14.2484L121.622 14.7366L121.626 14.7424L122.253 14.2484ZM117.368 10.0959L116.973 10.7894L116.98 10.7934L116.987 10.7972L117.368 10.0959ZM118.149 9.50962L117.831 10.2414L117.84 10.2452L118.149 9.50962ZM124.012 13.4667L123.442 14.0254L123.447 14.031L123.453 14.0364L124.012 13.4667ZM127.969 19.3291L127.233 19.6383L127.237 19.6473L127.969 19.3291ZM127.969 33.692L127.237 33.3738L127.233 33.3828L127.969 33.692ZM124.012 39.5544L123.453 38.9847L123.447 38.9902L124.012 39.5544ZM103.786 43.5115L104.105 42.7798L103.786 43.5115ZM97.924 39.5544L98.4882 38.9902L97.924 39.5544ZM93.9669 33.692L94.6986 33.3738L93.9669 33.692ZM93.9669 19.3291L94.6986 19.6473L93.9669 19.3291ZM97.924 13.4667L98.4882 14.031L98.4936 14.0254L97.924 13.4667ZM103.786 9.50962L104.096 10.2452L104.105 10.2413L103.786 9.50962ZM110.968 7.68582C108.465 7.68582 106.194 8.25286 104.173 9.40237L104.963 10.7894C106.72 9.78932 108.715 9.28159 110.968 9.28159V7.68582ZM104.183 9.39725C102.197 10.4927 100.502 11.9489 99.1005 13.7602L100.363 14.7366C101.632 13.0956 103.161 11.7834 104.953 10.7945L104.183 9.39725ZM99.105 13.7544C97.7097 15.524 96.6411 17.5282 95.8969 19.7608L97.4107 20.2654C98.0996 18.1989 99.0827 16.3599 100.358 14.7424L99.105 13.7544ZM95.8969 19.7608C95.1543 21.9885 94.7812 24.2394 94.7812 26.5105H96.3769C96.3769 24.4175 96.7203 22.3367 97.4107 20.2654L95.8969 19.7608ZM94.7812 26.5105C94.7812 28.7504 95.1547 30.985 95.8969 33.2115L97.4107 32.7069C96.7199 30.6342 96.3769 28.5698 96.3769 26.5105H94.7812ZM95.8969 33.2115C96.6407 35.4429 97.7081 37.4611 99.1005 39.2609L100.363 38.2845C99.0843 36.632 98.1 34.7745 97.4107 32.7069L95.8969 33.2115ZM99.105 39.2667C100.505 41.0418 102.196 42.4935 104.173 43.6187L104.963 42.2317C103.162 41.2075 101.629 39.8908 100.358 38.2787L99.105 39.2667ZM104.183 43.6238C106.201 44.7376 108.47 45.2864 110.968 45.2864V43.6906C108.711 43.6906 106.713 43.1972 104.953 42.2266L104.183 43.6238ZM110.968 45.2864C113.466 45.2864 115.734 44.7376 117.753 43.6238L116.982 42.2266C115.223 43.1972 113.225 43.6906 110.968 43.6906V45.2864ZM117.757 43.6216C119.768 42.4967 121.478 41.0444 122.879 39.2667L121.626 38.2787C120.357 39.8881 118.81 41.2042 116.978 42.2289L117.757 43.6216ZM122.884 39.2609C124.276 37.4611 125.344 35.4429 126.088 33.2115L124.574 32.7069C123.884 34.7745 122.9 36.632 121.622 38.2845L122.884 39.2609ZM126.088 33.2115C126.83 30.985 127.203 28.7504 127.203 26.5105H125.608C125.608 28.5698 125.265 30.6342 124.574 32.7069L126.088 33.2115ZM127.203 26.5105C127.203 24.2394 126.83 21.9885 126.088 19.7608L124.574 20.2654C125.264 22.3367 125.608 24.4175 125.608 26.5105H127.203ZM126.088 19.7608C125.343 17.5282 124.275 15.524 122.879 13.7544L121.626 14.7424C122.902 16.3599 123.885 18.1989 124.574 20.2654L126.088 19.7608ZM122.884 13.7602C121.481 11.9462 119.767 10.4895 117.748 9.3945L116.987 10.7972C118.811 11.7867 120.354 13.0983 121.622 14.7366L122.884 13.7602ZM117.762 9.40237C115.742 8.25286 113.47 7.68582 110.968 7.68582V9.28159C113.22 9.28159 115.215 9.78932 116.973 10.7894L117.762 9.40237ZM110.968 8.84191C113.403 8.84191 115.688 9.30953 117.831 10.2413L118.467 8.77791C116.116 7.75559 113.614 7.24614 110.968 7.24614V8.84191ZM117.84 10.2452C119.992 11.1498 121.857 12.4096 123.442 14.0254L124.581 12.908C122.844 11.1367 120.801 9.75847 118.458 8.77406L117.84 10.2452ZM123.453 14.0364C125.069 15.6211 126.329 17.486 127.233 19.6383L128.704 19.02C127.72 16.6778 126.342 14.6344 124.57 12.8971L123.453 14.0364ZM127.237 19.6473C128.169 21.7904 128.636 24.0755 128.636 26.5105H130.232C130.232 23.8648 129.723 21.3623 128.7 19.011L127.237 19.6473ZM128.636 26.5105C128.636 28.9456 128.169 31.2307 127.237 33.3738L128.7 34.0101C129.723 31.6588 130.232 29.1563 130.232 26.5105H128.636ZM127.233 33.3828C126.329 35.5351 125.069 37.4 123.453 38.9847L124.57 40.124C126.342 38.3867 127.72 36.3433 128.704 34.0011L127.233 33.3828ZM123.447 38.9902C121.86 40.5774 119.991 41.8408 117.831 42.7798L118.467 44.2432C120.802 43.228 122.841 41.8534 124.576 40.1185L123.447 38.9902ZM117.831 42.7798C115.688 43.7116 113.403 44.1792 110.968 44.1792V45.775C113.614 45.775 116.116 45.2655 118.467 44.2432L117.831 42.7798ZM110.968 44.1792C108.533 44.1792 106.248 43.7116 104.105 42.7798L103.468 44.2432C105.82 45.2655 108.322 45.775 110.968 45.775V44.1792ZM104.105 42.7798C101.945 41.8408 100.075 40.5774 98.4882 38.9902L97.3598 40.1185C99.0946 41.8534 101.133 43.228 103.468 44.2432L104.105 42.7798ZM98.4882 38.9902C96.901 37.403 95.6375 35.5333 94.6986 33.3738L93.2352 34.0101C94.2504 36.3451 95.625 38.3837 97.3598 40.1185L98.4882 38.9902ZM94.6986 33.3738C93.7668 31.2307 93.2992 28.9456 93.2992 26.5105H91.7034C91.7034 29.1563 92.2128 31.6588 93.2352 34.0101L94.6986 33.3738ZM93.2992 26.5105C93.2992 24.0755 93.7668 21.7904 94.6986 19.6473L93.2352 19.011C92.2128 21.3623 91.7034 23.8648 91.7034 26.5105H93.2992ZM94.6986 19.6473C95.6375 17.4878 96.901 15.6181 98.4882 14.0309L97.3598 12.9025C95.625 14.6374 94.2504 16.676 93.2352 19.011L94.6986 19.6473ZM98.4936 14.0254C100.078 12.4096 101.943 11.1498 104.096 10.2452L103.477 8.77406C101.135 9.75847 99.0916 11.1367 97.3543 12.908L98.4936 14.0254ZM104.105 10.2413C106.248 9.30953 108.533 8.84191 110.968 8.84191V7.24614C108.322 7.24614 105.82 7.75559 103.468 8.77791L104.105 10.2413Z" fill="#BC936A"/>
<path d="M88.8234 45.4152C87.0973 48.0533 85.306 50.6425 83.4496 53.1829C81.5932 55.7232 79.8182 58.3287 78.1246 60.9994L78.2223 61.0971C78.7108 60.4457 79.2808 59.7455 79.9322 58.9964C80.5835 58.2148 81.2838 57.4982 82.0328 56.8469C82.7819 56.1629 83.5961 55.6092 84.4755 55.1859C85.3549 54.7299 86.2505 54.5019 87.1624 54.5019C88.2046 54.5019 89.084 54.7787 89.8005 55.3324C90.517 55.8861 90.8753 56.8469 90.8753 58.2148C90.8753 59.0615 90.7613 59.8758 90.5333 60.6574C90.3053 61.4065 89.9959 62.123 89.6051 62.807C89.2468 63.4583 88.8234 64.0771 88.3349 64.6634C87.8789 65.217 87.4067 65.7381 86.9182 66.2267L87.0159 66.3244C89.3608 65.901 91.4778 65.1031 93.3668 63.9306C95.2883 62.7581 97.1936 60.9994 99.0826 58.6544L99.4734 58.8498C98.0078 60.6411 96.64 62.0416 95.3698 63.0512C94.0996 64.0609 92.9271 64.8262 91.8523 65.3473C90.7776 65.8359 89.7842 66.1778 88.8723 66.3732C87.9604 66.5687 87.0973 66.7641 86.2831 66.9595C85.7294 67.3829 85.0943 67.8877 84.3778 68.4739C83.6939 69.0602 82.9611 69.6301 82.1794 70.1838C81.3977 70.7049 80.5835 71.1609 79.7367 71.5517C78.8899 71.9099 78.0269 72.0891 77.1475 72.0891C76.6916 72.0891 76.2356 71.9588 75.7796 71.6982C75.3562 71.4703 75.1445 71.0794 75.1445 70.5258C75.1445 69.8418 75.4702 69.2719 76.1216 68.8159C76.8055 68.3599 77.6198 68.0017 78.5643 67.7411C79.5413 67.448 80.551 67.2363 81.5932 67.106C82.6354 66.9432 83.5147 66.8292 84.2312 66.7641C84.6546 66.2755 85.078 65.6893 85.5014 65.0054C85.9574 64.2888 86.3645 63.5398 86.7228 62.7581C87.081 61.9765 87.3741 61.1785 87.6021 60.3643C87.8301 59.5175 87.9441 58.7359 87.9441 58.0193C87.9441 56.8794 87.7812 56.1466 87.4555 55.8209C87.1299 55.4627 86.739 55.2836 86.2831 55.2836C85.534 55.2836 84.7361 55.5604 83.8893 56.1141C83.075 56.6352 82.2445 57.3354 81.3977 58.2148C80.551 59.0615 79.7042 60.0223 78.8574 61.0971C78.0432 62.1393 77.2778 63.1815 76.5613 64.2237C75.8448 65.2659 75.1934 66.243 74.6072 67.1549C74.0209 68.0343 73.5324 68.7345 73.1416 69.2556C72.8484 69.679 72.425 70.2978 71.8714 71.112C71.3177 71.9262 70.6989 72.8544 70.0149 73.8966C69.331 74.9388 68.6145 76.0625 67.8654 77.2675C67.0838 78.4726 66.3184 79.6776 65.5693 80.8826C64.8202 82.1203 64.1037 83.309 63.4198 84.4489C62.7358 85.5888 62.1333 86.6148 61.6122 87.5267H58.5833C62.9801 80.4593 67.4583 73.457 72.0179 66.5198C76.6101 59.5501 81.1372 52.5152 85.5991 45.4152H88.8234ZM77.8315 71.5028C78.32 71.5028 78.8574 71.34 79.4436 71.0143C80.0624 70.6886 80.6487 70.2978 81.2023 69.8418C81.7886 69.3859 82.3097 68.9299 82.7656 68.4739C83.2216 68.018 83.5473 67.676 83.7427 67.448L83.645 67.3503C83.0913 67.448 82.3911 67.562 81.5443 67.6923C80.7301 67.79 79.9322 67.9365 79.1505 68.132C78.4014 68.3274 77.75 68.6042 77.1964 68.9625C76.6753 69.2881 76.4147 69.7441 76.4147 70.3304C76.4147 70.7212 76.5613 71.0143 76.8544 71.2097C77.1475 71.4051 77.4732 71.5028 77.8315 71.5028ZM115.269 37.6964C112.371 42.0932 109.847 45.9037 107.697 49.1281C105.548 52.3198 103.708 55.0556 102.177 57.3354C100.646 59.6152 99.3921 61.5042 98.4151 63.0024C97.438 64.468 96.6727 65.673 96.119 66.6175C95.5653 67.562 95.1745 68.3111 94.9465 68.8648C94.7511 69.4184 94.6534 69.8907 94.6534 70.2815C94.6534 71.0957 95.0116 71.5028 95.7282 71.5028C96.5424 71.5028 97.4869 71.1771 98.5616 70.5258C99.669 69.8418 100.841 68.9299 102.079 67.79C103.349 66.6175 104.636 65.2659 105.938 63.7352C107.241 62.1719 108.511 60.5109 109.749 58.7521L110.286 58.9476C109.114 60.6086 107.876 62.2207 106.574 63.784C105.271 65.3148 104.017 66.6501 102.812 67.79C101.216 69.2881 99.8318 70.3792 98.6593 71.0632C97.5194 71.7471 96.4772 72.0891 95.5327 72.0891C94.5231 72.0891 93.7903 71.8611 93.3343 71.4051C92.911 70.9492 92.6993 70.3466 92.6993 69.5976C92.6993 68.9136 92.8132 68.2134 93.0412 67.4969C93.3018 66.7478 93.7252 65.8684 94.3114 64.8588C94.8976 63.8166 95.663 62.5627 96.6075 61.0971C97.5846 59.6315 98.7733 57.8402 100.174 55.7232C101.607 53.5737 103.284 51.0333 105.206 48.1021C107.127 45.1384 109.342 41.6698 111.85 37.6964H115.269ZM115.205 54.8927C113.935 56.6189 112.713 58.2636 111.541 59.8269C110.368 61.3902 109.326 62.8232 108.414 64.126C107.502 65.4287 106.77 66.5687 106.216 67.5457C105.695 68.4902 105.434 69.2393 105.434 69.793C105.434 70.3141 105.565 70.7049 105.825 70.9654C106.086 71.1934 106.428 71.3074 106.851 71.3074C107.47 71.3074 108.138 71.112 108.854 70.7212C109.603 70.3304 110.352 69.8255 111.101 69.2067C111.883 68.5879 112.632 67.904 113.349 67.1549C114.098 66.4058 114.782 65.673 115.4 64.9565C116.052 64.2074 116.605 63.5235 117.061 62.9047C117.55 62.2859 117.908 61.7973 118.136 61.4391L122.435 54.8927H125.806C124.047 57.3028 122.549 59.3547 121.312 61.0482C120.107 62.7092 119.113 64.126 118.332 65.2985C117.582 66.4709 117.045 67.4317 116.719 68.1808C116.394 68.8973 116.231 69.5324 116.231 70.0861C116.231 70.4769 116.345 70.8189 116.573 71.112C116.801 71.3726 117.127 71.5028 117.55 71.5028C118.201 71.5028 118.95 71.2748 119.797 70.8189C120.644 70.3304 121.523 69.7115 122.435 68.9625C123.347 68.1808 124.243 67.3177 125.122 66.3732C126.034 65.3962 126.881 64.4354 127.663 63.4909C128.477 62.5464 129.21 61.667 129.861 60.8528C130.512 60.006 131.017 59.3221 131.375 58.801L131.864 58.9476C131.473 59.5012 130.952 60.2177 130.301 61.0971C129.649 61.9439 128.916 62.8558 128.102 63.8329C127.288 64.7774 126.425 65.7544 125.513 66.7641C124.601 67.7411 123.657 68.6205 122.679 69.4021C121.735 70.1838 120.79 70.8352 119.846 71.3563C118.934 71.8448 118.071 72.0891 117.257 72.0891C116.345 72.0891 115.612 71.8448 115.058 71.3563C114.537 70.8352 114.277 70.1512 114.277 69.3044C114.277 68.6531 114.374 68.0343 114.57 67.448C114.798 66.8292 114.961 66.4384 115.058 66.2755L114.961 66.1778C114.277 66.9595 113.56 67.7086 112.811 68.4251C112.062 69.1416 111.313 69.7767 110.564 70.3304C109.815 70.8515 109.049 71.2748 108.268 71.6005C107.519 71.9262 106.77 72.0891 106.021 72.0891C104.978 72.0891 104.229 71.8611 103.773 71.4051C103.317 70.9166 103.089 70.3466 103.089 69.6953C103.089 68.881 103.317 68.0017 103.773 67.0572C104.197 66.1127 104.799 65.0542 105.581 63.8817C106.363 62.7092 107.291 61.3902 108.365 59.9246C109.473 58.459 110.678 56.7817 111.981 54.8927H115.205ZM148.002 59.0941C147.025 60.6574 145.885 62.2207 144.582 63.784C143.312 65.3148 141.912 66.6989 140.381 67.9365C138.85 69.1742 137.173 70.1838 135.349 70.9654C133.558 71.7145 131.636 72.0891 129.584 72.0891C128.803 72.0891 128.07 71.9914 127.386 71.7959C126.702 71.6005 126.099 71.3074 125.578 70.9166C125.09 70.5258 124.699 70.0372 124.406 69.451C124.08 68.8322 123.917 68.1157 123.917 67.3015C123.917 66.4547 124.194 65.6893 124.748 65.0054C125.301 64.3214 126.05 63.9794 126.995 63.9794C127.484 63.9794 127.874 64.1097 128.167 64.3703C128.493 64.5982 128.656 64.9565 128.656 65.445C128.656 65.901 128.542 66.2918 128.314 66.6175C128.086 66.9432 127.744 67.106 127.288 67.106C126.93 67.106 126.637 67.0083 126.409 66.8129C126.213 66.6175 126.083 66.3732 126.018 66.0801C125.66 66.2755 125.415 66.5687 125.285 66.9595C125.155 67.3177 125.09 67.6923 125.09 68.0831C125.09 69.223 125.513 70.0861 126.36 70.6723C127.239 71.226 128.216 71.5028 129.291 71.5028C129.975 71.5028 130.561 71.3726 131.05 71.112C131.571 70.8189 131.994 70.4606 132.32 70.0372C132.678 69.5813 132.939 69.0602 133.102 68.4739C133.264 67.8877 133.346 67.3015 133.346 66.7152C133.346 66.0964 133.232 65.4613 133.004 64.8099C132.809 64.126 132.581 63.4583 132.32 62.807C132.059 62.1556 131.815 61.5205 131.587 60.9017C131.359 60.2503 131.245 59.6478 131.245 59.0941C131.245 58.3776 131.392 57.7425 131.685 57.1888C131.978 56.6026 132.369 56.1141 132.857 55.7232C133.378 55.3324 133.965 55.0393 134.616 54.8439C135.267 54.6159 135.951 54.5019 136.668 54.5019C137.971 54.5019 139.029 54.795 139.843 55.3813C140.658 55.9349 141.065 56.684 141.065 57.6285C141.065 58.4753 140.739 59.0941 140.088 59.4849C139.469 59.8758 138.769 60.0712 137.987 60.0712C138.182 59.7129 138.345 59.2895 138.475 58.801C138.638 58.2799 138.72 57.8076 138.72 57.3842C138.72 56.7329 138.508 56.1955 138.085 55.7721C137.694 55.3161 137.124 55.0881 136.375 55.0881C135.43 55.0881 134.73 55.3813 134.274 55.9675C133.818 56.5212 133.59 57.2051 133.59 58.0193C133.59 58.7359 133.704 59.4198 133.932 60.0712C134.193 60.7226 134.486 61.3739 134.811 62.0253C135.105 62.6767 135.365 63.3443 135.593 64.0283C135.854 64.7122 135.984 65.4776 135.984 66.3244C135.984 66.9432 135.837 67.5457 135.544 68.132C135.284 68.6856 134.925 69.2067 134.47 69.6953C134.014 70.1512 133.492 70.542 132.906 70.8677C132.353 71.1934 131.783 71.4051 131.196 71.5028L131.294 71.6005C133.053 71.4051 134.73 70.9003 136.326 70.0861C137.922 69.2393 139.404 68.2297 140.772 67.0572C142.172 65.8521 143.459 64.5494 144.631 63.1489C145.803 61.7159 146.829 60.3154 147.709 58.9476L148.002 59.0941Z" fill="#BC936A"/>
<path d="M88.8234 45.4152L89.4911 45.8521L90.299 44.6173H88.8234V45.4152ZM83.4496 53.1829L84.0938 53.6536L83.4496 53.1829ZM78.1246 60.9994L77.4508 60.5721L77.1085 61.1117L77.5604 61.5636L78.1246 60.9994ZM78.2223 61.0971L77.6581 61.6613L78.3086 62.3118L78.8606 61.5758L78.2223 61.0971ZM79.9322 58.9964L80.5342 59.52L80.5397 59.5136L80.5451 59.5072L79.9322 58.9964ZM82.0328 56.8469L82.5564 57.449L82.5637 57.4426L82.5708 57.4361L82.0328 56.8469ZM84.4755 55.1859L84.8216 55.9047L84.8323 55.8996L84.8428 55.8942L84.4755 55.1859ZM89.8005 55.3324L89.3126 55.9638L89.8005 55.3324ZM90.5333 60.6574L91.2967 60.8897L91.2993 60.8808L90.5333 60.6574ZM89.6051 62.807L88.9122 62.411L88.906 62.4224L89.6051 62.807ZM88.3349 64.6634L87.7219 64.1526L87.719 64.1562L88.3349 64.6634ZM86.9182 66.2267L86.354 65.6625L85.7898 66.2267L86.354 66.7909L86.9182 66.2267ZM87.0159 66.3244L86.4517 66.8886L86.7468 67.1838L87.1576 67.1096L87.0159 66.3244ZM93.3668 63.9306L92.9512 63.2495L92.946 63.2527L93.3668 63.9306ZM99.0826 58.6544L99.4394 57.9408L98.8645 57.6533L98.4613 58.1539L99.0826 58.6544ZM99.4734 58.8498L100.091 59.3551L100.723 58.5826L99.8303 58.1362L99.4734 58.8498ZM95.3698 63.0512L95.8663 63.6758L95.3698 63.0512ZM91.8523 65.3473L92.1825 66.0737L92.1915 66.0696L92.2004 66.0653L91.8523 65.3473ZM86.2831 66.9595L86.0969 66.1836L85.9326 66.223L85.7984 66.3257L86.2831 66.9595ZM84.3778 68.4739L83.8725 67.8564L83.8655 67.8622L83.8585 67.8681L84.3778 68.4739ZM82.1794 70.1838L82.622 70.8477L82.6314 70.8414L82.6406 70.8349L82.1794 70.1838ZM79.7367 71.5517L80.0476 72.2865L80.0594 72.2815L80.0711 72.2761L79.7367 71.5517ZM75.7796 71.6982L76.1755 71.0055L76.1668 71.0005L76.1579 70.9957L75.7796 71.6982ZM76.1216 68.8159L75.679 68.152L75.6715 68.157L75.664 68.1622L76.1216 68.8159ZM78.5643 67.7411L78.7764 68.5103L78.785 68.5079L78.7935 68.5054L78.5643 67.7411ZM81.5932 67.106L81.6921 67.8978L81.7043 67.8962L81.7163 67.8944L81.5932 67.106ZM84.2312 66.7641L84.3035 67.5587L84.6236 67.5296L84.8342 67.2866L84.2312 66.7641ZM85.5014 65.0054L84.8282 64.577L84.823 64.5854L85.5014 65.0054ZM86.7228 62.7581L87.4481 63.0905L86.7228 62.7581ZM87.6021 60.3643L88.3705 60.5794L88.3726 60.5717L87.6021 60.3643ZM87.4555 55.8209L86.8652 56.3577L86.8779 56.3717L86.8914 56.3851L87.4555 55.8209ZM83.8893 56.1141L84.3194 56.7861L84.3259 56.7819L83.8893 56.1141ZM81.3977 58.2148L81.9619 58.7789L81.9673 58.7736L81.9725 58.7682L81.3977 58.2148ZM78.8574 61.0971L78.2306 60.6033L78.2286 60.6059L78.8574 61.0971ZM76.5613 64.2237L75.9038 63.7717L76.5613 64.2237ZM74.6072 67.1549L75.2711 67.5975L75.2783 67.5864L74.6072 67.1549ZM73.1416 69.2556L72.5032 68.7768L72.4942 68.789L72.4855 68.8014L73.1416 69.2556ZM71.8714 71.112L72.5312 71.5607L71.8714 71.112ZM70.0149 73.8966L69.3479 73.4589L70.0149 73.8966ZM67.8654 77.2675L68.5348 77.7017L68.539 77.6953L68.543 77.6887L67.8654 77.2675ZM65.5693 80.8826L64.8916 80.4614L64.8867 80.4695L65.5693 80.8826ZM63.4198 84.4489L64.1039 84.8594L63.4198 84.4489ZM61.6122 87.5267V88.3246H62.0752L62.305 87.9226L61.6122 87.5267ZM58.5833 87.5267L57.9058 87.1052L57.1472 88.3246H58.5833V87.5267ZM72.0179 66.5198L71.3517 66.0808L71.3512 66.0816L72.0179 66.5198ZM85.5991 45.4152V44.6173H85.1582L84.9236 44.9907L85.5991 45.4152ZM79.4436 71.0143L79.072 70.3082L79.064 70.3124L79.0561 70.3168L79.4436 71.0143ZM81.2023 69.8418L80.7125 69.212L80.7037 69.2188L80.6951 69.2259L81.2023 69.8418ZM82.7656 68.4739L83.3298 69.0381L82.7656 68.4739ZM83.7427 67.448L84.3485 67.9673L84.8294 67.4063L84.3069 66.8838L83.7427 67.448ZM83.645 67.3503L84.2092 66.7861L83.9154 66.4924L83.5063 66.5646L83.645 67.3503ZM81.5443 67.6923L81.6394 68.4845L81.6525 68.4829L81.6656 68.4809L81.5443 67.6923ZM79.1505 68.132L78.957 67.3579L78.9491 67.3599L79.1505 68.132ZM77.1964 68.9625L77.6193 69.6392L77.6298 69.6323L77.1964 68.9625ZM76.8544 71.2097L77.297 70.5458L76.8544 71.2097ZM88.1558 44.9783C86.4371 47.6049 84.6537 50.1829 82.8054 52.7121L84.0938 53.6536C85.9583 51.1021 87.7574 48.5016 89.4911 45.8521L88.1558 44.9783ZM82.8054 52.7121C80.9386 55.2667 79.1537 57.8867 77.4508 60.5721L78.7984 61.4267C80.4826 58.7708 82.2478 56.1798 84.0938 53.6536L82.8054 52.7121ZM77.5604 61.5636L77.6581 61.6613L78.7865 60.5329L78.6888 60.4352L77.5604 61.5636ZM78.8606 61.5758C79.3354 60.9427 79.8929 60.2575 80.5342 59.52L79.3301 58.4728C78.6687 59.2334 78.0862 59.9487 77.584 60.6184L78.8606 61.5758ZM80.5451 59.5072C81.1699 58.7575 81.8403 58.0716 82.5564 57.449L81.5093 56.2448C80.7272 56.9248 79.9972 57.672 79.3192 58.4856L80.5451 59.5072ZM82.5708 57.4361C83.2649 56.8024 84.0149 56.2932 84.8216 55.9047L84.1294 54.467C83.1774 54.9253 82.299 55.5234 81.4949 56.2576L82.5708 57.4361ZM84.8428 55.8942C85.6187 55.4919 86.3891 55.2998 87.1624 55.2998V53.704C86.1119 53.704 85.0911 53.9679 84.1082 54.4775L84.8428 55.8942ZM87.1624 55.2998C88.0559 55.2998 88.7564 55.5339 89.3126 55.9638L90.2884 54.7011C89.4116 54.0235 88.3533 53.704 87.1624 53.704V55.2998ZM89.3126 55.9638C89.7499 56.3016 90.0774 56.9642 90.0774 58.2148H91.6732C91.6732 56.7295 91.2842 55.4705 90.2884 54.7011L89.3126 55.9638ZM90.0774 58.2148C90.0774 58.989 89.9733 59.7278 89.7673 60.434L91.2993 60.8808C91.5493 60.0237 91.6732 59.1341 91.6732 58.2148H90.0774ZM89.77 60.4251C89.5594 61.1169 89.2738 61.7785 88.9123 62.4111L90.2978 63.2028C90.718 62.4675 91.0512 61.6961 91.2966 60.8897L89.77 60.4251ZM88.906 62.4224C88.573 63.0279 88.1787 63.6045 87.722 64.1526L88.9479 65.1742C89.4682 64.5497 89.9207 63.8888 90.3042 63.1915L88.906 62.4224ZM87.719 64.1562C87.2787 64.6908 86.8237 65.1928 86.354 65.6625L87.4824 66.7909C87.9897 66.2835 88.4792 65.7433 88.9508 65.1706L87.719 64.1562ZM86.354 66.7909L86.4517 66.8886L87.5801 65.7602L87.4824 65.6625L86.354 66.7909ZM87.1576 67.1096C89.5944 66.6696 91.8072 65.8377 93.7876 64.6085L92.946 63.2527C91.1484 64.3684 89.1273 65.1324 86.8741 65.5392L87.1576 67.1096ZM93.7824 64.6117C95.8039 63.3782 97.7756 61.5488 99.704 59.155L98.4613 58.1539C96.6117 60.4499 94.7728 62.138 92.9512 63.2495L93.7824 64.6117ZM98.7258 59.3681L99.1166 59.5635L99.8303 58.1362L99.4394 57.9408L98.7258 59.3681ZM98.8559 58.3446C97.4124 60.1089 96.0846 61.4638 94.8733 62.4266L95.8663 63.6758C97.1953 62.6194 98.6033 61.1734 100.091 59.3551L98.8559 58.3446ZM94.8733 62.4266C93.6338 63.4118 92.5113 64.1411 91.5042 64.6294L92.2004 66.0653C93.3429 65.5114 94.5653 64.7099 95.8663 63.6758L94.8733 62.4266ZM91.5222 64.621C90.4865 65.0917 89.5484 65.4124 88.7051 65.5931L89.0395 67.1534C90.02 66.9433 91.0686 66.58 92.1825 66.0737L91.5222 64.621ZM88.7051 65.5931C87.7875 65.7897 86.9181 65.9865 86.0969 66.1836L86.4693 67.7353C87.2765 67.5416 88.1332 67.3476 89.0395 67.1534L88.7051 65.5931ZM85.7984 66.3257C85.236 66.7558 84.5938 67.2663 83.8725 67.8564L84.883 69.0915C85.5948 68.5091 86.2228 68.01 86.7677 67.5933L85.7984 66.3257ZM83.8585 67.8681C83.1944 68.4374 82.4811 68.9923 81.7182 69.5327L82.6406 70.8349C83.441 70.2679 84.1933 69.6829 84.8971 69.0797L83.8585 67.8681ZM81.7368 69.5199C80.9894 70.0182 80.2113 70.4539 79.4024 70.8272L80.0711 72.2761C80.9558 71.8678 81.8061 71.3916 82.622 70.8477L81.7368 69.5199ZM79.4258 70.8169C78.6729 71.1354 77.9152 71.2912 77.1475 71.2912V72.887C78.1385 72.887 79.107 72.6844 80.0476 72.2865L79.4258 70.8169ZM77.1475 71.2912C76.8503 71.2912 76.5294 71.2077 76.1755 71.0055L75.3838 72.391C75.9418 72.7099 76.5328 72.887 77.1475 72.887V71.2912ZM76.1579 70.9957C76.0372 70.9307 75.9424 70.8398 75.9424 70.5258H74.3466C74.3466 71.3191 74.6753 72.0098 75.4014 72.4008L76.1579 70.9957ZM75.9424 70.5258C75.9424 70.1473 76.1012 69.8041 76.5792 69.4696L75.664 68.1622C74.8392 68.7396 74.3466 69.5363 74.3466 70.5258H75.9424ZM76.5642 69.4798C77.1654 69.079 77.8986 68.7524 78.7764 68.5103L78.3521 66.972C77.3409 67.2509 76.4457 67.6409 75.679 68.152L76.5642 69.4798ZM78.7935 68.5054C79.7268 68.2254 80.6927 68.0227 81.6921 67.8978L81.4942 66.3143C80.4092 66.4499 79.3559 66.6706 78.335 66.9769L78.7935 68.5054ZM81.7163 67.8944C82.7486 67.7331 83.6098 67.6217 84.3035 67.5587L84.159 65.9695C83.4196 66.0367 82.5221 66.1533 81.47 66.3177L81.7163 67.8944ZM84.8342 67.2866C85.2912 66.7593 85.7392 66.1371 86.1798 65.4253L84.823 64.5854C84.4168 65.2415 84.0181 65.7918 83.6283 66.2415L84.8342 67.2866ZM86.1746 65.4337C86.6503 64.6861 87.0748 63.9049 87.4481 63.0905L85.9974 62.4257C85.6542 63.1746 85.2644 63.8916 84.8283 64.577L86.1746 65.4337ZM87.4481 63.0905C87.8234 62.2716 88.131 61.4345 88.3704 60.5794L86.8338 60.1492C86.6172 60.9225 86.3386 61.6813 85.9974 62.4257L87.4481 63.0905ZM88.3726 60.5717C88.6148 59.6718 88.742 58.8195 88.742 58.0193H87.1462C87.1462 58.6522 87.0453 59.3632 86.8317 60.1569L88.3726 60.5717ZM88.742 58.0193C88.742 57.4178 88.6996 56.8861 88.6008 56.4417C88.5052 56.0114 88.3379 55.5749 88.0197 55.2568L86.8914 56.3851C86.8912 56.385 86.9132 56.4073 86.9448 56.4759C86.9764 56.5443 87.0114 56.6453 87.0431 56.7879C87.1071 57.0763 87.1462 57.4809 87.1462 58.0193H88.742ZM88.0459 55.2842C87.5796 54.7712 86.979 54.4857 86.2831 54.4857V56.0814C86.499 56.0814 86.6801 56.1541 86.8652 56.3577L88.0459 55.2842ZM86.2831 54.4857C85.3333 54.4857 84.3849 54.8367 83.4526 55.4463L84.3259 56.7819C85.0872 56.2841 85.7347 56.0814 86.2831 56.0814V54.4857ZM83.4592 55.442C82.5806 56.0043 81.7024 56.7481 80.823 57.6613L81.9725 58.7682C82.7867 57.9227 83.5695 57.266 84.3194 56.7861L83.4592 55.442ZM80.8336 57.6506C79.9617 58.5224 79.0942 59.5073 78.2306 60.6033L79.4841 61.5909C80.3141 60.5374 81.1402 59.6007 81.9619 58.7789L80.8336 57.6506ZM78.2286 60.6059C77.4049 61.6603 76.6299 62.7155 75.9038 63.7717L77.2188 64.6757C77.9257 63.6475 78.6814 62.6183 79.4861 61.5883L78.2286 60.6059ZM75.9038 63.7717C75.1834 64.8196 74.5273 65.8036 73.936 66.7234L75.2783 67.5864C75.8594 66.6824 76.5062 65.7122 77.2188 64.6757L75.9038 63.7717ZM73.9433 66.7123C73.3609 67.5859 72.8815 68.2725 72.5032 68.7768L73.7799 69.7343C74.1833 69.1965 74.681 68.4826 75.271 67.5975L73.9433 66.7123ZM72.4855 68.8014C72.1905 69.2276 71.7656 69.8486 71.2116 70.6633L72.5312 71.5607C73.0845 70.7469 73.5064 70.1303 73.7976 69.7097L72.4855 68.8014ZM71.2116 70.6633C70.6549 71.482 70.0336 72.4139 69.3479 73.4589L70.682 74.3344C71.3642 73.2949 71.9805 72.3705 72.5312 71.5607L71.2116 70.6633ZM69.3479 73.4589C68.6599 74.5072 67.9398 75.6364 67.1878 76.8463L68.543 77.6887C69.2891 76.4885 70.0021 75.3705 70.682 74.3344L69.3479 73.4589ZM67.196 76.8333C66.4116 78.0426 65.6435 79.252 64.8917 80.4614L66.2469 81.3039C66.9933 80.1032 67.7559 78.9025 68.5348 77.7017L67.196 76.8333ZM64.8867 80.4695C64.1371 81.7079 63.4201 82.8976 62.7356 84.0384L64.1039 84.8594C64.7873 83.7205 65.5033 82.5326 66.2519 81.2958L64.8867 80.4695ZM62.7356 84.0384C62.0494 85.182 61.444 86.2129 60.9194 87.1308L62.305 87.9226C62.8226 87.0166 63.4222 85.9957 64.1039 84.8594L62.7356 84.0384ZM61.6122 86.7288H58.5833V88.3246H61.6122V86.7288ZM59.2608 87.9482C63.6541 80.8863 68.1287 73.8896 72.6847 66.958L71.3512 66.0816C66.7879 73.0243 62.3061 80.0322 57.9058 87.1052L59.2608 87.9482ZM72.6842 66.9588C77.2796 59.9843 81.8097 52.9446 86.2747 45.8398L84.9236 44.9907C80.4647 52.0858 75.9407 59.1159 71.3517 66.0808L72.6842 66.9588ZM85.5991 46.2131H88.8234V44.6173H85.5991V46.2131ZM77.8315 72.3007C78.4968 72.3007 79.1685 72.0799 79.8311 71.7118L79.0561 70.3168C78.5463 70.6001 78.1432 70.7049 77.8315 70.7049V72.3007ZM79.8152 71.7204C80.4834 71.3687 81.115 70.9474 81.7096 70.4577L80.6951 69.2259C80.1824 69.6482 79.6414 70.0085 79.072 70.3082L79.8152 71.7204ZM81.6922 70.4716C82.3007 69.9983 82.8473 69.5207 83.3298 69.0381L82.2014 67.9097C81.7721 68.3391 81.2764 68.7734 80.7125 69.212L81.6922 70.4716ZM83.3298 69.0381C83.7878 68.5802 84.1319 68.22 84.3485 67.9673L83.1369 66.9288C82.9627 67.132 82.6554 67.4558 82.2014 67.9097L83.3298 69.0381ZM84.3069 66.8838L84.2092 66.7861L83.0808 67.9145L83.1785 68.0122L84.3069 66.8838ZM83.5063 66.5646C82.9606 66.6609 82.2666 66.7739 81.423 66.9037L81.6656 68.4809C82.5156 68.3501 83.2221 68.2352 83.7837 68.1361L83.5063 66.5646ZM81.4492 66.9001C80.6024 67.0017 79.7716 67.1542 78.957 67.3579L79.344 68.906C80.0927 68.7189 80.8577 68.5783 81.6394 68.4845L81.4492 66.9001ZM78.9491 67.3599C78.1317 67.5732 77.3992 67.8809 76.7629 68.2926L77.6298 69.6323C78.1009 69.3275 78.6712 69.0816 79.3519 68.904L78.9491 67.3599ZM76.7735 68.2859C76.0327 68.7488 75.6168 69.4533 75.6168 70.3304H77.2126C77.2126 70.0349 77.3178 69.8275 77.6193 69.6391L76.7735 68.2859ZM75.6168 70.3304C75.6168 70.9536 75.8696 71.5121 76.4118 71.8736L77.297 70.5458C77.257 70.5192 77.2448 70.4996 77.2383 70.4865C77.2301 70.4701 77.2126 70.4255 77.2126 70.3304H75.6168ZM76.4118 71.8736C76.8383 72.1579 77.3185 72.3007 77.8315 72.3007V70.7049C77.6279 70.7049 77.4567 70.6523 77.297 70.5458L76.4118 71.8736ZM115.269 37.6964L115.936 38.1356L116.751 36.8985H115.269V37.6964ZM107.697 49.1281L108.359 49.5738L108.361 49.5706L107.697 49.1281ZM102.177 57.3354L102.839 57.7802L102.177 57.3354ZM98.4151 63.0024L99.079 63.445L99.0834 63.4382L98.4151 63.0024ZM96.119 66.6175L95.4306 66.214L96.119 66.6175ZM94.9465 68.8648L94.2087 68.561L94.2009 68.5799L94.1941 68.5992L94.9465 68.8648ZM98.5616 70.5258L98.9752 71.2081L98.9809 71.2046L98.5616 70.5258ZM102.079 67.79L102.62 68.3769L102.62 68.3763L102.079 67.79ZM105.938 63.7352L106.546 64.2523L106.551 64.246L105.938 63.7352ZM109.749 58.7521L110.022 58.0023L109.448 57.7936L109.097 58.293L109.749 58.7521ZM110.286 58.9476L110.938 59.4077L111.54 58.5546L110.559 58.1977L110.286 58.9476ZM106.574 63.784L107.181 64.3012L107.187 64.2948L106.574 63.784ZM102.812 67.79L103.358 68.3717L103.36 68.3696L102.812 67.79ZM98.6593 71.0631L98.2573 70.3739L98.2488 70.379L98.6593 71.0631ZM93.3343 71.4051L92.7497 71.948L92.7597 71.9589L92.7702 71.9693L93.3343 71.4051ZM93.0412 67.4969L92.2876 67.2347L92.2841 67.2448L92.2809 67.2549L93.0412 67.4969ZM94.3114 64.8588L95.0015 65.2595L95.0068 65.25L94.3114 64.8588ZM96.6075 61.0971L95.9436 60.6545L95.9368 60.6649L96.6075 61.0971ZM100.174 55.7232L99.5099 55.2806L99.5083 55.283L100.174 55.7232ZM105.206 48.1021L105.873 48.5396L105.875 48.5362L105.206 48.1021ZM111.85 37.6964V36.8985H111.41L111.175 37.2705L111.85 37.6964ZM114.603 37.2572C111.705 41.6533 109.182 45.4626 107.033 48.6855L108.361 49.5706C110.512 46.3449 113.036 42.5331 115.936 38.1356L114.603 37.2572ZM107.035 48.6824C104.886 51.8743 103.045 54.6104 101.514 56.8906L102.839 57.7802C104.37 55.5008 106.21 52.7653 108.359 49.5738L107.035 48.6824ZM101.514 56.8906C99.9826 59.172 98.7265 61.0642 97.7468 62.5665L99.0834 63.4382C100.058 61.9442 101.31 60.0584 102.839 57.7802L101.514 56.8906ZM97.7512 62.5598C96.7701 64.0315 95.9953 65.2508 95.4306 66.214L96.8073 67.021C97.35 66.0952 98.106 64.9044 99.079 63.445L97.7512 62.5598ZM95.4306 66.214C94.8708 67.1689 94.4579 67.9557 94.2087 68.561L95.6843 69.1685C95.891 68.6665 96.2598 67.9551 96.8073 67.021L95.4306 66.214ZM94.1941 68.5992C93.9822 69.1997 93.8555 69.7668 93.8555 70.2815H95.4513C95.4513 70.0145 95.52 69.6372 95.6989 69.1303L94.1941 68.5992ZM93.8555 70.2815C93.8555 70.7883 93.9648 71.3174 94.3231 71.7246C94.6985 72.1512 95.2185 72.3007 95.7282 72.3007V70.7049C95.6226 70.7049 95.5654 70.6897 95.5406 70.6803C95.5287 70.6759 95.5237 70.6725 95.5227 70.6718C95.5219 70.6713 95.5218 70.6712 95.5211 70.6704C95.5207 70.67 95.5038 70.6514 95.4862 70.5912C95.4678 70.5286 95.4513 70.4291 95.4513 70.2815H93.8555ZM95.7282 72.3007C96.747 72.3007 97.838 71.8973 98.9752 71.2081L98.1481 69.8434C97.1357 70.457 96.3378 70.7049 95.7282 70.7049V72.3007ZM98.9809 71.2046C100.142 70.4875 101.355 69.5418 102.62 68.3769L101.539 67.2031C100.328 68.318 99.196 69.1961 98.1424 69.8469L98.9809 71.2046ZM102.62 68.3763C103.917 67.1789 105.226 65.8036 106.546 64.2523L105.331 63.218C104.046 64.7282 102.781 66.0561 101.538 67.2037L102.62 68.3763ZM106.551 64.246C107.869 62.6651 109.152 60.9868 110.402 59.2113L109.097 58.293C107.871 60.0349 106.614 61.6786 105.326 63.2244L106.551 64.246ZM109.476 59.502L110.014 59.6974L110.559 58.1977L110.022 58.0023L109.476 59.502ZM109.635 58.4874C108.474 60.131 107.25 61.7263 105.961 63.2732L107.187 64.2948C108.503 62.7152 109.753 61.0861 110.938 59.4077L109.635 58.4874ZM105.966 63.2669C104.678 64.7801 103.444 66.0938 102.264 67.2103L103.36 68.3696C104.59 67.2064 105.864 65.8494 107.181 64.3011L105.966 63.2669ZM102.266 67.2083C100.691 68.687 99.3562 69.7329 98.2573 70.374L99.0614 71.7523C100.307 71.0255 101.741 69.8893 103.358 68.3717L102.266 67.2083ZM98.2488 70.379C97.1849 71.0174 96.2853 71.2912 95.5327 71.2912V72.887C96.6692 72.887 97.854 72.4768 99.0699 71.7473L98.2488 70.379ZM95.5327 71.2912C94.6185 71.2912 94.139 71.0814 93.8985 70.8409L92.7702 71.9693C93.4417 72.6408 94.4278 72.887 95.5327 72.887V71.2912ZM93.919 70.8622C93.6596 70.5828 93.4971 70.1887 93.4971 69.5976H91.9014C91.9014 70.5046 92.1623 71.3155 92.7497 71.948L93.919 70.8622ZM93.4971 69.5976C93.4971 69.0034 93.596 68.3848 93.8016 67.7388L92.2809 67.2549C92.0305 68.042 91.9014 68.8238 91.9014 69.5976H93.4971ZM93.7948 67.759C94.0328 67.0747 94.43 66.2436 95.0014 65.2594L93.6214 64.4581C93.0204 65.4933 92.5707 66.4208 92.2876 67.2347L93.7948 67.759ZM95.0068 65.25C95.5826 64.2264 96.3388 62.9869 97.2782 61.5293L95.9368 60.6649C94.9872 62.1384 94.2127 63.4068 93.616 64.4676L95.0068 65.25ZM97.2714 61.5397C98.2492 60.073 99.4385 58.2809 100.839 56.1635L99.5083 55.283C98.1082 57.3995 96.92 59.19 95.9436 60.6545L97.2714 61.5397ZM100.838 56.1658C102.272 54.0141 103.951 51.4719 105.873 48.5396L104.538 47.6647C102.618 50.5947 100.941 53.1333 99.5099 55.2806L100.838 56.1658ZM105.875 48.5362C107.799 45.569 110.015 42.0976 112.524 38.1223L111.175 37.2705C108.668 41.242 106.456 44.7078 104.536 47.6681L105.875 48.5362ZM111.85 38.4943H115.269V36.8985H111.85V38.4943ZM115.205 54.8927L115.848 55.3656L116.783 54.0948H115.205V54.8927ZM111.541 59.8269L110.903 59.3482L111.541 59.8269ZM108.414 64.126L107.761 63.6684L108.414 64.126ZM106.216 67.5457L105.522 67.1523L105.517 67.1603L106.216 67.5457ZM105.825 70.9654L105.261 71.5296L105.28 71.5484L105.3 71.5659L105.825 70.9654ZM108.854 70.7212L108.485 70.0138L108.478 70.0172L108.472 70.0207L108.854 70.7212ZM111.101 69.2067L110.606 68.5811L110.6 68.5863L110.593 68.5916L111.101 69.2067ZM113.349 67.1549L112.784 66.5907L112.778 66.597L112.772 66.6034L113.349 67.1549ZM115.4 64.9565L114.798 64.4329L114.796 64.435L115.4 64.9565ZM117.061 62.9047L116.435 62.4103L116.427 62.4207L116.419 62.4314L117.061 62.9047ZM118.136 61.4391L117.469 61.001L117.463 61.0107L118.136 61.4391ZM122.435 54.8927V54.0948H122.005L121.768 54.4548L122.435 54.8927ZM125.806 54.8927L126.451 55.3631L127.376 54.0948H125.806V54.8927ZM121.312 61.0482L120.667 60.5775L120.666 60.5797L121.312 61.0482ZM118.332 65.2985L117.668 64.8559L117.663 64.8623L117.659 64.8689L118.332 65.2985ZM116.719 68.1808L117.446 68.511L117.451 68.4989L116.719 68.1808ZM116.573 71.112L115.943 71.6019L115.957 71.6201L115.972 71.6374L116.573 71.112ZM119.797 70.8189L120.175 71.5214L120.186 71.5159L120.196 71.51L119.797 70.8189ZM122.435 68.9625L122.942 69.579L122.948 69.5737L122.954 69.5683L122.435 68.9625ZM125.122 66.3732L124.539 65.8288L124.538 65.8295L125.122 66.3732ZM127.663 63.4909L127.058 62.9699L127.053 62.976L127.048 62.9822L127.663 63.4909ZM129.861 60.8528L130.484 61.3513L130.489 61.3453L130.493 61.3393L129.861 60.8528ZM131.375 58.801L131.605 58.0368L131.047 57.8696L130.718 58.349L131.375 58.801ZM131.864 58.9476L132.516 59.4077L133.155 58.5019L132.093 58.1833L131.864 58.9476ZM130.301 61.0971L130.933 61.5836L130.937 61.5778L130.942 61.572L130.301 61.0971ZM128.102 63.8329L128.707 64.3539L128.715 64.3437L128.102 63.8329ZM125.513 66.7641L126.096 67.3086L126.105 67.2989L125.513 66.7641ZM122.679 69.4021L122.181 68.779L122.171 68.7875L122.679 69.4021ZM119.846 71.3563L120.223 72.0596L120.231 72.0549L119.846 71.3563ZM115.058 71.3563L114.494 71.9205L114.512 71.9381L114.53 71.9546L115.058 71.3563ZM114.57 67.448L113.821 67.1722L113.817 67.1839L113.813 67.1957L114.57 67.448ZM115.058 66.2755L115.743 66.686L116.063 66.1518L115.623 65.7113L115.058 66.2755ZM114.961 66.1778L115.525 65.6136L114.922 65.0106L114.36 65.6524L114.961 66.1778ZM112.811 68.4251L112.26 67.8485L112.811 68.4251ZM110.564 70.3304L111.02 70.9853L111.029 70.9788L111.038 70.972L110.564 70.3304ZM108.268 71.6005L107.961 70.8639L107.95 70.8688L108.268 71.6005ZM103.773 71.4051L103.19 71.9495L103.199 71.9596L103.209 71.9693L103.773 71.4051ZM103.773 67.0572L104.492 67.4041L104.497 67.3939L104.501 67.3836L103.773 67.0572ZM105.581 63.8817L104.917 63.4391L105.581 63.8817ZM108.365 59.9246L107.729 59.4436L107.722 59.4528L108.365 59.9246ZM111.981 54.8927V54.0948H111.562L111.324 54.4397L111.981 54.8927ZM114.562 54.4198C113.293 56.1442 112.074 57.787 110.903 59.3482L112.179 60.3056C113.353 58.7402 114.576 57.0935 115.848 55.3656L114.562 54.4198ZM110.903 59.3482C109.726 60.9169 108.679 62.3572 107.761 63.6684L109.068 64.5835C109.974 63.2893 111.011 61.8635 112.179 60.3056L110.903 59.3482ZM107.761 63.6684C106.84 64.9842 106.092 66.1463 105.522 67.1524L106.91 67.9391C107.447 66.991 108.165 65.8733 109.068 64.5835L107.761 63.6684ZM105.517 67.1603C104.982 68.1306 104.636 69.0284 104.636 69.793H106.232C106.232 69.4502 106.408 68.8498 106.915 67.9312L105.517 67.1603ZM104.636 69.793C104.636 70.4371 104.798 71.0667 105.261 71.5296L106.389 70.4013C106.331 70.3431 106.232 70.1911 106.232 69.793H104.636ZM105.3 71.5659C105.736 71.9479 106.279 72.1053 106.851 72.1053V70.5095C106.576 70.5095 106.435 70.4389 106.351 70.365L105.3 71.5659ZM106.851 72.1053C107.639 72.1053 108.438 71.8567 109.236 71.4216L108.472 70.0207C107.837 70.3673 107.301 70.5095 106.851 70.5095V72.1053ZM109.223 71.4286C110.028 71.0084 110.824 70.471 111.609 69.8219L110.593 68.5916C109.881 69.18 109.178 69.6523 108.485 70.0138L109.223 71.4286ZM111.597 69.8323C112.408 69.1898 113.184 68.481 113.925 67.7064L112.772 66.6034C112.08 67.327 111.358 67.986 110.606 68.5811L111.597 69.8323ZM113.913 67.7191C114.674 66.9579 115.371 66.2108 116.004 65.478L114.796 64.435C114.192 65.1352 113.521 65.8538 112.784 66.5907L113.913 67.7191ZM116.002 65.4801C116.664 64.7192 117.232 64.0182 117.704 63.378L116.419 62.4314C115.979 63.0288 115.439 63.6957 114.798 64.4329L116.002 65.4801ZM117.688 63.3991C118.181 62.7737 118.559 62.2601 118.809 61.8674L117.463 61.0107C117.257 61.3345 116.918 61.798 116.435 62.4103L117.688 63.3991ZM118.803 61.877L123.102 55.3307L121.768 54.4548L117.469 61.0011L118.803 61.877ZM122.435 55.6906H125.806V54.0948H122.435V55.6906ZM125.162 54.4224C123.403 56.8324 121.905 58.8841 120.667 60.5775L121.956 61.519C123.194 59.8252 124.692 57.7732 126.451 55.3631L125.162 54.4224ZM120.666 60.5797C119.457 62.2458 118.457 63.6717 117.668 64.8559L118.995 65.7411C119.769 64.5803 120.756 63.1727 121.957 61.5168L120.666 60.5797ZM117.659 64.8689C116.901 66.0559 116.338 67.0574 115.988 67.8627L117.451 68.4989C117.752 67.8061 118.264 66.886 119.004 65.728L117.659 64.8689ZM115.993 67.8506C115.639 68.6303 115.433 69.3811 115.433 70.0861H117.029C117.029 69.6838 117.149 69.1644 117.446 68.511L115.993 67.8506ZM115.433 70.0861C115.433 70.6444 115.6 71.161 115.943 71.6019L117.203 70.6222C117.09 70.4768 117.029 70.3095 117.029 70.0861H115.433ZM115.972 71.6374C116.385 72.1091 116.952 72.3007 117.55 72.3007V70.7049C117.301 70.7049 117.217 70.636 117.173 70.5866L115.972 71.6374ZM117.55 72.3007C118.381 72.3007 119.264 72.0123 120.175 71.5214L119.419 70.1164C118.637 70.5374 118.021 70.7049 117.55 70.7049V72.3007ZM120.196 71.51C121.087 70.9957 122.003 70.3504 122.942 69.579L121.929 68.3459C121.044 69.0727 120.201 69.665 119.398 70.1278L120.196 71.51ZM122.954 69.5683C123.891 68.7658 124.808 67.8817 125.706 66.9169L124.538 65.8295C123.678 66.7537 122.804 67.5959 121.916 68.3567L122.954 69.5683ZM125.705 66.9177C126.627 65.93 127.485 64.9573 128.277 63.9996L127.048 62.9822C126.277 63.9134 125.441 64.8623 124.539 65.8288L125.705 66.9177ZM128.267 64.0119C129.086 63.0614 129.825 62.1744 130.484 61.3513L129.238 60.3544C128.594 61.1597 127.867 62.0315 127.058 62.9699L128.267 64.0119ZM130.493 61.3393C131.148 60.4878 131.663 59.7911 132.033 59.253L130.718 58.349C130.371 58.8531 129.876 59.5243 129.228 60.3663L130.493 61.3393ZM131.146 59.5652L131.635 59.7118L132.093 58.1833L131.605 58.0368L131.146 59.5652ZM131.212 58.4874C130.826 59.0341 130.309 59.7451 129.659 60.6222L130.942 61.572C131.595 60.6903 132.12 59.9684 132.516 59.4077L131.212 58.4874ZM129.668 60.6106C129.024 61.4478 128.298 62.3515 127.489 63.3221L128.715 64.3437C129.535 63.3601 130.274 62.44 130.933 61.5836L129.668 60.6106ZM127.498 63.3119C126.688 64.2513 125.829 65.2238 124.921 66.2293L126.105 67.2989C127.021 66.2851 127.888 65.3034 128.707 64.3538L127.498 63.3119ZM124.93 66.2197C124.042 67.1704 123.126 68.0231 122.181 68.7791L123.178 70.0252C124.187 69.2178 125.16 68.3119 126.096 67.3085L124.93 66.2197ZM122.171 68.7875C121.26 69.5416 120.356 70.1636 119.461 70.6577L120.231 72.0549C121.225 71.5067 122.21 70.826 123.188 70.0168L122.171 68.7875ZM119.469 70.653C118.643 71.0958 117.909 71.2912 117.257 71.2912V72.887C118.233 72.887 119.226 72.5938 120.223 72.0596L119.469 70.653ZM117.257 71.2912C116.492 71.2912 115.962 71.0896 115.586 70.758L114.53 71.9546C115.262 72.6 116.198 72.887 117.257 72.887V71.2912ZM115.623 70.7921C115.274 70.4432 115.075 69.9738 115.075 69.3044H113.479C113.479 70.3286 113.801 71.2272 114.494 71.9205L115.623 70.7921ZM115.075 69.3044C115.075 68.7341 115.16 68.2009 115.327 67.7003L113.813 67.1957C113.589 67.8676 113.479 68.572 113.479 69.3044H115.075ZM115.319 67.7238C115.554 67.0854 115.691 66.7717 115.743 66.686L114.374 65.865C114.23 66.1051 114.042 66.573 113.821 67.1722L115.319 67.7238ZM115.623 65.7113L115.525 65.6136L114.396 66.742L114.494 66.8397L115.623 65.7113ZM114.36 65.6524C113.692 66.4163 112.992 67.1483 112.26 67.8485L113.363 69.0017C114.129 68.2688 114.862 67.5026 115.561 66.7032L114.36 65.6524ZM112.26 67.8485C111.532 68.5443 110.809 69.1572 110.09 69.6887L111.038 70.972C111.817 70.3962 112.592 69.7389 113.363 69.0017L112.26 67.8485ZM110.108 69.6754C109.402 70.1666 108.686 70.5618 107.961 70.864L108.575 72.337C109.413 71.9879 110.227 71.5363 111.02 70.9853L110.108 69.6754ZM107.95 70.8688C107.292 71.1548 106.651 71.2912 106.021 71.2912V72.887C106.889 72.887 107.746 72.6976 108.586 72.3323L107.95 70.8688ZM106.021 71.2912C105.065 71.2912 104.574 71.0775 104.337 70.8409L103.209 71.9693C103.884 72.6447 104.892 72.887 106.021 72.887V71.2912ZM104.357 70.8607C104.035 70.5157 103.887 70.1388 103.887 69.6953H102.291C102.291 70.5545 102.6 71.3175 103.19 71.9495L104.357 70.8607ZM103.887 69.6953C103.887 69.0306 104.074 68.2705 104.492 67.4041L103.055 66.7103C102.561 67.7329 102.291 68.7315 102.291 69.6953H103.887ZM104.501 67.3836C104.901 66.491 105.48 65.4721 106.245 64.3243L104.917 63.4391C104.119 64.6363 103.492 65.7344 103.045 66.7308L104.501 67.3836ZM106.245 64.3243C107.018 63.1641 107.939 61.855 109.009 60.3965L107.722 59.4528C106.642 60.9254 105.707 62.2544 104.917 63.4391L106.245 64.3243ZM109.002 60.4056C110.118 58.9289 111.33 57.242 112.637 55.3457L111.324 54.4397C110.026 56.3215 108.828 57.9891 107.729 59.4436L109.002 60.4056ZM111.981 55.6906H115.205V54.0948H111.981V55.6906ZM148.002 59.0941L148.678 59.517L149.144 58.7729L148.359 58.3805L148.002 59.0941ZM144.582 63.784L143.969 63.2732L143.968 63.2745L144.582 63.784ZM140.381 67.9365L139.879 67.3161L140.381 67.9365ZM135.349 70.9654L135.657 71.7016L135.663 71.6988L135.349 70.9654ZM127.386 71.7959L127.167 72.5631L127.386 71.7959ZM125.578 70.9166L125.08 71.5396L125.09 71.5474L125.1 71.5549L125.578 70.9166ZM124.406 69.451L125.119 69.0942L125.116 69.0867L125.112 69.0794L124.406 69.451ZM124.748 65.0054L124.128 64.5033L124.748 65.0054ZM128.167 64.3703L127.637 64.9666L127.672 64.9974L127.71 65.0239L128.167 64.3703ZM128.314 66.6175L128.968 67.0751L128.314 66.6175ZM126.409 66.8129L125.845 67.3771L125.866 67.3988L125.889 67.4187L126.409 66.8129ZM126.018 66.0801L126.797 65.907L126.567 64.8719L125.636 65.3797L126.018 66.0801ZM125.285 66.9595L126.035 67.2322L126.039 67.222L126.042 67.2118L125.285 66.9595ZM126.36 70.6723L125.906 71.3283L125.92 71.3382L125.935 71.3475L126.36 70.6723ZM131.05 71.112L131.425 71.816L131.433 71.8118L131.441 71.8074L131.05 71.112ZM132.32 70.0372L131.693 69.5443L131.688 69.5508L132.32 70.0372ZM133.102 68.4739L133.87 68.6875V68.6875L133.102 68.4739ZM133.004 64.8099L132.237 65.0291L132.243 65.0515L132.251 65.0735L133.004 64.8099ZM132.32 62.807L133.061 62.5106L132.32 62.807ZM131.587 60.9017L130.834 61.1653L130.838 61.1775L131.587 60.9017ZM131.685 57.1888L132.39 57.5622L132.394 57.554L132.399 57.5457L131.685 57.1888ZM132.857 55.7232L132.379 55.0849L132.369 55.0924L132.359 55.1002L132.857 55.7232ZM134.616 54.8439L134.845 55.6081L134.863 55.6029L134.88 55.597L134.616 54.8439ZM139.843 55.3813L139.377 56.0288L139.386 56.035L139.395 56.0411L139.843 55.3813ZM140.088 59.4849L139.677 58.8008L139.669 58.8055L139.662 58.8103L140.088 59.4849ZM137.987 60.0712L137.286 59.6891L136.643 60.8691H137.987V60.0712ZM138.475 58.801L137.714 58.563L137.709 58.5791L137.705 58.5954L138.475 58.801ZM138.085 55.7721L137.479 56.2913L137.499 56.3146L137.52 56.3363L138.085 55.7721ZM134.274 55.9675L134.89 56.4747L134.897 56.4661L134.904 56.4574L134.274 55.9675ZM133.932 60.0712L133.179 60.3348L133.185 60.3513L133.191 60.3675L133.932 60.0712ZM134.812 62.0253L135.539 61.6979L135.532 61.683L135.525 61.6685L134.812 62.0253ZM135.593 64.0283L134.836 64.2806L134.842 64.2966L134.848 64.3123L135.593 64.0283ZM135.544 68.132L134.831 67.7751L134.826 67.7836L134.822 67.7922L135.544 68.132ZM134.47 69.6953L135.034 70.2595L135.043 70.2497L135.053 70.2397L134.47 69.6953ZM132.906 70.8677L132.519 70.1703L132.51 70.175L132.502 70.18L132.906 70.8677ZM131.196 71.5028L131.065 70.7158L129.536 70.9707L130.632 72.067L131.196 71.5028ZM131.294 71.6005L130.73 72.1647L131.001 72.4359L131.382 72.3935L131.294 71.6005ZM136.326 70.0861L136.689 70.7969L136.7 70.7909L136.326 70.0861ZM140.772 67.0572L141.291 67.663L141.292 67.662L140.772 67.0572ZM144.631 63.1489L145.243 63.6612L145.249 63.6542L144.631 63.1489ZM147.709 58.9476L148.066 58.2339L147.425 57.9136L147.038 58.5161L147.709 58.9476ZM147.325 58.6712C146.369 60.2009 145.251 61.7349 143.969 63.2732L145.195 64.2948C146.519 62.7065 147.68 61.114 148.678 59.517L147.325 58.6712ZM143.968 63.2745C142.731 64.7651 141.368 66.112 139.879 67.3161L140.882 68.557C142.455 67.2859 143.893 65.8644 145.196 64.2935L143.968 63.2745ZM139.879 67.3161C138.406 68.5073 136.792 69.479 135.035 70.2321L135.663 71.6988C137.554 70.8885 139.294 69.8411 140.882 68.557L139.879 67.3161ZM135.041 70.2293C133.353 70.9354 131.536 71.2912 129.584 71.2912V72.887C131.736 72.887 133.762 72.4937 135.657 71.7016L135.041 70.2293ZM129.584 71.2912C128.869 71.2912 128.211 71.2019 127.605 71.0288L127.167 72.5631C127.928 72.7808 128.736 72.887 129.584 72.887V71.2912ZM127.605 71.0288C127.006 70.8576 126.493 70.6055 126.057 70.2783L125.1 71.5549C125.705 72.0093 126.398 72.3434 127.167 72.5631L127.605 71.0288ZM126.077 70.2935C125.683 69.9783 125.363 69.5822 125.119 69.0942L123.692 69.8078C124.034 70.4923 124.497 71.0732 125.08 71.5396L126.077 70.2935ZM125.112 69.0794C124.856 68.5927 124.715 68.0075 124.715 67.3015H123.119C123.119 68.2238 123.304 69.0717 123.7 69.8226L125.112 69.0794ZM124.715 67.3015C124.715 66.645 124.924 66.0553 125.368 65.5074L124.128 64.5033C123.464 65.3233 123.119 66.2643 123.119 67.3015H124.715ZM125.368 65.5074C125.758 65.0258 126.271 64.7773 126.995 64.7773V63.1815C125.83 63.1815 124.845 63.6171 124.128 64.5033L125.368 65.5074ZM126.995 64.7773C127.338 64.7773 127.524 64.8656 127.637 64.9666L128.698 63.7739C128.225 63.3538 127.629 63.1815 126.995 63.1815V64.7773ZM127.71 65.0239C127.773 65.0678 127.858 65.1495 127.858 65.445H129.454C129.454 64.7634 129.214 64.1287 128.625 63.7166L127.71 65.0239ZM127.858 65.445C127.858 65.7622 127.781 65.9874 127.66 66.16L128.968 67.0751C129.303 66.5962 129.454 66.0398 129.454 65.445H127.858ZM127.66 66.16C127.605 66.2385 127.528 66.3082 127.288 66.3082V67.9039C127.96 67.9039 128.567 67.6478 128.968 67.0751L127.66 66.16ZM127.288 66.3082C127.082 66.3082 126.985 66.2556 126.928 66.2071L125.889 67.4187C126.289 67.7611 126.778 67.9039 127.288 67.9039V66.3082ZM126.973 66.2487C126.894 66.1699 126.832 66.0654 126.797 65.907L125.239 66.2532C125.334 66.6811 125.533 67.0651 125.845 67.3771L126.973 66.2487ZM125.636 65.3797C125.099 65.6727 124.722 66.127 124.528 66.7072L126.042 67.2118C126.109 67.0103 126.221 66.8784 126.4 66.7806L125.636 65.3797ZM124.535 66.6868C124.372 67.1347 124.292 67.6017 124.292 68.0831H125.888C125.888 67.7829 125.937 67.5008 126.035 67.2322L124.535 66.6868ZM124.292 68.0831C124.292 69.4521 124.818 70.5754 125.906 71.3283L126.814 70.0163C126.208 69.5968 125.888 68.9939 125.888 68.0831H124.292ZM125.935 71.3475C126.946 71.9842 128.071 72.3007 129.291 72.3007V70.7049C128.361 70.7049 127.533 70.4678 126.785 69.9971L125.935 71.3475ZM129.291 72.3007C130.076 72.3007 130.797 72.1511 131.425 71.816L130.674 70.408C130.325 70.594 129.874 70.7049 129.291 70.7049V72.3007ZM131.441 71.8074C132.045 71.4679 132.554 71.0419 132.952 70.5237L131.688 69.5508C131.435 69.8794 131.097 70.1699 130.659 70.4166L131.441 71.8074ZM132.947 70.5302C133.374 69.9873 133.681 69.3702 133.87 68.6875L132.333 68.2604C132.197 68.7501 131.983 69.1753 131.693 69.5443L132.947 70.5302ZM133.87 68.6875C134.052 68.0343 134.144 67.3763 134.144 66.7152H132.548C132.548 67.2266 132.477 67.741 132.333 68.2604L133.87 68.6875ZM134.144 66.7152C134.144 65.9969 134.011 65.2728 133.757 64.5464L132.251 65.0735C132.453 65.6499 132.548 66.1959 132.548 66.7152H134.144ZM133.771 64.5907C133.568 63.881 133.332 63.1876 133.061 62.5106L131.579 63.1033C131.829 63.7291 132.049 64.371 132.237 65.0291L133.771 64.5907ZM133.061 62.5106C132.803 61.8656 132.561 61.2374 132.336 60.6258L130.838 61.1775C131.069 61.8036 131.316 62.4455 131.579 63.1033L133.061 62.5106ZM132.34 60.6381C132.135 60.0514 132.043 59.539 132.043 59.0941H130.447C130.447 59.7565 130.583 60.4492 130.834 61.1653L132.34 60.6381ZM132.043 59.0941C132.043 58.4889 132.166 57.9852 132.39 57.5622L130.98 56.8155C130.617 57.4998 130.447 58.2663 130.447 59.0941H132.043ZM132.399 57.5457C132.643 57.0576 132.962 56.6615 133.356 56.3463L132.359 55.1002C131.776 55.5666 131.313 56.1475 130.971 56.832L132.399 57.5457ZM133.336 56.3615C133.779 56.0295 134.28 55.7778 134.845 55.6081L134.387 54.0796C133.65 54.3008 132.978 54.6353 132.379 55.0849L133.336 56.3615ZM134.88 55.597C135.443 55.3998 136.038 55.2998 136.668 55.2998V53.704C135.865 53.704 135.092 53.832 134.353 54.0908L134.88 55.597ZM136.668 55.2998C137.853 55.2998 138.734 55.5659 139.377 56.0288L140.31 54.7338C139.324 54.0242 138.088 53.704 136.668 53.704V55.2998ZM139.395 56.0411C140.002 56.4537 140.267 56.9613 140.267 57.6285H141.863C141.863 56.4067 141.314 55.4162 140.292 54.7215L139.395 56.0411ZM140.267 57.6285C140.267 58.2336 140.057 58.5729 139.677 58.8008L140.498 60.1691C141.421 59.6153 141.863 58.717 141.863 57.6285H140.267ZM139.662 58.8103C139.179 59.1151 138.629 59.2733 137.987 59.2733V60.8691C138.909 60.8691 139.759 60.6364 140.514 60.1595L139.662 58.8103ZM138.687 60.4532C138.919 60.0278 139.104 59.5426 139.246 59.0066L137.705 58.5954C137.587 59.0365 137.445 59.3981 137.286 59.6891L138.687 60.4532ZM139.237 59.039C139.417 58.4619 139.518 57.9078 139.518 57.3842H137.922C137.922 57.7075 137.859 58.0979 137.714 58.563L139.237 59.039ZM139.518 57.3842C139.518 56.5417 139.236 55.7948 138.649 55.2079L137.52 56.3363C137.78 56.5962 137.922 56.924 137.922 57.3842H139.518ZM138.69 55.2528C138.112 54.5775 137.294 54.2903 136.375 54.2903V55.886C136.953 55.886 137.276 56.0547 137.479 56.2913L138.69 55.2528ZM136.375 54.2903C135.257 54.2903 134.291 54.6457 133.644 55.4776L134.904 56.4574C135.169 56.1168 135.603 55.886 136.375 55.886V54.2903ZM133.658 55.4603C133.069 56.176 132.792 57.0465 132.792 58.0193H134.388C134.388 57.3637 134.568 56.8664 134.89 56.4747L133.658 55.4603ZM132.792 58.0193C132.792 58.8221 132.92 59.5954 133.179 60.3348L134.685 59.8076C134.488 59.2441 134.388 58.6496 134.388 58.0193H132.792ZM133.191 60.3675C133.46 61.0402 133.763 61.7117 134.098 62.3821L135.525 61.6685C135.209 61.0361 134.925 60.4049 134.673 59.7748L133.191 60.3675ZM134.084 62.3527C134.366 62.9794 134.617 63.6219 134.836 64.2806L136.35 63.776C136.114 63.0667 135.843 62.374 135.539 61.6979L134.084 62.3527ZM134.848 64.3123C135.069 64.8925 135.186 65.5597 135.186 66.3244H136.782C136.782 65.3955 136.639 64.5319 136.339 63.7442L134.848 64.3123ZM135.186 66.3244C135.186 66.812 135.072 67.293 134.831 67.7751L136.258 68.4888C136.603 67.7985 136.782 67.0744 136.782 66.3244H135.186ZM134.822 67.7922C134.6 68.2643 134.291 68.7174 133.886 69.1508L135.053 70.2397C135.56 69.6961 135.967 69.107 136.266 68.4717L134.822 67.7922ZM133.905 69.1311C133.504 69.5325 133.043 69.8791 132.519 70.1703L133.294 71.5652C133.942 71.205 134.523 70.7699 135.034 70.2595L133.905 69.1311ZM132.502 70.18C132.025 70.4602 131.547 70.6354 131.065 70.7158L131.328 72.2899C132.018 72.1748 132.68 71.9267 133.311 71.5555L132.502 70.18ZM130.632 72.067L130.73 72.1647L131.858 71.0363L131.761 70.9386L130.632 72.067ZM131.382 72.3935C133.238 72.1874 135.008 71.6542 136.689 70.7968L135.963 69.3754C134.452 70.1464 132.868 70.6229 131.206 70.8075L131.382 72.3935ZM136.7 70.7909C138.348 69.9166 139.878 68.8738 141.291 67.663L140.252 66.4514C138.929 67.5855 137.496 68.562 135.952 69.3813L136.7 70.7909ZM141.292 67.662C142.725 66.4289 144.042 65.0953 145.243 63.6611L144.019 62.6367C142.875 64.0035 141.619 65.2753 140.251 66.4524L141.292 67.662ZM145.249 63.6542C146.438 62.2008 147.482 60.7757 148.38 59.379L147.038 58.5161C146.177 59.8552 145.169 61.231 144.013 62.6437L145.249 63.6542ZM147.352 59.6612L147.645 59.8078L148.359 58.3805L148.066 58.2339L147.352 59.6612Z" fill="#BC936A"/>
</svg>
