<svg width="18" height="18" viewBox="0 0 18 18" fill="none" xmlns="http://www.w3.org/2000/svg">
<path d="M17.0761 14.1277C17.0761 14.4193 17.0113 14.719 16.8736 15.0106C16.7359 15.3022 16.5577 15.5776 16.3228 15.8368C15.9259 16.2742 15.4885 16.5901 14.9944 16.7926C14.5084 16.9951 13.9819 17.1004 13.4149 17.1004C12.5887 17.1004 11.7058 16.906 10.7743 16.5091C9.84279 16.1122 8.91129 15.5776 7.98789 14.9053C7.05639 14.2249 6.17349 13.4716 5.33109 12.6373C4.49679 11.7949 3.74349 10.912 3.07119 9.98859C2.40699 9.06519 1.87239 8.14179 1.48359 7.22649C1.09479 6.30309 0.900391 5.42019 0.900391 4.57779C0.900391 4.02699 0.997591 3.50049 1.19199 3.01449C1.38639 2.52039 1.69419 2.06679 2.12349 1.66179C2.64189 1.15149 3.20889 0.900391 3.80829 0.900391C4.03509 0.900391 4.26189 0.948991 4.46439 1.04619C4.67499 1.14339 4.86129 1.28919 5.00709 1.49979L6.88629 4.14849C7.03209 4.35099 7.13739 4.53729 7.21029 4.71549C7.28319 4.88559 7.32369 5.05569 7.32369 5.20959C7.32369 5.40399 7.26699 5.59839 7.15359 5.78469C7.04829 5.97099 6.89439 6.16539 6.69999 6.35979L6.08439 6.99969C5.99529 7.08879 5.95479 7.19409 5.95479 7.32369C5.95479 7.38849 5.96289 7.44519 5.97909 7.50999C6.00339 7.57479 6.02769 7.62339 6.04389 7.67199C6.18969 7.93929 6.44079 8.28759 6.79719 8.70879C7.16169 9.12999 7.55049 9.55929 7.97169 9.98859C8.40909 10.4179 8.83029 10.8148 9.25959 11.1793C9.68079 11.5357 10.0291 11.7787 10.3045 11.9245C10.345 11.9407 10.3936 11.965 10.4503 11.9893C10.5151 12.0136 10.5799 12.0217 10.6528 12.0217C10.7905 12.0217 10.8958 11.9731 10.9849 11.884L11.6005 11.2765C11.803 11.074 11.9974 10.9201 12.1837 10.8229C12.37 10.7095 12.5563 10.6528 12.7588 10.6528C12.9127 10.6528 13.0747 10.6852 13.2529 10.7581C13.4311 10.831 13.6174 10.9363 13.8199 11.074L16.501 12.9775C16.7116 13.1233 16.8574 13.2934 16.9465 13.4959C17.0275 13.6984 17.0761 13.9009 17.0761 14.1277Z" stroke="#151A21" stroke-miterlimit="10"/>
<path d="M14.2647 6.56938C14.2647 6.08337 13.884 5.33818 13.317 4.73068C12.7986 4.17178 12.1101 3.73438 11.4297 3.73438" stroke="#151A21" stroke-linecap="round" stroke-linejoin="round"/>
<path d="M17.0997 6.57039C17.0997 3.43569 14.5644 0.900391 11.4297 0.900391" stroke="#151A21" stroke-linecap="round" stroke-linejoin="round"/>
</svg>
