<svg width="35" height="35" viewBox="0 0 35 35" fill="none" xmlns="http://www.w3.org/2000/svg">
<path d="M3.41595 10.8278C3.26271 10.5981 2.95226 10.5361 2.72253 10.6893C2.49281 10.8426 2.43081 11.153 2.58405 11.3827L3.41595 10.8278ZM16.2712 31L15.8552 31.2775C15.951 31.421 16.1139 31.505 16.2864 31.4998C16.4588 31.4945 16.6164 31.4008 16.7032 31.2517L16.2712 31ZM32.432 4.25168C32.571 4.01308 32.4903 3.70696 32.2517 3.56796C32.0131 3.42896 31.707 3.50971 31.568 3.74832L32.432 4.25168ZM2.58405 11.3827L15.8552 31.2775L16.6871 30.7225L3.41595 10.8278L2.58405 11.3827ZM16.7032 31.2517L32.432 4.25168L31.568 3.74832L15.8391 30.7483L16.7032 31.2517Z" fill="#151A21"/>
</svg>
