<svg width="35" height="35" viewBox="0 0 35 35" fill="none" xmlns="http://www.w3.org/2000/svg">
<path d="M3.09417 11.005C3.16556 9.44509 3.4098 8.43905 3.74011 7.58508L3.74455 7.57328C4.07188 6.70429 4.58464 5.91707 5.24715 5.26641L5.25644 5.25728L5.26557 5.24798C5.91678 4.58462 6.70427 4.07237 7.5725 3.74591L7.58748 3.74018C8.43949 3.40884 9.44357 3.16551 11.0048 3.09413M3.09417 11.005C3.01912 12.6716 3 13.1883 3 17.5096C3 21.8319 3.01807 22.3473 3.09413 24.0144M3.09417 11.005L3.09417 11.4254M3.74591 27.4466C4.07237 28.3148 4.58462 29.1023 5.24798 29.7535L5.25727 29.7627L5.26638 29.7719C5.91708 30.4345 6.70432 30.9472 7.57332 31.2746L7.58629 31.2795C8.43909 31.6102 9.44365 31.8536 11.0048 31.925M3.74591 27.4466L3.74018 27.4316C3.40884 26.5796 3.16551 25.5755 3.09413 24.0144M3.74591 27.4466L3.72634 27.3436M3.09413 24.0144L3.11969 24.149M3.09413 24.0144L3.09413 23.5929M3.72634 27.3436L3.11969 24.149M3.72634 27.3436C3.46869 26.6629 3.20338 25.7132 3.11969 24.149M3.72634 27.3436C3.73538 27.3674 3.74441 27.391 3.75342 27.4142C4.08017 28.2951 4.59788 29.0926 5.26935 29.7497C5.92612 30.421 6.7234 30.9386 7.60396 31.2654C8.31062 31.5406 9.30636 31.8283 11.0045 31.9061C12.7183 31.9841 13.2477 32 17.5096 32C21.7714 32 22.3013 31.9841 24.015 31.9061C25.7153 31.8282 26.7099 31.5389 27.414 31.2658C28.2951 30.9392 29.0928 30.4214 29.7498 29.7496C30.4211 29.0929 30.9387 28.2956 31.2654 27.4151C31.5406 26.7085 31.8283 25.7127 31.9061 24.0146C31.9841 22.3009 32 21.7703 32 17.5096C32 13.2488 31.9841 12.7178 31.9061 11.0041C31.8277 9.29493 31.5359 8.29889 31.2615 7.59409C30.9028 6.66808 30.4479 5.96773 29.7487 5.26852C29.0509 4.57209 28.3524 4.11695 27.4257 3.75788C26.7184 3.48135 25.7217 3.19126 24.015 3.11305C23.8666 3.10629 23.7271 3.1 23.5932 3.09415M3.11969 24.149C3.11733 24.1048 3.11511 24.0602 3.11305 24.015C3.10629 23.8665 3.09999 23.7269 3.09413 23.5929M11.0048 3.09413C12.6718 3.01807 13.1883 3 17.5096 3C21.8308 3 22.347 3.01911 24.0137 3.09415M11.0048 3.09413L11.4262 3.09413M24.0137 3.09415L23.5932 3.09415M24.0137 3.09415C25.5738 3.16551 26.58 3.40972 27.4341 3.74006L27.4458 3.74455C28.3148 4.07188 29.102 4.58464 29.7527 5.24715L29.7617 5.25635L29.771 5.26539C30.4336 5.91611 30.9463 6.70354 31.2733 7.57277L31.2789 7.58748C31.6103 8.4395 31.8536 9.44357 31.925 11.0048M11.4262 3.09413L23.5932 3.09415M11.4262 3.09413C12.8379 3.03241 13.6181 3.01912 17.5096 3.01912C21.4014 3.01912 22.1814 3.03241 23.5932 3.09415M11.4262 3.09413C11.2923 3.09999 11.1526 3.10629 11.0041 3.11305C9.30379 3.19097 8.30923 3.48024 7.60507 3.75336C6.7207 4.08119 5.92032 4.60166 5.26193 5.27706C4.56925 5.97259 4.11585 6.66959 3.75793 7.59329C3.48138 8.3006 3.19124 9.29779 3.11303 11.0045C3.10629 11.1526 3.10001 11.2918 3.09417 11.4254M31.925 24.0144C31.8536 25.5755 31.6103 26.5801 31.2795 27.4329L31.2746 27.4458C30.9472 28.3148 30.4345 29.102 29.772 29.7527L29.7627 29.7618L29.7535 29.7711C29.1023 30.4345 28.3149 30.9468 27.4466 31.2732L27.4316 31.2789C26.5796 31.6103 25.5755 31.8536 24.0144 31.925M3.09413 23.5929C3.03241 22.1812 3.01912 21.401 3.01912 17.5096C3.01912 13.6169 3.0324 12.8378 3.09417 11.4254M3.09413 23.5929L3.09417 11.4254M14.9289 23.7397C15.7471 24.0786 16.624 24.2531 17.5096 24.2531C19.2981 24.2531 21.0133 23.5426 22.2779 22.2779C23.5426 21.0133 24.2531 19.298 24.2531 17.5096C24.2531 15.7211 23.5426 14.0058 22.2779 12.7412C21.0133 11.4765 19.2981 10.7661 17.5096 10.7661C16.624 10.7661 15.7471 10.9405 14.9289 11.2794C14.1108 11.6183 13.3674 12.115 12.7412 12.7412C12.115 13.3674 11.6183 14.1108 11.2794 14.9289C10.9405 15.7471 10.7661 16.624 10.7661 17.5096C10.7661 18.3951 10.9405 19.272 11.2794 20.0902C11.6183 20.9084 12.115 21.6517 12.7412 22.2779C13.3674 22.9041 14.1108 23.4009 14.9289 23.7397ZM12.7262 12.7262C13.9948 11.4575 15.7154 10.7448 17.5096 10.7448C19.3037 10.7448 21.0243 11.4575 22.293 12.7262C23.5616 13.9948 24.2743 15.7154 24.2743 17.5096C24.2743 19.3037 23.5616 21.0243 22.293 22.293C21.0243 23.5616 19.3037 24.2743 17.5096 24.2743C15.7154 24.2743 13.9948 23.5616 12.7262 22.293C11.4575 21.0243 10.7448 19.3037 10.7448 17.5096C10.7448 15.7154 11.4575 13.9948 12.7262 12.7262ZM28.0835 9.16982C28.0835 9.68333 27.8795 10.1758 27.5164 10.5389C27.1533 10.902 26.6608 11.106 26.1473 11.106C25.6338 11.106 25.1413 10.902 24.7782 10.5389C24.4151 10.1758 24.2111 9.68333 24.2111 9.16982C24.2111 8.6563 24.4151 8.16382 24.7782 7.80072C25.1413 7.43761 25.6338 7.23361 26.1473 7.23361C26.6608 7.23361 27.1533 7.43761 27.5164 7.80072C27.8795 8.16382 28.0835 8.6563 28.0835 9.16982Z" stroke="#151A21" stroke-linejoin="round"/>
</svg>
