<svg width="111" height="66" viewBox="0 0 111 66" fill="none" xmlns="http://www.w3.org/2000/svg">
<path d="M2.82126 32.7069H9.78283C11.4683 32.7069 13.0071 32.3527 14.3994 31.6443C15.8162 30.936 17.0375 29.9955 18.0634 28.8231C19.0893 27.6506 19.8832 26.3193 20.445 24.8293C21.0068 23.3149 21.2877 21.7516 21.2877 20.1394C21.2877 18.5273 21.0068 16.9762 20.445 15.4862C19.8832 13.9717 19.0893 12.6283 18.0634 11.4558C17.0375 10.2833 15.8162 9.3429 14.3994 8.63453C13.0071 7.92616 11.4683 7.57198 9.78283 7.57198H2.82126V32.7069ZM9.78283 7.24222C11.566 7.24222 13.288 7.57198 14.949 8.23149C16.61 8.86658 18.0756 9.75815 19.3458 10.9062C20.6404 12.0298 21.6663 13.3855 22.4236 14.9732C23.1808 16.5609 23.5594 18.283 23.5594 20.1394C23.5594 21.9958 23.1808 23.7179 22.4236 25.3056C21.6663 26.8689 20.6404 28.2246 19.3458 29.3727C18.0756 30.5207 16.61 31.4245 14.949 32.084C13.288 32.7191 11.566 33.0366 9.78283 33.0366H0.879355V7.24222H9.78283ZM35.2472 16.8785V17.2449H29.4581V32.7069H35.9434V33.0366H27.5162V7.24222H34.6243V7.57198H29.4581V16.8785H35.2472ZM52.5795 33.7694C50.6743 33.7694 48.8789 33.4153 47.1935 32.7069C45.5325 31.9741 44.0791 30.9848 42.8334 29.7391C41.5876 28.4933 40.5983 27.0399 39.8655 25.3789C39.1572 23.6935 38.803 21.8981 38.803 19.9929C38.803 18.0876 39.1694 16.3045 39.9022 14.6435C40.635 12.958 41.6242 11.4924 42.87 10.2467C44.1158 9.00093 45.5691 8.01165 47.2301 7.27886C48.9156 6.54606 50.6987 6.17966 52.5795 6.17966C53.923 6.17966 55.2054 6.36286 56.4267 6.72926C57.6725 7.09566 58.8327 7.62083 59.9075 8.30477C60.9823 8.98872 61.9471 9.81922 62.8021 10.7963C63.6814 11.7489 64.4142 12.8115 65.0004 13.9839L63.1684 14.7167C62.7532 13.5931 62.2036 12.5428 61.5197 11.5657C60.8357 10.5642 60.0419 9.69709 59.1381 8.96429C58.2343 8.20707 57.2328 7.62083 56.1336 7.20558C55.0344 6.7659 53.8497 6.54606 52.5795 6.54606C50.8208 6.54606 49.2331 6.9491 47.8164 7.75518C46.3996 8.53683 45.1905 9.56274 44.189 10.8329C43.212 12.1031 42.4547 13.5443 41.9174 15.1564C41.38 16.7686 41.1113 18.3807 41.1113 19.9929C41.1113 21.605 41.38 23.2172 41.9174 24.8293C42.4547 26.4415 43.212 27.8826 44.189 29.1528C45.1905 30.423 46.3996 31.4611 47.8164 32.2672C49.2331 33.0489 50.8208 33.4397 52.5795 33.4397C54.0451 33.4397 55.4375 33.2076 56.7565 32.7435C58.0755 32.2794 59.2846 31.6443 60.3838 30.8383C61.483 30.0077 62.4357 29.0185 63.2417 27.8704C64.0478 26.7224 64.6585 25.4522 65.0737 24.0599L65.4035 24.1698C64.9638 25.5865 64.3287 26.8934 63.4982 28.0903C62.6677 29.2627 61.6906 30.2764 60.567 31.1314C59.4678 31.9619 58.2343 32.6092 56.8664 33.0733C55.4985 33.5374 54.0696 33.7694 52.5795 33.7694ZM83.2256 6.36286C81.4425 6.36286 79.8425 6.7659 78.4258 7.57198C77.009 8.35363 75.7999 9.39175 74.7984 10.6864C73.7969 11.9565 73.0275 13.3977 72.4901 15.0099C71.9527 16.622 71.6841 18.2464 71.6841 19.883C71.6841 21.4951 71.9527 23.1073 72.4901 24.7194C73.0275 26.3316 73.7969 27.7849 74.7984 29.0795C75.7999 30.3497 77.009 31.3878 78.4258 32.1939C79.8425 32.9756 81.4425 33.3664 83.2256 33.3664C85.0087 33.3664 86.6087 32.9756 88.0254 32.1939C89.4666 31.3878 90.6879 30.3497 91.6894 29.0795C92.6909 27.7849 93.4603 26.3316 93.9977 24.7194C94.5351 23.1073 94.8038 21.4951 94.8038 19.883C94.8038 18.2464 94.5351 16.622 93.9977 15.0099C93.4603 13.3977 92.6909 11.9565 91.6894 10.6864C90.6879 9.39175 89.4666 8.35363 88.0254 7.57198C86.6087 6.7659 85.0087 6.36286 83.2256 6.36286ZM83.2256 6.0331C85.1309 6.0331 86.9262 6.3995 88.6116 7.1323C90.2971 7.84067 91.7627 8.82994 93.0084 10.1001C94.2786 11.3459 95.2679 12.8115 95.9762 14.4969C96.709 16.1823 97.0754 17.9777 97.0754 19.883C97.0754 21.7882 96.709 23.5836 95.9762 25.269C95.2679 26.9544 94.2786 28.42 93.0084 29.6658C91.7627 30.9115 90.2971 31.9008 88.6116 32.6336C86.9262 33.3664 85.1309 33.7328 83.2256 33.7328C81.3203 33.7328 79.525 33.3664 77.8395 32.6336C76.1541 31.9008 74.6885 30.9115 73.4428 29.6658C72.197 28.42 71.2077 26.9544 70.4749 25.269C69.7421 23.5836 69.3757 21.7882 69.3757 19.883C69.3757 17.9777 69.7421 16.1823 70.4749 14.4969C71.2077 12.8115 72.197 11.3459 73.4428 10.1001C74.6885 8.82994 76.1541 7.84067 77.8395 7.1323C79.525 6.3995 81.3203 6.0331 83.2256 6.0331Z" fill="#151A21"/>
<path d="M2.82126 32.7069H2.22285V33.3053H2.82126V32.7069ZM14.3994 31.6443L14.1318 31.1091L14.1281 31.111L14.3994 31.6443ZM18.0634 28.8231L17.6131 28.429L17.6131 28.429L18.0634 28.8231ZM20.445 24.8293L21.005 25.0404L21.0061 25.0375L20.445 24.8293ZM20.445 15.4862L19.884 15.6943L19.8851 15.6973L20.445 15.4862ZM18.0634 11.4558L17.6131 11.8499L17.6131 11.8499L18.0634 11.4558ZM14.3994 8.63453L14.1281 9.1679L14.1318 9.16977L14.3994 8.63453ZM2.82126 7.57198V6.97356H2.22285V7.57198H2.82126ZM14.949 8.23149L14.7282 8.78771L14.7353 8.79044L14.949 8.23149ZM19.3458 10.9062L18.9445 11.3502L18.9536 11.3581L19.3458 10.9062ZM22.4236 14.9732L22.9637 14.7156L22.9637 14.7156L22.4236 14.9732ZM22.4236 25.3056L22.9621 25.5665L22.9637 25.5632L22.4236 25.3056ZM19.3458 29.3727L18.9488 28.9249L18.9446 28.9287L19.3458 29.3727ZM14.949 32.084L15.1628 32.643L15.1699 32.6402L14.949 32.084ZM0.879355 33.0366H0.280942V33.6351H0.879355V33.0366ZM0.879355 7.24222V6.64381H0.280942V7.24222H0.879355ZM2.82126 33.3053H9.78283V32.1085H2.82126V33.3053ZM9.78283 33.3053C11.555 33.3053 13.1879 32.9321 14.6708 32.1777L14.1281 31.111C12.8264 31.7733 11.3816 32.1085 9.78283 32.1085V33.3053ZM14.6671 32.1796C16.1521 31.437 17.4358 30.4491 18.5138 29.2171L17.6131 28.429C16.6392 29.542 15.4803 30.4349 14.1318 31.1091L14.6671 32.1796ZM18.5138 29.2171C19.5879 27.9895 20.4184 26.596 21.0049 25.0404L19.8851 24.6182C19.348 26.0427 18.5907 27.3117 17.6131 28.429L18.5138 29.2171ZM21.0061 25.0375C21.5925 23.4565 21.8861 21.8228 21.8861 20.1394H20.6893C20.6893 21.6804 20.4211 23.1732 19.884 24.6212L21.0061 25.0375ZM21.8861 20.1394C21.8861 18.4561 21.5925 16.8334 21.0049 15.2751L19.8851 15.6973C20.4211 17.119 20.6893 18.5985 20.6893 20.1394H21.8861ZM21.0061 15.278C20.4199 13.698 19.5893 12.291 18.5138 11.0617L17.6131 11.8499C18.5893 12.9656 19.3465 14.2455 19.884 15.6943L21.0061 15.278ZM18.5138 11.0617C17.4358 9.8298 16.1521 8.84182 14.6671 8.09929L14.1318 9.16977C15.4803 9.84398 16.6392 10.7368 17.6131 11.8499L18.5138 11.0617ZM14.6708 8.10118C13.1879 7.34672 11.555 6.97356 9.78283 6.97356V8.17039C11.3816 8.17039 12.8264 8.5056 14.1281 9.16788L14.6708 8.10118ZM9.78283 6.97356H2.82126V8.17039H9.78283V6.97356ZM2.22285 7.57198V32.7069H3.41968V7.57198H2.22285ZM9.78283 7.84063C11.4902 7.84063 13.1373 8.15599 14.7282 8.78767L15.1699 7.67532C13.4387 6.98796 11.6418 6.64381 9.78283 6.64381V7.84063ZM14.7353 8.79044C16.33 9.40015 17.7314 10.2536 18.9446 11.3501L19.7471 10.4623C18.4199 9.2627 16.8901 8.33301 15.1628 7.67254L14.7353 8.79044ZM18.9536 11.3581C20.1844 12.4264 21.1607 13.7154 21.8834 15.2308L22.9637 14.7156C22.172 13.0556 21.0964 11.6332 19.7381 10.4543L18.9536 11.3581ZM21.8834 15.2308C22.6002 16.7336 22.961 18.3671 22.961 20.1394H24.1578C24.1578 18.1989 23.7614 16.3882 22.9637 14.7156L21.8834 15.2308ZM22.961 20.1394C22.961 21.9118 22.6002 23.5452 21.8834 25.048L22.9637 25.5632C23.7614 23.8906 24.1578 22.0799 24.1578 20.1394H22.961ZM21.885 25.0448C21.162 26.5374 20.1841 27.8294 18.9488 28.9249L19.7429 29.8204C21.0967 28.6198 22.1706 27.2005 22.9621 25.5665L21.885 25.0448ZM18.9446 28.9287C17.7296 30.0268 16.3258 30.8935 14.7282 31.5278L15.1699 32.6402C16.8943 31.9555 18.4216 31.0146 19.7471 29.8166L18.9446 28.9287ZM14.7353 31.5251C13.1427 32.134 11.4931 32.4382 9.78283 32.4382V33.6351C11.6388 33.6351 13.4333 33.3042 15.1628 32.643L14.7353 31.5251ZM9.78283 32.4382H0.879355V33.6351H9.78283V32.4382ZM1.47777 33.0366V7.24222H0.280942V33.0366H1.47777ZM0.879355 7.84063H9.78283V6.64381H0.879355V7.84063ZM35.2472 16.8785H35.8456V16.2801H35.2472V16.8785ZM35.2472 17.2449V17.8433H35.8456V17.2449H35.2472ZM29.4581 17.2449V16.6465H28.8597V17.2449H29.4581ZM29.4581 32.7069H28.8597V33.3053H29.4581V32.7069ZM35.9434 32.7069H36.5418V32.1085H35.9434V32.7069ZM35.9434 33.0366V33.6351H36.5418V33.0366H35.9434ZM27.5162 33.0366H26.9178V33.6351H27.5162V33.0366ZM27.5162 7.24222V6.64381H26.9178V7.24222H27.5162ZM34.6243 7.24222H35.2227V6.64381H34.6243V7.24222ZM34.6243 7.57198V8.17039H35.2227V7.57198H34.6243ZM29.4581 7.57198V6.97356H28.8597V7.57198H29.4581ZM29.4581 16.8785H28.8597V17.4769H29.4581V16.8785ZM34.6488 16.8785V17.2449H35.8456V16.8785H34.6488ZM35.2472 16.6465H29.4581V17.8433H35.2472V16.6465ZM28.8597 17.2449V32.7069H30.0565V17.2449H28.8597ZM29.4581 33.3053H35.9434V32.1085H29.4581V33.3053ZM35.3449 32.7069V33.0366H36.5418V32.7069H35.3449ZM35.9434 32.4382H27.5162V33.6351H35.9434V32.4382ZM28.1146 33.0366V7.24222H26.9178V33.0366H28.1146ZM27.5162 7.84063H34.6243V6.64381H27.5162V7.84063ZM34.0259 7.24222V7.57198H35.2227V7.24222H34.0259ZM34.6243 6.97356H29.4581V8.17039H34.6243V6.97356ZM28.8597 7.57198V16.8785H30.0565V7.57198H28.8597ZM29.4581 17.4769H35.2472V16.2801H29.4581V17.4769ZM47.1935 32.7069L46.9519 33.2545L46.9616 33.2586L47.1935 32.7069ZM39.8655 25.3789L39.3138 25.6108L39.318 25.6205L39.8655 25.3789ZM39.9022 14.6435L40.4497 14.885L40.451 14.8821L39.9022 14.6435ZM47.2301 7.27886L46.9915 6.73006L46.9886 6.73136L47.2301 7.27886ZM56.4267 6.72926L56.2548 7.30245L56.2579 7.30336L56.4267 6.72926ZM59.9075 8.30477L59.5862 8.80963L59.5862 8.80963L59.9075 8.30477ZM62.8021 10.7963L62.3517 11.1903L62.3569 11.1963L62.3623 11.2022L62.8021 10.7963ZM65.0004 13.9839L65.2227 14.5396L65.8265 14.298L65.5357 13.7163L65.0004 13.9839ZM63.1684 14.7167L62.6071 14.9242L62.8202 15.5006L63.3907 15.2724L63.1684 14.7167ZM61.5197 11.5657L61.0255 11.9032L61.0294 11.9089L61.5197 11.5657ZM59.1381 8.96429L58.7537 9.42304L58.7612 9.42911L59.1381 8.96429ZM56.1336 7.20558L55.9113 7.76129L55.9221 7.76538L56.1336 7.20558ZM47.8164 7.75518L48.1055 8.27918L48.1123 8.2753L47.8164 7.75518ZM44.189 10.8329L43.7191 10.4624L43.7147 10.4681L44.189 10.8329ZM41.9174 15.1564L42.4851 15.3457L42.4851 15.3457L41.9174 15.1564ZM41.9174 24.8293L41.3497 25.0186L41.3497 25.0186L41.9174 24.8293ZM44.189 29.1528L43.7147 29.5177L43.7191 29.5233L44.189 29.1528ZM47.8164 32.2672L47.5204 32.7874L47.5273 32.7912L47.8164 32.2672ZM56.7565 32.7435L56.5579 32.179L56.5579 32.179L56.7565 32.7435ZM60.3838 30.8383L60.7377 31.3209L60.7446 31.3157L60.3838 30.8383ZM63.2417 27.8704L63.7315 28.2143L63.7315 28.2143L63.2417 27.8704ZM65.0737 24.0599L65.263 23.4922L64.6768 23.2968L64.5003 23.8889L65.0737 24.0599ZM65.4035 24.1698L65.975 24.3472L66.1487 23.7874L65.5927 23.6021L65.4035 24.1698ZM63.4982 28.0903L63.9866 28.4362L63.9899 28.4314L63.4982 28.0903ZM60.567 31.1314L60.9278 31.6088L60.9294 31.6076L60.567 31.1314ZM56.8664 33.0733L56.6741 32.5066L56.6741 32.5066L56.8664 33.0733ZM52.5795 33.171C50.7505 33.171 49.0343 32.8314 47.4254 32.1552L46.9616 33.2586C48.7236 33.9991 50.5981 34.3678 52.5795 34.3678V33.171ZM47.435 32.1594C45.8396 31.4555 44.4483 30.5077 43.2565 29.3159L42.4102 30.1622C43.7099 31.4619 45.2253 32.4926 46.952 33.2544L47.435 32.1594ZM43.2565 29.3159C42.0647 28.1241 41.1169 26.7328 40.413 25.1374L39.318 25.6205C40.0798 27.3471 41.1105 28.8625 42.4102 30.1622L43.2565 29.3159ZM40.4172 25.1471C39.741 23.5381 39.4014 21.8219 39.4014 19.9929H38.2046C38.2046 21.9743 38.5733 23.8489 39.3139 25.6108L40.4172 25.1471ZM39.4014 19.9929C39.4014 18.1666 39.7521 16.4662 40.4497 14.885L39.3547 14.4019C38.5867 16.1428 38.2046 18.0086 38.2046 19.9929H39.4014ZM40.451 14.8821C41.1551 13.2625 42.1028 11.8602 43.2931 10.6698L42.4469 9.82354C41.1457 11.1247 40.1148 12.6536 39.3534 14.4049L40.451 14.8821ZM43.2931 10.6698C44.485 9.47799 45.8763 8.53021 47.4717 7.82636L46.9886 6.73136C45.262 7.4931 43.7465 8.52386 42.4469 9.82354L43.2931 10.6698ZM47.4687 7.82765C49.0771 7.12836 50.7788 6.77808 52.5795 6.77808V5.58125C50.6186 5.58125 48.754 5.96376 46.9915 6.73007L47.4687 7.82765ZM52.5795 6.77808C53.8679 6.77808 55.0922 6.95365 56.2548 7.30244L56.5987 6.15609C55.3186 5.77208 53.9781 5.58125 52.5795 5.58125V6.77808ZM56.2579 7.30336C57.4509 7.65424 58.5597 8.15638 59.5862 8.80963L60.2288 7.79992C59.1058 7.08528 57.8941 6.53708 56.5956 6.15517L56.2579 7.30336ZM59.5862 8.80963C60.612 9.46239 61.5336 10.2553 62.3517 11.1903L63.2524 10.4022C62.3607 9.3831 61.3526 8.51504 60.2288 7.79992L59.5862 8.80963ZM62.3623 11.2022C63.2031 12.113 63.9039 13.1289 64.4652 14.2516L65.5357 13.7163C64.9245 12.4941 64.1597 11.3849 63.2418 10.3904L62.3623 11.2022ZM64.7782 13.4283L62.9462 14.1611L63.3907 15.2724L65.2227 14.5396L64.7782 13.4283ZM63.7298 14.5093C63.2968 13.3378 62.7234 12.2418 62.0099 11.2225L61.0294 11.9089C61.6838 12.8437 62.2096 13.8484 62.6071 14.9242L63.7298 14.5093ZM62.0138 11.2282C61.2986 10.1809 60.4657 9.27032 59.515 8.49947L58.7612 9.42911C59.618 10.1238 60.3729 10.9476 61.0255 11.9032L62.0138 11.2282ZM59.5224 8.50559C58.5673 7.70535 57.5074 7.08487 56.3451 6.64578L55.9221 7.76538C56.9582 8.15679 57.9013 8.70878 58.7538 9.42299L59.5224 8.50559ZM56.3559 6.64997C55.181 6.18001 53.9203 5.94765 52.5795 5.94765V7.14447C53.7792 7.14447 54.8879 7.35179 55.9114 7.76119L56.3559 6.64997ZM52.5795 5.94765C50.7255 5.94765 49.0344 6.37364 47.5204 7.23506L48.1123 8.2753C49.4318 7.52456 50.9161 7.14447 52.5795 7.14447V5.94765ZM47.5273 7.23122C46.0407 8.05143 44.7701 9.12951 43.7191 10.4624L44.6589 11.2034C45.611 9.99597 46.7586 9.02222 48.1055 8.27913L47.5273 7.23122ZM43.7147 10.4681C42.6945 11.7943 41.9069 13.2955 41.3497 14.9672L42.4851 15.3457C43.0026 13.793 43.7294 12.4119 44.6633 11.1978L43.7147 10.4681ZM41.3497 14.9672C40.793 16.637 40.5129 18.313 40.5129 19.9929H41.7097C41.7097 18.4484 41.9669 16.9001 42.4851 15.3457L41.3497 14.9672ZM40.5129 19.9929C40.5129 21.6727 40.793 23.3487 41.3497 25.0186L42.4851 24.6401C41.9669 23.0856 41.7097 21.5373 41.7097 19.9929H40.5129ZM41.3497 25.0186C41.9069 26.6902 42.6945 28.1915 43.7147 29.5177L44.6633 28.788C43.7294 27.5738 43.0026 26.1928 42.4851 24.6401L41.3497 25.0186ZM43.7191 29.5233C44.7688 30.8546 46.0371 31.9434 47.5204 32.7873L48.1123 31.7471C46.7621 30.9789 45.6123 29.9914 44.6589 28.7823L43.7191 29.5233ZM47.5273 32.7912C49.0401 33.6258 50.7288 34.0381 52.5795 34.0381V32.8413C50.9129 32.8413 49.4261 32.4719 48.1055 31.7432L47.5273 32.7912ZM52.5795 34.0381C54.1095 34.0381 55.5692 33.7956 56.9551 33.308L56.5579 32.179C55.3057 32.6196 53.9808 32.8413 52.5795 32.8413V34.0381ZM56.9551 33.308C58.3282 32.8249 59.5898 32.1626 60.7377 31.3208L60.0299 30.3557C58.9794 31.1261 57.8228 31.7339 56.5579 32.179L56.9551 33.308ZM60.7446 31.3157C61.8944 30.447 62.8903 29.4124 63.7315 28.2143L62.752 27.5266C61.981 28.6246 61.0717 29.5685 60.0231 30.3608L60.7446 31.3157ZM63.7315 28.2143C64.5759 27.0116 65.2142 25.6827 65.6472 24.2309L64.5003 23.8889C64.1028 25.2217 63.5197 26.4331 62.752 27.5266L63.7315 28.2143ZM64.8845 24.6276L65.2142 24.7375L65.5927 23.6021L65.263 23.4922L64.8845 24.6276ZM64.832 23.9924C64.4101 25.3519 63.8016 26.6033 63.0066 27.7491L63.9899 28.4314C64.8558 27.1834 65.5176 25.8212 65.975 24.3472L64.832 23.9924ZM63.0099 27.7444C62.2139 28.8681 61.2791 29.8377 60.2047 30.6551L60.9294 31.6076C62.1022 30.7152 63.1215 29.6573 63.9865 28.4362L63.0099 27.7444ZM60.2063 30.6539C59.1605 31.444 57.9844 32.062 56.6741 32.5066L57.0587 33.64C58.4842 33.1563 59.7751 32.4797 60.9278 31.6088L60.2063 30.6539ZM56.6741 32.5066C55.3701 32.949 54.0063 33.171 52.5795 33.171V34.3678C54.1329 34.3678 55.6269 34.1257 57.0587 33.64L56.6741 32.5066ZM78.4258 7.57198L78.7149 8.09598L78.7217 8.0921L78.4258 7.57198ZM74.7984 10.6864L75.2684 11.0569L75.2718 11.0525L74.7984 10.6864ZM72.4901 15.0099L71.9224 14.8206L71.9224 14.8206L72.4901 15.0099ZM72.4901 24.7194L71.9224 24.9086L71.9224 24.9086L72.4901 24.7194ZM74.7984 29.0795L74.3251 29.4457L74.3285 29.4501L74.7984 29.0795ZM78.4258 32.1939L78.1298 32.7141L78.1367 32.7179L78.4258 32.1939ZM88.0254 32.1939L88.3145 32.7179L88.3175 32.7162L88.0254 32.1939ZM91.6894 29.0795L92.1593 29.4501L92.1627 29.4457L91.6894 29.0795ZM93.9977 24.7194L94.5654 24.9086L94.5654 24.9086L93.9977 24.7194ZM91.6894 10.6864L91.216 11.0525L91.2195 11.0569L91.6894 10.6864ZM88.0254 7.57198L87.7294 8.0922L87.7401 8.098L88.0254 7.57198ZM88.6116 7.1323L88.373 7.68113L88.3798 7.68397L88.6116 7.1323ZM93.0084 10.1001L92.5811 10.5192L92.5894 10.5274L93.0084 10.1001ZM95.9762 14.4969L95.4245 14.7288L95.4275 14.7355L95.9762 14.4969ZM95.9762 25.269L95.4274 25.0304L95.4246 25.0371L95.9762 25.269ZM93.0084 29.6658L92.5894 29.2385L92.5853 29.2426L93.0084 29.6658ZM77.8395 32.6336L78.0781 32.0848L78.0781 32.0848L77.8395 32.6336ZM73.4428 29.6658L73.8659 29.2426L73.8659 29.2426L73.4428 29.6658ZM70.4749 25.269L71.0237 25.0304L71.0237 25.0304L70.4749 25.269ZM70.4749 14.4969L71.0237 14.7355L71.0237 14.7355L70.4749 14.4969ZM73.4428 10.1001L73.8659 10.5233L73.87 10.5191L73.4428 10.1001ZM77.8395 7.1323L78.0714 7.68401L78.0781 7.68109L77.8395 7.1323ZM83.2256 5.76445C81.3487 5.76445 79.6451 6.18973 78.1298 7.05186L78.7217 8.0921C80.0399 7.34207 81.5362 6.96128 83.2256 6.96128V5.76445ZM78.1367 7.04802C76.6476 7.86961 75.376 8.96174 74.3251 10.3202L75.2718 11.0525C76.2238 9.82177 77.3705 8.83764 78.7149 8.09594L78.1367 7.04802ZM74.3285 10.3159C73.2821 11.6431 72.4806 13.1462 71.9224 14.8206L73.0578 15.1991C73.5745 13.6492 74.3118 12.27 75.2684 11.0569L74.3285 10.3159ZM71.9224 14.8206C71.3655 16.4914 71.0856 18.1796 71.0856 19.883H72.2825C72.2825 18.3131 72.54 16.7526 73.0578 15.1991L71.9224 14.8206ZM71.0856 19.883C71.0856 21.5628 71.3658 23.2388 71.9224 24.9086L73.0578 24.5302C72.5397 22.9757 72.2825 21.4274 72.2825 19.883H71.0856ZM71.9224 24.9086C72.4803 26.5822 73.2809 28.0958 74.3251 29.4457L75.2718 28.7134C74.313 27.474 73.5748 26.0809 73.0578 24.5302L71.9224 24.9086ZM74.3285 29.4501C75.3782 30.7813 76.6465 31.8701 78.1298 32.714L78.7217 31.6738C77.3715 30.9056 76.2217 29.9181 75.2684 28.709L74.3285 29.4501ZM78.1367 32.7179C79.6508 33.5532 81.3519 33.9648 83.2256 33.9648V32.768C81.533 32.768 80.0343 32.3979 78.7149 31.67L78.1367 32.7179ZM83.2256 33.9648C85.0993 33.9648 86.8004 33.5532 88.3145 32.7179L87.7363 31.67C86.4169 32.3979 84.9182 32.768 83.2256 32.768V33.9648ZM88.3175 32.7162C89.8259 31.8725 91.1081 30.7833 92.1593 29.4501L91.2195 28.709C90.2677 29.9161 89.1073 30.9032 87.7333 31.6717L88.3175 32.7162ZM92.1627 29.4457C93.2069 28.0958 94.0076 26.5822 94.5654 24.9086L93.43 24.5302C92.9131 26.0809 92.1748 27.474 91.2161 28.7134L92.1627 29.4457ZM94.5654 24.9086C95.122 23.2388 95.4022 21.5628 95.4022 19.883H94.2054C94.2054 21.4274 93.9481 22.9757 93.43 24.5302L94.5654 24.9086ZM95.4022 19.883C95.4022 18.1796 95.1223 16.4914 94.5654 14.8206L93.43 15.1991C93.9478 16.7526 94.2054 18.3131 94.2054 19.883H95.4022ZM94.5654 14.8206C94.0073 13.1462 93.2058 11.6431 92.1593 10.3158L91.2195 11.0569C92.176 12.27 92.9134 13.6492 93.43 15.1991L94.5654 14.8206ZM92.1627 10.3202C91.1102 8.95971 89.8248 7.86718 88.3107 7.04595L87.7401 8.098C89.1083 8.84007 90.2655 9.82379 91.2161 11.0525L92.1627 10.3202ZM88.3213 7.05186C86.8061 6.18973 85.1025 5.76445 83.2256 5.76445V6.96128C84.915 6.96128 86.4112 7.34207 87.7295 8.0921L88.3213 7.05186ZM83.2256 6.63152C85.0518 6.63152 86.7657 6.98223 88.373 7.68109L88.8502 6.58351C87.0868 5.81678 85.2099 5.43469 83.2256 5.43469V6.63152ZM88.3798 7.68397C89.994 8.36241 91.3927 9.3073 92.5812 10.5191L93.4356 9.68111C92.1327 8.35259 90.6002 7.31893 88.8435 6.58063L88.3798 7.68397ZM92.5894 10.5274C93.8012 11.7159 94.7461 13.1145 95.4246 14.7288L96.5279 14.265C95.7896 12.5084 94.756 10.9759 93.4274 9.67289L92.5894 10.5274ZM95.4275 14.7355C96.1263 16.3429 96.477 18.0567 96.477 19.883H97.6739C97.6739 17.8987 97.2918 16.0218 96.525 14.2583L95.4275 14.7355ZM96.477 19.883C96.477 21.7092 96.1263 23.423 95.4275 25.0304L96.525 25.5076C97.2918 23.7441 97.6739 21.8672 97.6739 19.883H96.477ZM95.4246 25.0371C94.7461 26.6514 93.8012 28.05 92.5894 29.2385L93.4274 30.093C94.756 28.79 95.7896 27.2575 96.5279 25.5009L95.4246 25.0371ZM92.5853 29.2426C91.3949 30.433 89.9926 31.3806 88.373 32.0848L88.8502 33.1824C90.6015 32.421 92.1304 31.39 93.4316 30.0889L92.5853 29.2426ZM88.373 32.0848C86.7657 32.7837 85.0518 33.1344 83.2256 33.1344V34.3312C85.2099 34.3312 87.0868 33.9491 88.8502 33.1824L88.373 32.0848ZM83.2256 33.1344C81.3993 33.1344 79.6855 32.7837 78.0781 32.0848L77.6009 33.1824C79.3644 33.9491 81.2413 34.3312 83.2256 34.3312V33.1344ZM78.0781 32.0848C76.4585 31.3806 75.0563 30.433 73.8659 29.2426L73.0196 30.0889C74.3207 31.39 75.8497 32.421 77.6009 33.1824L78.0781 32.0848ZM73.8659 29.2426C72.6755 28.0522 71.7279 26.65 71.0237 25.0304L69.9262 25.5076C70.6876 27.2589 71.7185 28.7878 73.0196 30.0889L73.8659 29.2426ZM71.0237 25.0304C70.3249 23.423 69.9742 21.7092 69.9742 19.883H68.7773C68.7773 21.8672 69.1594 23.7441 69.9262 25.5076L71.0237 25.0304ZM69.9742 19.883C69.9742 18.0567 70.3249 16.3429 71.0237 14.7355L69.9262 14.2583C69.1594 16.0218 68.7773 17.8987 68.7773 19.883H69.9742ZM71.0237 14.7355C71.7279 13.1159 72.6755 11.7137 73.8659 10.5233L73.0196 9.67698C71.7185 10.9781 70.6876 12.507 69.9262 14.2583L71.0237 14.7355ZM73.87 10.5191C75.0585 9.3073 76.4572 8.36241 78.0714 7.68397L77.6077 6.58063C75.851 7.31893 74.3185 8.35259 73.0155 9.68111L73.87 10.5191ZM78.0781 7.68109C79.6855 6.98223 81.3993 6.63152 83.2256 6.63152V5.43469C81.2413 5.43469 79.3644 5.81678 77.6009 6.58351L78.0781 7.68109Z" fill="#151A21"/>
<path d="M66.617 33.487C65.3224 35.4656 63.979 37.4075 62.5867 39.3127C61.1944 41.218 59.8631 43.1721 58.5929 45.1751L58.6662 45.2484C59.0326 44.7599 59.4601 44.2347 59.9486 43.6729C60.4371 43.0866 60.9623 42.5492 61.5241 42.0607C62.0859 41.5478 62.6966 41.1325 63.3561 40.815C64.0156 40.473 64.6874 40.302 65.3713 40.302C66.1529 40.302 66.8125 40.5096 67.3498 40.9249C67.8872 41.3401 68.1559 42.0607 68.1559 43.0866C68.1559 43.7217 68.0704 44.3324 67.8994 44.9186C67.7285 45.4804 67.4964 46.0178 67.2033 46.5308C66.9346 47.0193 66.617 47.4834 66.2507 47.9231C65.9087 48.3383 65.5545 48.7292 65.1881 49.0956L65.2614 49.1688C67.0201 48.8513 68.6078 48.2528 70.0246 47.3735C71.4657 46.4941 72.8947 45.1751 74.3114 43.4164L74.6045 43.563C73.5053 44.9064 72.4794 45.9568 71.5268 46.714C70.5741 47.4712 69.6948 48.0452 68.8887 48.436C68.0826 48.8024 67.3376 49.0589 66.6537 49.2055C65.9697 49.352 65.3224 49.4986 64.7118 49.6452C64.2965 49.9627 63.8202 50.3413 63.2828 50.781C62.7699 51.2207 62.2203 51.6481 61.634 52.0634C61.0478 52.4542 60.4371 52.7962 59.802 53.0893C59.167 53.358 58.5197 53.4923 57.8601 53.4923C57.5182 53.4923 57.1762 53.3946 56.8342 53.1992C56.5167 53.0282 56.3579 52.7351 56.3579 52.3199C56.3579 51.8069 56.6022 51.3794 57.0907 51.0375C57.6037 50.6955 58.2143 50.4268 58.9227 50.2314C59.6555 50.0116 60.4127 49.8528 61.1944 49.7551C61.976 49.6329 62.6355 49.5475 63.1729 49.4986C63.4905 49.1322 63.808 48.6925 64.1255 48.1796C64.4675 47.6422 64.7728 47.0804 65.0415 46.4941C65.3102 45.9079 65.5301 45.3094 65.7011 44.6988C65.872 44.0637 65.9575 43.4775 65.9575 42.9401C65.9575 42.0851 65.8354 41.5355 65.5911 41.2913C65.3469 41.0226 65.0538 40.8882 64.7118 40.8882C64.15 40.8882 63.5515 41.0959 62.9164 41.5111C62.3058 41.9019 61.6829 42.4271 61.0478 43.0866C60.4127 43.7217 59.7776 44.4423 59.1425 45.2484C58.5319 46.03 57.9578 46.8117 57.4205 47.5933C56.8831 48.375 56.3945 49.1078 55.9549 49.7917C55.5152 50.4512 55.1488 50.9764 54.8557 51.3672C54.6358 51.6848 54.3183 52.1489 53.903 52.7595C53.4878 53.3702 53.0237 54.0664 52.5107 54.848C51.9978 55.6297 51.4604 56.4724 50.8986 57.3762C50.3123 58.2799 49.7383 59.1837 49.1765 60.0875C48.6147 61.0157 48.0773 61.9073 47.5644 62.7622C47.0514 63.6171 46.5995 64.3866 46.2087 65.0705H43.937C47.2346 59.77 50.5932 54.5183 54.013 49.3154C57.4571 44.0881 60.8524 38.812 64.1988 33.487H66.617ZM58.3731 53.0527C58.7395 53.0527 59.1425 52.9305 59.5822 52.6863C60.0463 52.442 60.486 52.1489 60.9012 51.8069C61.3409 51.4649 61.7317 51.123 62.0737 50.781C62.4157 50.439 62.66 50.1825 62.8065 50.0116L62.7332 49.9383C62.318 50.0116 61.7928 50.097 61.1577 50.1948C60.5471 50.268 59.9486 50.378 59.3624 50.5245C58.8006 50.6711 58.312 50.8787 57.8968 51.1474C57.506 51.3917 57.3105 51.7336 57.3105 52.1733C57.3105 52.4664 57.4205 52.6863 57.6403 52.8328C57.8601 52.9794 58.1044 53.0527 58.3731 53.0527ZM86.4515 27.6979C84.2775 30.9955 82.3845 33.8534 80.7723 36.2716C79.1602 38.6654 77.7801 40.7173 76.632 42.4271C75.484 44.137 74.5436 45.5537 73.8108 46.6773C73.078 47.7765 72.5039 48.6803 72.0887 49.3887C71.6734 50.097 71.3803 50.6589 71.2093 51.0741C71.0628 51.4894 70.9895 51.8435 70.9895 52.1367C70.9895 52.7473 71.2582 53.0527 71.7956 53.0527C72.4062 53.0527 73.1146 52.8084 73.9207 52.3199C74.7512 51.8069 75.6305 51.123 76.5587 50.268C77.5114 49.3887 78.4762 48.375 79.4533 47.2269C80.4303 46.0545 81.383 44.8087 82.3112 43.4897L82.7142 43.6362C81.8349 44.882 80.9067 46.0911 79.9296 47.2636C78.9525 48.4116 78.0121 49.4131 77.1083 50.268C75.9114 51.3917 74.8733 52.2099 73.994 52.7229C73.139 53.2359 72.3574 53.4923 71.649 53.4923C70.8918 53.4923 70.3422 53.3214 70.0002 52.9794C69.6827 52.6374 69.5239 52.1855 69.5239 51.6237C69.5239 51.1107 69.6094 50.5856 69.7804 50.0482C69.9758 49.4864 70.2933 48.8269 70.733 48.0696C71.1727 47.288 71.7467 46.3476 72.4551 45.2484C73.1879 44.1492 74.0795 42.8057 75.1298 41.218C76.2046 39.6059 77.4625 37.7006 78.9037 35.5022C80.3449 33.2794 82.0059 30.678 83.8867 27.6979H86.4515ZM86.4031 40.5951C85.4505 41.8897 84.5345 43.1233 83.6551 44.2957C82.7758 45.4682 81.9941 46.543 81.3102 47.52C80.6262 48.4971 80.0766 49.352 79.6614 50.0848C79.2706 50.7932 79.0752 51.355 79.0752 51.7703C79.0752 52.1611 79.1729 52.4542 79.3683 52.6496C79.5637 52.8206 79.8202 52.9061 80.1377 52.9061C80.6018 52.9061 81.1026 52.7595 81.6399 52.4664C82.2017 52.1733 82.7636 51.7947 83.3254 51.3306C83.9116 50.8665 84.4734 50.3535 85.0108 49.7917C85.5726 49.2299 86.0856 48.6803 86.5497 48.1429C87.0382 47.5811 87.4535 47.0682 87.7954 46.6041C88.1618 46.1399 88.4305 45.7736 88.6015 45.5049L91.8258 40.5951H94.354C93.0349 42.4027 91.9113 43.9416 90.9831 45.2117C90.0793 46.4575 89.3343 47.52 88.7481 48.3994C88.1863 49.2788 87.7832 49.9993 87.5389 50.5612C87.2947 51.0985 87.1725 51.5749 87.1725 51.9901C87.1725 52.2832 87.258 52.5397 87.429 52.7595C87.6 52.955 87.8443 53.0527 88.1618 53.0527C88.6504 53.0527 89.2122 52.8817 89.8473 52.5397C90.4823 52.1733 91.1419 51.7092 91.8258 51.1474C92.5097 50.5612 93.1815 49.9138 93.841 49.2055C94.5249 48.4727 95.16 47.7521 95.7463 47.0437C96.3569 46.3354 96.9065 45.6758 97.3951 45.0652C97.8836 44.4301 98.2622 43.9171 98.5309 43.5263L98.8973 43.6362C98.6042 44.0515 98.2133 44.5889 97.7248 45.2484C97.2363 45.8835 96.6867 46.5674 96.076 47.3002C95.4654 48.0086 94.8181 48.7414 94.1341 49.4986C93.4502 50.2314 92.7418 50.8909 92.009 51.4771C91.3006 52.0634 90.5923 52.5519 89.8839 52.9427C89.2 53.3091 88.5526 53.4923 87.942 53.4923C87.258 53.4923 86.7084 53.3091 86.2932 52.9427C85.9024 52.5519 85.707 52.039 85.707 51.4039C85.707 50.9153 85.7802 50.4512 85.9268 50.0116C86.0978 49.5475 86.2199 49.2543 86.2932 49.1322L86.2199 49.0589C85.707 49.6452 85.1696 50.207 84.6078 50.7444C84.046 51.2817 83.4841 51.7581 82.9223 52.1733C82.3605 52.5641 81.7865 52.8817 81.2003 53.1259C80.6385 53.3702 80.0766 53.4923 79.5148 53.4923C78.7332 53.4923 78.1714 53.3214 77.8294 52.9794C77.4874 52.613 77.3164 52.1855 77.3164 51.697C77.3164 51.0863 77.4874 50.4268 77.8294 49.7184C78.1469 49.0101 78.5988 48.2162 79.1851 47.3369C79.7713 46.4575 80.4675 45.4682 81.2735 44.369C82.104 43.2698 83.0078 42.0119 83.9849 40.5951H86.4031ZM111.001 43.7461C110.268 44.9186 109.413 46.0911 108.436 47.2636C107.483 48.4116 106.433 49.4497 105.285 50.378C104.137 51.3062 102.879 52.0634 101.511 52.6496C100.168 53.2114 98.7264 53.4923 97.1875 53.4923C96.6013 53.4923 96.0517 53.4191 95.5387 53.2725C95.0258 53.1259 94.5739 52.9061 94.1831 52.613C93.8167 52.3199 93.5235 51.9535 93.3037 51.5138C93.0594 51.0497 92.9373 50.5123 92.9373 49.9016C92.9373 49.2665 93.1449 48.6925 93.5602 48.1796C93.9754 47.6666 94.5372 47.4101 95.2456 47.4101C95.612 47.4101 95.9051 47.5078 96.125 47.7032C96.3692 47.8742 96.4914 48.1429 96.4914 48.5093C96.4914 48.8513 96.4059 49.1444 96.2349 49.3887C96.0639 49.6329 95.8074 49.7551 95.4655 49.7551C95.1968 49.7551 94.9769 49.6818 94.8059 49.5352C94.6594 49.3887 94.5617 49.2055 94.5128 48.9856C94.2441 49.1322 94.0609 49.352 93.9632 49.6452C93.8655 49.9138 93.8167 50.1948 93.8167 50.4879C93.8167 51.3428 94.1342 51.9901 94.7693 52.4298C95.4288 52.845 96.1616 53.0527 96.9677 53.0527C97.4806 53.0527 97.9203 52.955 98.2867 52.7595C98.6775 52.5397 98.9951 52.271 99.2394 51.9535C99.508 51.6115 99.7035 51.2207 99.8256 50.781C99.9477 50.3413 100.009 49.9016 100.009 49.462C100.009 48.9979 99.9233 48.5215 99.7523 48.033C99.6058 47.52 99.4348 47.0193 99.2394 46.5308C99.0439 46.0422 98.8607 45.5659 98.6898 45.1018C98.5188 44.6133 98.4333 44.1614 98.4333 43.7461C98.4333 43.2088 98.5432 42.7324 98.763 42.3172C98.9829 41.8775 99.276 41.5111 99.6424 41.218C100.033 40.9249 100.473 40.705 100.961 40.5585C101.45 40.3875 101.963 40.302 102.5 40.302C103.477 40.302 104.271 40.5218 104.882 40.9615C105.493 41.3768 105.798 41.9386 105.798 42.647C105.798 43.282 105.554 43.7461 105.065 44.0393C104.601 44.3324 104.076 44.4789 103.49 44.4789C103.636 44.2103 103.758 43.8927 103.856 43.5263C103.978 43.1355 104.039 42.7813 104.039 42.4638C104.039 41.9752 103.88 41.5722 103.563 41.2546C103.27 40.9127 102.842 40.7417 102.28 40.7417C101.572 40.7417 101.047 40.9615 100.705 41.4012C100.363 41.8165 100.192 42.3294 100.192 42.9401C100.192 43.4775 100.277 43.9904 100.448 44.4789C100.644 44.9675 100.864 45.456 101.108 45.9445C101.328 46.4331 101.523 46.9338 101.694 47.4468C101.89 47.9597 101.987 48.5338 101.987 49.1688C101.987 49.6329 101.877 50.0848 101.658 50.5245C101.462 50.9398 101.193 51.3306 100.852 51.697C100.51 52.039 100.119 52.3321 99.679 52.5763C99.2638 52.8206 98.8363 52.9794 98.3966 53.0527L98.4699 53.1259C99.7889 52.9794 101.047 52.6008 102.244 51.9901C103.441 51.355 104.552 50.5978 105.578 49.7184C106.628 48.8147 107.593 47.8376 108.473 46.7873C109.352 45.7125 110.121 44.6621 110.781 43.6362L111.001 43.7461Z" fill="#151A21"/>
<path d="M66.617 33.487L67.1178 33.8147L67.7237 32.8886H66.617V33.487ZM62.5867 39.3127L63.0698 39.6658L63.0698 39.6658L62.5867 39.3127ZM58.5929 45.1751L58.0876 44.8546L57.8309 45.2594L58.1698 45.5982L58.5929 45.1751ZM58.6662 45.2484L58.2431 45.6715L58.731 46.1594L59.1449 45.6074L58.6662 45.2484ZM59.9486 43.6729L60.4003 44.0656L60.4083 44.056L59.9486 43.6729ZM61.5241 42.0607L61.9168 42.5123L61.9223 42.5075L61.9276 42.5026L61.5241 42.0607ZM63.3561 40.815L63.6157 41.3541L63.6237 41.3503L63.6316 41.3462L63.3561 40.815ZM67.3498 40.9249L66.9839 41.3984L66.9839 41.3984L67.3498 40.9249ZM67.8994 44.9186L68.472 45.0929L68.4739 45.0862L67.8994 44.9186ZM67.2033 46.5308L66.6836 46.2338L66.6789 46.2424L67.2033 46.5308ZM66.2507 47.9231L65.7909 47.54L65.7887 47.5427L66.2507 47.9231ZM65.1881 49.0956L64.765 48.6724L64.3418 49.0956L64.765 49.5187L65.1881 49.0956ZM65.2614 49.1688L64.8382 49.592L65.0596 49.8134L65.3677 49.7577L65.2614 49.1688ZM70.0246 47.3735L69.7129 46.8626L69.709 46.8651L70.0246 47.3735ZM74.3114 43.4164L74.579 42.8812L74.1478 42.6656L73.8454 43.041L74.3114 43.4164ZM74.6045 43.563L75.0677 43.9419L75.5417 43.3625L74.8721 43.0277L74.6045 43.563ZM71.5268 46.714L71.8991 47.1824L71.8991 47.1824L71.5268 46.714ZM68.8887 48.436L69.1363 48.9808L69.1431 48.9777L69.1498 48.9745L68.8887 48.436ZM66.6537 49.2055L66.5283 48.6204L66.6537 49.2055ZM64.7118 49.6452L64.5721 49.0633L64.4489 49.0928L64.3483 49.1698L64.7118 49.6452ZM63.2828 50.781L62.9038 50.3177L62.8934 50.3266L63.2828 50.781ZM61.634 52.0634L61.966 52.5613L61.973 52.5566L61.9799 52.5517L61.634 52.0634ZM59.802 53.0893L60.0352 53.6404L60.0441 53.6367L60.0528 53.6326L59.802 53.0893ZM56.8342 53.1992L57.1311 52.6797L57.1246 52.6759L57.1179 52.6723L56.8342 53.1992ZM57.0907 51.0375L56.7587 50.5394L56.7475 50.5472L57.0907 51.0375ZM58.9227 50.2314L59.0819 50.8084L59.0946 50.8046L58.9227 50.2314ZM61.1944 49.7551L61.2686 50.3489L61.2777 50.3477L61.2867 50.3463L61.1944 49.7551ZM63.1729 49.4986L63.2271 50.0946L63.4672 50.0727L63.6251 49.8905L63.1729 49.4986ZM64.1255 48.1796L63.6206 47.8583L63.6167 47.8646L64.1255 48.1796ZM65.0415 46.4941L65.5855 46.7435L65.5855 46.7435L65.0415 46.4941ZM65.7011 44.6988L66.2773 44.8601L66.2789 44.8544L65.7011 44.6988ZM65.5911 41.2913L65.1483 41.6938L65.1579 41.7044L65.168 41.7144L65.5911 41.2913ZM62.9164 41.5111L63.239 42.0152L63.2439 42.012L62.9164 41.5111ZM61.0478 43.0866L61.471 43.5098L61.4788 43.5017L61.0478 43.0866ZM59.1425 45.2484L58.6725 44.878L58.671 44.88L59.1425 45.2484ZM57.4205 47.5933L56.9273 47.2543L56.9273 47.2543L57.4205 47.5933ZM55.9549 49.7917L56.4528 50.1237L56.4582 50.1153L55.9549 49.7917ZM54.8557 51.3672L54.3769 51.0082L54.3701 51.0173L54.3637 51.0266L54.8557 51.3672ZM53.903 52.7595L54.3979 53.096L54.3979 53.096L53.903 52.7595ZM52.5107 54.848L52.0104 54.5197L52.0104 54.5197L52.5107 54.848ZM50.8986 57.3762L51.4007 57.7019L51.4068 57.6921L50.8986 57.3762ZM49.1765 60.0875L48.6682 59.7716L48.6646 59.7776L49.1765 60.0875ZM47.5644 62.7622L48.0775 63.0701L48.0775 63.0701L47.5644 62.7622ZM46.2087 65.0705V65.6689H46.556L46.7282 65.3674L46.2087 65.0705ZM43.937 65.0705L43.4289 64.7544L42.86 65.6689H43.937V65.0705ZM54.013 49.3154L53.5133 48.9862L53.5129 48.9867L54.013 49.3154ZM64.1988 33.487V32.8886H63.8681L63.6922 33.1686L64.1988 33.487ZM59.5822 52.6863L59.3034 52.1566L59.2916 52.1632L59.5822 52.6863ZM60.9012 51.8069L60.5339 51.3345L60.5273 51.3397L60.5208 51.345L60.9012 51.8069ZM62.0737 50.781L62.4969 51.2041L62.4969 51.2041L62.0737 50.781ZM62.8065 50.0116L63.2609 50.401L63.6215 49.9803L63.2297 49.5884L62.8065 50.0116ZM62.7332 49.9383L63.1564 49.5151L62.9361 49.2948L62.6292 49.349L62.7332 49.9383ZM61.1577 50.1948L61.229 50.7889L61.2389 50.7877L61.2487 50.7862L61.1577 50.1948ZM59.3624 50.5245L59.2172 49.9439L59.2113 49.9455L59.3624 50.5245ZM57.8968 51.1474L58.214 51.6549L58.2219 51.6498L57.8968 51.1474ZM57.6403 52.8328L57.9722 52.3349L57.9722 52.3349L57.6403 52.8328ZM66.1163 33.1594C64.8273 35.1293 63.4897 37.0627 62.1035 38.9597L63.0698 39.6658C64.4682 37.7522 65.8176 35.8018 67.1178 33.8147L66.1163 33.1594ZM62.1035 38.9597C60.7034 40.8756 59.3648 42.8406 58.0876 44.8546L59.0983 45.4956C60.3615 43.5037 61.6853 41.5604 63.0698 39.6658L62.1035 38.9597ZM58.1698 45.5982L58.2431 45.6715L59.0894 44.8252L59.0161 44.752L58.1698 45.5982ZM59.1449 45.6074C59.5011 45.1326 59.9191 44.6187 60.4002 44.0655L59.497 43.2802C59.001 43.8506 58.5642 44.3871 58.1875 44.8893L59.1449 45.6074ZM60.4083 44.056C60.8769 43.4937 61.3797 42.9793 61.9168 42.5123L61.1315 41.6092C60.5449 42.1192 59.9974 42.6796 59.4889 43.2898L60.4083 44.056ZM61.9276 42.5026C62.4481 42.0274 63.0107 41.6455 63.6157 41.3541L63.0965 40.2758C62.3825 40.6196 61.7237 41.0682 61.1206 41.6188L61.9276 42.5026ZM63.6316 41.3462C64.2135 41.0445 64.7913 40.9004 65.3713 40.9004V39.7036C64.5834 39.7036 63.8178 39.9015 63.0806 40.2837L63.6316 41.3462ZM65.3713 40.9004C66.0414 40.9004 66.5668 41.076 66.9839 41.3984L67.7157 40.4514C67.0582 39.9432 66.2645 39.7036 65.3713 39.7036V40.9004ZM66.9839 41.3984C67.3119 41.6518 67.5575 42.1487 67.5575 43.0866H68.7543C68.7543 41.9727 68.4626 41.0285 67.7157 40.4514L66.9839 41.3984ZM67.5575 43.0866C67.5575 43.6673 67.4794 44.2214 67.325 44.7511L68.4739 45.0862C68.6614 44.4434 68.7543 43.7761 68.7543 43.0866H67.5575ZM67.327 44.7444C67.1691 45.2632 66.9548 45.7595 66.6837 46.2339L67.7229 46.8277C68.038 46.2762 68.2879 45.6977 68.4719 45.0929L67.327 44.7444ZM66.6789 46.2424C66.4292 46.6965 66.1335 47.129 65.7909 47.54L66.7104 48.3062C67.1006 47.8379 67.44 47.3421 67.7276 46.8192L66.6789 46.2424ZM65.7887 47.5427C65.4585 47.9436 65.1172 48.3201 64.765 48.6724L65.6112 49.5187C65.9918 49.1382 66.3588 48.733 66.7126 48.3035L65.7887 47.5427ZM64.765 49.5187L64.8382 49.592L65.6845 48.7457L65.6112 48.6724L64.765 49.5187ZM65.3677 49.7577C67.1952 49.4278 68.8549 48.8038 70.3401 47.8819L69.709 46.8651C68.3608 47.7019 66.8449 48.2748 65.155 48.5799L65.3677 49.7577ZM70.3362 47.8843C71.8524 46.9592 73.3311 45.5872 74.7774 43.7918L73.8454 43.041C72.4582 44.763 71.079 46.0291 69.7129 46.8627L70.3362 47.8843ZM74.0438 43.9516L74.3369 44.0982L74.8721 43.0277L74.579 42.8812L74.0438 43.9516ZM74.1414 43.184C73.0588 44.5072 72.0629 45.5234 71.1544 46.2455L71.8991 47.1824C72.8959 46.3901 73.9519 45.3056 75.0677 43.9419L74.1414 43.184ZM71.1544 46.2455C70.2248 46.9844 69.383 47.5314 68.6276 47.8976L69.1498 48.9745C70.0066 48.5591 70.9235 47.958 71.8991 47.1824L71.1544 46.2455ZM68.6411 47.8913C67.8644 48.2443 67.1608 48.4848 66.5283 48.6204L66.7791 49.7906C67.5145 49.633 68.3009 49.3606 69.1363 48.9808L68.6411 47.8913ZM66.5283 48.6204C65.8401 48.7678 65.188 48.9155 64.5721 49.0633L64.8514 50.227C65.4569 50.0817 66.0994 49.9363 66.7791 49.7906L66.5283 48.6204ZM64.3483 49.1698C63.9264 49.4924 63.4448 49.8753 62.9039 50.3178L63.6618 51.2441C64.1956 50.8074 64.6666 50.433 65.0753 50.1205L64.3483 49.1698ZM62.8934 50.3266C62.3953 50.7536 61.8603 51.1698 61.2881 51.5751L61.9799 52.5517C62.5803 52.1265 63.1445 51.6877 63.6723 51.2353L62.8934 50.3266ZM61.3021 51.5655C60.7415 51.9392 60.158 52.266 59.5513 52.546L60.0528 53.6326C60.7163 53.3264 61.3541 52.9692 61.966 52.5613L61.3021 51.5655ZM59.5689 52.5382C59.0041 52.7771 58.4359 52.8939 57.8601 52.8939V54.0908C58.6034 54.0908 59.3298 53.9389 60.0352 53.6404L59.5689 52.5382ZM57.8601 52.8939C57.6372 52.8939 57.3966 52.8313 57.1311 52.6797L56.5373 53.7188C56.9558 53.9579 57.3991 54.0908 57.8601 54.0908V52.8939ZM57.1179 52.6723C57.0274 52.6236 56.9563 52.5554 56.9563 52.3199H55.7595C55.7595 52.9149 56.006 53.4329 56.5505 53.7261L57.1179 52.6723ZM56.9563 52.3199C56.9563 52.036 57.0754 51.7786 57.4339 51.5277L56.7475 50.5472C56.1289 50.9803 55.7595 51.5778 55.7595 52.3199H56.9563ZM57.4226 51.5354C57.8735 51.2348 58.4234 50.9899 59.0818 50.8083L58.7636 49.6545C58.0052 49.8637 57.3338 50.1562 56.7588 50.5396L57.4226 51.5354ZM59.0946 50.8046C59.7946 50.5946 60.519 50.4426 61.2686 50.3489L61.1201 49.1613C60.3064 49.263 59.5164 49.4285 58.7507 49.6582L59.0946 50.8046ZM61.2867 50.3463C62.061 50.2253 62.7069 50.1418 63.2271 50.0946L63.1187 48.9026C62.5642 48.9531 61.8911 49.0405 61.102 49.1638L61.2867 50.3463ZM63.6251 49.8905C63.9679 49.495 64.3039 49.0284 64.6344 48.4945L63.6167 47.8646C63.3121 48.3567 63.013 48.7694 62.7207 49.1067L63.6251 49.8905ZM64.6304 48.5008C64.9872 47.9401 65.3056 47.3542 65.5855 46.7435L64.4975 46.2448C64.2401 46.8065 63.9478 47.3443 63.6207 47.8583L64.6304 48.5008ZM65.5855 46.7435C65.867 46.1293 66.0977 45.5014 66.2773 44.8601L65.1248 44.5374C64.9624 45.1175 64.7534 45.6865 64.4975 46.2448L65.5855 46.7435ZM66.2789 44.8544C66.4606 44.1794 66.5559 43.5402 66.5559 42.9401H65.3591C65.3591 43.4147 65.2835 43.948 65.1232 44.5432L66.2789 44.8544ZM66.5559 42.9401C66.5559 42.489 66.5242 42.0902 66.4501 41.7569C66.3784 41.4342 66.2529 41.1067 66.0143 40.8681L65.168 41.7144C65.1679 41.7143 65.1844 41.7311 65.2081 41.7825C65.2318 41.8338 65.258 41.9095 65.2818 42.0165C65.3298 42.2328 65.3591 42.5363 65.3591 42.9401H66.5559ZM66.0339 40.8887C65.6842 40.504 65.2338 40.2898 64.7118 40.2898V41.4867C64.8737 41.4867 65.0096 41.5412 65.1483 41.6938L66.0339 40.8887ZM64.7118 40.2898C63.9994 40.2898 63.2882 40.5531 62.5889 41.0103L63.2439 42.012C63.8149 41.6386 64.3005 41.4867 64.7118 41.4867V40.2898ZM62.5939 41.0071C61.9349 41.4288 61.2763 41.9866 60.6168 42.6715L61.4788 43.5017C62.0895 42.8676 62.6766 42.3751 63.239 42.0151L62.5939 41.0071ZM60.6247 42.6635C59.9708 43.3174 59.3201 44.056 58.6725 44.878L59.6126 45.6187C60.2351 44.8286 60.8547 44.1261 61.4709 43.5098L60.6247 42.6635ZM58.671 44.88C58.0532 45.6708 57.4719 46.4622 56.9273 47.2543L57.9136 47.9323C58.4438 47.1612 59.0106 46.3893 59.6141 45.6168L58.671 44.88ZM56.9273 47.2543C56.387 48.0402 55.895 48.7782 55.4515 49.4681L56.4582 50.1153C56.8941 49.4373 57.3791 48.7097 57.9136 47.9323L56.9273 47.2543ZM55.457 49.4598C55.0202 50.115 54.6606 50.6299 54.3769 51.0082L55.3344 51.7263C55.6369 51.3229 56.0102 50.7875 56.4528 50.1237L55.457 49.4598ZM54.3637 51.0266C54.1424 51.3462 53.8237 51.812 53.4082 52.423L54.3979 53.096C54.8129 52.4858 55.1293 52.0233 55.3477 51.7079L54.3637 51.0266ZM53.4082 52.423C52.9907 53.037 52.5247 53.736 52.0104 54.5197L53.011 55.1763C53.5226 54.3967 53.9849 53.7034 54.3979 53.096L53.4082 52.423ZM52.0104 54.5197C51.4944 55.3059 50.9544 56.1528 50.3904 57.0602L51.4068 57.6921C51.9664 56.7919 52.5011 55.9534 53.011 55.1763L52.0104 54.5197ZM50.3965 57.0505C49.8082 57.9575 49.2321 58.8645 48.6683 59.7716L49.6847 60.4034C50.2445 59.5029 50.8164 58.6024 51.4006 57.7018L50.3965 57.0505ZM48.6646 59.7776C48.1024 60.7065 47.5646 61.5987 47.0512 62.4543L48.0775 63.0701C48.59 62.2159 49.127 61.325 49.6884 60.3974L48.6646 59.7776ZM47.0512 62.4543C46.5366 63.312 46.0825 64.0852 45.6891 64.7736L46.7282 65.3674C47.1165 64.688 47.5662 63.9223 48.0775 63.0701L47.0512 62.4543ZM46.2087 64.4721H43.937V65.6689H46.2087V64.4721ZM44.4451 65.3866C47.7401 60.0903 51.096 54.8428 54.513 49.6441L53.5129 48.9867C50.0904 54.1937 46.7291 59.4496 43.4289 64.7544L44.4451 65.3866ZM54.5127 49.6446C57.9592 44.4138 61.3568 39.134 64.7055 33.8054L63.6922 33.1686C60.348 38.49 56.955 43.7625 53.5133 48.9862L54.5127 49.6446ZM64.1988 34.0854H66.617V32.8886H64.1988V34.0854ZM58.3731 53.6511C58.8721 53.6511 59.3759 53.4855 59.8728 53.2094L59.2916 52.1632C58.9092 52.3756 58.6069 52.4542 58.3731 52.4542V53.6511ZM59.8609 53.2158C60.3621 52.952 60.8357 52.6361 61.2817 52.2688L60.5208 51.345C60.1363 51.6617 59.7306 51.9319 59.3035 52.1567L59.8609 53.2158ZM61.2686 52.2793C61.725 51.9243 62.1349 51.566 62.4969 51.2041L61.6506 50.3579C61.3285 50.6799 60.9568 51.0056 60.5339 51.3345L61.2686 52.2793ZM62.4969 51.2041C62.8403 50.8607 63.0984 50.5906 63.2609 50.401L62.3522 49.6221C62.2215 49.7745 61.9911 50.0174 61.6506 50.3579L62.4969 51.2041ZM63.2297 49.5884L63.1564 49.5151L62.3101 50.3614L62.3834 50.4347L63.2297 49.5884ZM62.6292 49.349C62.2199 49.4212 61.6995 49.506 61.0667 49.6033L61.2487 50.7862C61.8862 50.6881 62.416 50.6019 62.8372 50.5276L62.6292 49.349ZM61.0864 49.6006C60.4513 49.6768 59.8282 49.7912 59.2172 49.944L59.5075 51.1051C60.069 50.9647 60.6428 50.8593 61.229 50.7889L61.0864 49.6006ZM59.2113 49.9455C58.5982 50.1054 58.0489 50.3362 57.5717 50.645L58.2219 51.6498C58.5752 51.4212 59.0029 51.2367 59.5134 51.1035L59.2113 49.9455ZM57.5796 50.6399C57.024 50.9872 56.7121 51.5155 56.7121 52.1733H57.909C57.909 51.9517 57.9879 51.7961 58.2139 51.6548L57.5796 50.6399ZM56.7121 52.1733C56.7121 52.6407 56.9017 53.0596 57.3084 53.3307L57.9722 52.3349C57.9423 52.3149 57.9331 52.3002 57.9282 52.2904C57.9221 52.2781 57.909 52.2447 57.909 52.1733H56.7121ZM57.3084 53.3307C57.6283 53.544 57.9884 53.6511 58.3731 53.6511V52.4542C58.2204 52.4542 58.092 52.4148 57.9722 52.3349L57.3084 53.3307ZM86.4515 27.6979L86.9511 28.0273L87.5628 27.0995H86.4515V27.6979ZM80.7723 36.2716L81.2687 36.6059L81.2702 36.6036L80.7723 36.2716ZM76.632 42.4271L77.1288 42.7607L77.1288 42.7607L76.632 42.4271ZM73.8108 46.6773L74.3087 47.0093L74.312 47.0042L73.8108 46.6773ZM72.0887 49.3887L71.5724 49.0861L71.5724 49.0861L72.0887 49.3887ZM71.2093 51.0741L70.656 50.8463L70.6501 50.8605L70.645 50.8749L71.2093 51.0741ZM73.9207 52.3199L74.2308 52.8316L74.2351 52.829L73.9207 52.3199ZM76.5587 50.268L76.9642 50.7082L76.9646 50.7078L76.5587 50.268ZM79.4533 47.2269L79.909 47.6148L79.913 47.61L79.4533 47.2269ZM82.3112 43.4897L82.5157 42.9273L82.0853 42.7708L81.8218 43.1453L82.3112 43.4897ZM82.7142 43.6362L83.2031 43.9813L83.6548 43.3415L82.9187 43.0738L82.7142 43.6362ZM79.9296 47.2636L80.3853 47.6514L80.3893 47.6467L79.9296 47.2636ZM77.1083 50.268L77.5179 50.7043L77.5196 50.7028L77.1083 50.268ZM73.994 52.7229L73.6924 52.206L73.6861 52.2098L73.994 52.7229ZM70.0002 52.9794L69.5617 53.3866L69.5692 53.3947L69.5771 53.4025L70.0002 52.9794ZM69.7804 50.0482L69.2152 49.8516L69.2126 49.8591L69.2101 49.8668L69.7804 50.0482ZM70.733 48.0696L71.2506 48.3702L71.2546 48.363L70.733 48.0696ZM72.4551 45.2484L71.9571 44.9164L71.9521 44.9242L72.4551 45.2484ZM75.1298 41.218L74.6319 40.8861L74.6307 40.8878L75.1298 41.218ZM78.9037 35.5022L79.4042 35.8303L79.4058 35.8277L78.9037 35.5022ZM83.8867 27.6979V27.0995H83.5568L83.3807 27.3785L83.8867 27.6979ZM85.9519 27.3685C83.7783 30.6655 81.8858 33.5226 80.2744 35.9397L81.2702 36.6036C82.8831 34.1842 84.7768 31.3254 86.9511 28.0273L85.9519 27.3685ZM80.276 35.9374C78.6637 38.3313 77.2835 40.3834 76.1352 42.0935L77.1288 42.7607C78.2767 41.0511 79.6566 38.9996 81.2687 36.6059L80.276 35.9374ZM76.1352 42.0935C74.9864 43.8046 74.0443 45.2237 73.3095 46.3504L74.312 47.0042C75.0428 45.8837 75.9816 44.4694 77.1288 42.7607L76.1352 42.0935ZM73.3128 46.3454C72.577 47.4492 71.9959 48.3636 71.5724 49.0861L72.6049 49.6913C73.012 48.997 73.5789 48.1039 74.3087 47.0093L73.3128 46.3454ZM71.5724 49.0861C71.1526 49.8023 70.8429 50.3923 70.656 50.8463L71.7627 51.302C71.9177 50.9254 72.1943 50.3918 72.6049 49.6913L71.5724 49.0861ZM70.645 50.8749C70.4861 51.3253 70.3911 51.7507 70.3911 52.1367H71.5879C71.5879 51.9364 71.6395 51.6534 71.7736 51.2733L70.645 50.8749ZM70.3911 52.1367C70.3911 52.5168 70.473 52.9136 70.7418 53.219C71.0234 53.539 71.4134 53.6511 71.7956 53.6511V52.4542C71.7164 52.4542 71.6735 52.4428 71.6549 52.4358C71.646 52.4324 71.6422 52.4299 71.6415 52.4294C71.6409 52.429 71.6408 52.4289 71.6402 52.4283C71.64 52.428 71.6273 52.4141 71.6141 52.369C71.6003 52.322 71.5879 52.2474 71.5879 52.1367H70.3911ZM71.7956 53.6511C72.5597 53.6511 73.378 53.3485 74.2308 52.8316L73.6105 51.8081C72.8512 52.2683 72.2528 52.4542 71.7956 52.4542V53.6511ZM74.2351 52.829C75.1059 52.2912 76.0156 51.5819 76.9642 50.7082L76.1533 49.8279C75.2455 50.664 74.3965 51.3226 73.6062 51.8107L74.2351 52.829ZM76.9646 50.7078C77.9375 49.8098 78.9188 48.7782 79.909 47.6148L78.9976 46.8391C78.0336 47.9717 77.0853 48.9676 76.1529 49.8283L76.9646 50.7078ZM79.913 47.61C80.901 46.4244 81.8635 45.1656 82.8006 43.8341L81.8218 43.1453C80.9024 44.4518 79.9597 45.6845 78.9936 46.8438L79.913 47.61ZM82.1067 44.0521L82.5097 44.1986L82.9187 43.0738L82.5157 42.9273L82.1067 44.0521ZM82.2253 43.2911C81.3552 44.5238 80.4367 45.7203 79.4699 46.8805L80.3893 47.6467C81.3766 46.4619 82.3145 45.2401 83.2031 43.9813L82.2253 43.2911ZM79.4739 46.8757C78.508 48.0107 77.5824 48.9959 76.6971 49.8333L77.5196 50.7028C78.4419 49.8303 79.3971 48.8126 80.3853 47.6514L79.4739 46.8757ZM76.6988 49.8317C75.5174 50.9408 74.5166 51.7253 73.6924 52.206L74.2955 53.2398C75.23 52.6946 76.3055 51.8425 77.5179 50.7043L76.6988 49.8317ZM73.6861 52.2098C72.8881 52.6886 72.2134 52.8939 71.649 52.8939V54.0908C72.5013 54.0908 73.39 53.7832 74.3018 53.236L73.6861 52.2098ZM71.649 52.8939C70.9633 52.8939 70.6037 52.7366 70.4234 52.5562L69.5771 53.4025C70.0807 53.9062 70.8203 54.0908 71.649 54.0908V52.8939ZM70.4387 52.5722C70.2442 52.3627 70.1223 52.067 70.1223 51.6237H68.9255C68.9255 52.304 69.1212 52.9122 69.5617 53.3866L70.4387 52.5722ZM70.1223 51.6237C70.1223 51.1781 70.1965 50.7141 70.3506 50.2296L69.2101 49.8668C69.0223 50.457 68.9255 51.0434 68.9255 51.6237H70.1223ZM70.3456 50.2448C70.5241 49.7316 70.8219 49.1082 71.2505 48.3701L70.2155 47.7692C69.7647 48.5455 69.4275 49.2412 69.2152 49.8516L70.3456 50.2448ZM71.2546 48.363C71.6864 47.5954 72.2536 46.6658 72.9581 45.5725L71.9521 44.9242C71.2399 46.0294 70.659 46.9806 70.2115 47.7763L71.2546 48.363ZM72.953 45.5803C73.6863 44.4803 74.5783 43.1363 75.6289 41.5482L74.6307 40.8878C73.5806 42.4752 72.6894 43.818 71.9572 44.9164L72.953 45.5803ZM75.6277 41.5499C76.7036 39.9361 77.9624 38.0295 79.4042 35.8303L78.4032 35.1741C76.9626 37.3716 75.7056 39.2756 74.6319 40.8861L75.6277 41.5499ZM79.4058 35.8277C80.8486 33.6023 82.511 30.9988 84.3928 28.0173L83.3807 27.3785C81.5007 30.3571 79.8411 32.9564 78.4016 35.1766L79.4058 35.8277ZM83.8867 28.2963H86.4515V27.0995H83.8867V28.2963ZM86.4031 40.5951L86.8851 40.9498L87.5864 39.9967H86.4031V40.5951ZM83.6551 44.2957L83.1764 43.9367L83.1764 43.9367L83.6551 44.2957ZM81.3102 47.52L80.8199 47.1769L80.8199 47.1769L81.3102 47.52ZM79.6614 50.0848L79.1407 49.7898L79.1374 49.7958L79.6614 50.0848ZM79.3683 52.6496L78.9451 53.0728L78.9592 53.0869L78.9742 53.1L79.3683 52.6496ZM81.6399 52.4664L81.3631 51.9358L81.3534 51.9411L81.6399 52.4664ZM83.3254 51.3306L82.9539 50.8613L82.9443 50.8692L83.3254 51.3306ZM85.0108 49.7917L84.5876 49.3685L84.5784 49.3781L85.0108 49.7917ZM86.5497 48.1429L86.0981 47.7503L86.0968 47.7518L86.5497 48.1429ZM87.7954 46.6041L87.3257 46.2333L87.3196 46.2411L87.3137 46.2491L87.7954 46.6041ZM88.6015 45.5049L88.1013 45.1763L88.0966 45.1836L88.6015 45.5049ZM91.8258 40.5951V39.9967H91.5029L91.3256 40.2666L91.8258 40.5951ZM94.354 40.5951L94.8373 40.9479L95.5314 39.9967H94.354V40.5951ZM90.9831 45.2117L90.4999 44.8587L90.4987 44.8603L90.9831 45.2117ZM88.7481 48.3994L88.2501 48.0674L88.2438 48.0772L88.7481 48.3994ZM87.5389 50.5612L88.0838 50.8088L88.0877 50.7998L87.5389 50.5612ZM87.429 52.7595L86.9567 53.1269L86.9673 53.1406L86.9787 53.1536L87.429 52.7595ZM89.8473 52.5397L90.131 53.0666L90.1387 53.0624L90.1463 53.058L89.8473 52.5397ZM91.8258 51.1474L92.2057 51.6099L92.2152 51.6017L91.8258 51.1474ZM93.841 49.2055L93.4035 48.7972L93.403 48.7977L93.841 49.2055ZM95.7463 47.0437L95.2929 46.6529L95.2852 46.6622L95.7463 47.0437ZM97.3951 45.0652L97.8624 45.4391L97.8694 45.43L97.3951 45.0652ZM98.5309 43.5263L98.7028 42.9531L98.2849 42.8278L98.0378 43.1873L98.5309 43.5263ZM98.8973 43.6362L99.3862 43.9813L99.8657 43.302L99.0692 43.0631L98.8973 43.6362ZM97.7248 45.2484L98.1992 45.6133L98.2057 45.6046L97.7248 45.2484ZM96.076 47.3002L96.5293 47.691L96.5357 47.6833L96.076 47.3002ZM94.1341 49.4986L94.5716 49.907L94.5782 49.8997L94.1341 49.4986ZM92.009 51.4771L91.6351 51.0098L91.6275 51.0161L92.009 51.4771ZM89.8839 52.9427L90.1665 53.4703L90.173 53.4667L89.8839 52.9427ZM86.2932 52.9427L85.8701 53.3659L85.8833 53.3791L85.8973 53.3915L86.2932 52.9427ZM85.9268 50.0116L85.3653 49.8047L85.362 49.8135L85.3591 49.8223L85.9268 50.0116ZM86.2932 49.1322L86.8063 49.4401L87.0467 49.0394L86.7163 48.7091L86.2932 49.1322ZM86.2199 49.0589L86.6431 48.6358L86.1908 48.1835L85.7696 48.6649L86.2199 49.0589ZM82.9223 52.1733L83.2641 52.6645L83.2711 52.6596L83.278 52.6545L82.9223 52.1733ZM81.2003 53.1259L80.9701 52.5735L80.9617 52.5772L81.2003 53.1259ZM77.8294 52.9794L77.3919 53.3877L77.399 53.3952L77.4063 53.4025L77.8294 52.9794ZM77.8294 49.7184L78.3683 49.9786L78.372 49.971L78.3755 49.9632L77.8294 49.7184ZM79.1851 47.3369L78.6872 47.0049L78.6872 47.0049L79.1851 47.3369ZM81.2735 44.369L80.796 44.0082L80.791 44.0151L81.2735 44.369ZM83.9849 40.5951V39.9967H83.6707L83.4923 40.2554L83.9849 40.5951ZM85.9211 40.2405C84.9695 41.5337 84.0546 42.7658 83.1764 43.9367L84.1339 44.6548C85.0144 43.4807 85.9315 42.2457 86.8851 40.9498L85.9211 40.2405ZM83.1764 43.9367C82.294 45.1133 81.5084 46.1934 80.8199 47.1769L81.8004 47.8632C82.4799 46.8926 83.2576 45.8232 84.1339 44.6548L83.1764 43.9367ZM80.8199 47.1769C80.1292 48.1637 79.5683 49.0353 79.1408 49.7898L80.182 50.3799C80.585 49.6688 81.1233 48.8306 81.8004 47.8632L80.8199 47.1769ZM79.1374 49.7958C78.7359 50.5235 78.4767 51.1968 78.4767 51.7703H79.6736C79.6736 51.5132 79.8052 51.0629 80.1853 50.3739L79.1374 49.7958ZM78.4767 51.7703C78.4767 52.2533 78.5979 52.7255 78.9451 53.0728L79.7914 52.2265C79.7478 52.1829 79.6736 52.0688 79.6736 51.7703H78.4767ZM78.9742 53.1C79.3017 53.3865 79.7089 53.5045 80.1377 53.5045V52.3077C79.9314 52.3077 79.8257 52.2547 79.7623 52.1993L78.9742 53.1ZM80.1377 53.5045C80.7288 53.5045 81.3283 53.3181 81.9265 52.9918L81.3534 51.9411C80.8768 52.201 80.4748 52.3077 80.1377 52.3077V53.5045ZM81.9167 52.997C82.5207 52.6819 83.1171 52.2788 83.7065 51.7919L82.9443 50.8692C82.41 51.3106 81.8828 51.6647 81.3631 51.9359L81.9167 52.997ZM83.6968 51.7998C84.3055 51.3179 84.8876 50.7863 85.4432 50.2054L84.5784 49.3781C84.0593 49.9208 83.5177 50.4151 82.9539 50.8614L83.6968 51.7998ZM85.4339 50.2149C86.0049 49.6439 86.5279 49.0837 87.0026 48.5341L86.0968 47.7518C85.6432 48.2769 85.1404 48.8159 84.5877 49.3686L85.4339 50.2149ZM87.0012 48.5356C87.4975 47.9649 87.9234 47.4392 88.2772 46.959L87.3137 46.2491C86.9835 46.6971 86.5789 47.1973 86.0981 47.7503L87.0012 48.5356ZM88.2651 46.9749C88.6354 46.5058 88.9189 46.1207 89.1064 45.8261L88.0966 45.1836C87.9421 45.4265 87.6883 45.7741 87.3257 46.2333L88.2651 46.9749ZM89.1017 45.8333L92.326 40.9236L91.3256 40.2666L88.1013 45.1764L89.1017 45.8333ZM91.8258 41.1935H94.354V39.9967H91.8258V41.1935ZM93.8706 40.2424C92.5516 42.0499 91.428 43.5886 90.4999 44.8587L91.4662 45.5648C92.3946 44.2945 93.5183 42.7555 94.8373 40.9479L93.8706 40.2424ZM90.4987 44.8603C89.5922 46.1099 88.8423 47.1793 88.2502 48.0675L89.246 48.7313C89.8263 47.8608 90.5664 46.8051 91.4675 45.5631L90.4987 44.8603ZM88.2438 48.0772C87.675 48.9675 87.2528 49.7186 86.9902 50.3226L88.0877 50.7998C88.3137 50.2801 88.6975 49.59 89.2523 48.7216L88.2438 48.0772ZM86.9942 50.3135C86.7284 50.8982 86.5741 51.4613 86.5741 51.9901H87.771C87.771 51.6884 87.861 51.2988 88.0837 50.8088L86.9942 50.3135ZM86.5741 51.9901C86.5741 52.4088 86.6995 52.7963 86.9567 53.1269L87.9014 52.3922C87.8166 52.2831 87.771 52.1576 87.771 51.9901H86.5741ZM86.9787 53.1536C87.2882 53.5074 87.7135 53.6511 88.1618 53.6511V52.4542C87.975 52.4542 87.9118 52.4026 87.8794 52.3655L86.9787 53.1536ZM88.1618 53.6511C88.7854 53.6511 89.4472 53.4348 90.131 53.0666L89.5635 52.0128C88.9772 52.3286 88.5153 52.4542 88.1618 52.4542V53.6511ZM90.1463 53.058C90.8149 52.6723 91.5014 52.1883 92.2056 51.6098L91.446 50.685C90.7824 51.2301 90.1498 51.6743 89.5482 52.0214L90.1463 53.058ZM92.2152 51.6017C92.9174 50.9999 93.6053 50.3368 94.279 49.6133L93.403 48.7977C92.7577 49.4909 92.1021 50.1224 91.4364 50.693L92.2152 51.6017ZM94.2785 49.6138C94.9698 48.8731 95.6128 48.1436 96.2073 47.4253L95.2852 46.6622C94.7072 47.3606 94.0801 48.0723 93.4035 48.7972L94.2785 49.6138ZM96.1995 47.4345C96.8141 46.7216 97.3684 46.0564 97.8623 45.439L96.9278 44.6914C96.4446 45.2953 95.8998 45.9491 95.293 46.653L96.1995 47.4345ZM97.8694 45.43C98.3606 44.7914 98.7466 44.2689 99.024 43.8653L98.0378 43.1873C97.7778 43.5654 97.4065 44.0688 96.9207 44.7003L97.8694 45.43ZM98.3589 44.0995L98.7253 44.2094L99.0692 43.0631L98.7028 42.9531L98.3589 44.0995ZM98.4084 43.2911C98.119 43.7011 97.7312 44.2344 97.244 44.8922L98.2057 45.6046C98.6955 44.9433 99.0893 44.4019 99.3862 43.9813L98.4084 43.2911ZM97.2505 44.8835C96.7675 45.5114 96.2229 46.1892 95.6163 46.9171L96.5357 47.6833C97.1505 46.9456 97.7051 46.2555 98.1991 45.6132L97.2505 44.8835ZM95.6228 46.9095C95.0154 47.6141 94.3712 48.3434 93.69 49.0975L94.5782 49.8997C95.265 49.1394 95.9153 48.4031 96.5293 47.6909L95.6228 46.9095ZM93.6966 49.0903C93.0311 49.8033 92.3439 50.4429 91.6352 51.0099L92.3828 51.9444C93.1397 51.3389 93.8692 50.6595 94.5716 49.9069L93.6966 49.0903ZM91.6275 51.0161C90.9441 51.5817 90.2664 52.0483 89.5948 52.4188L90.173 53.4667C90.9181 53.0556 91.6572 52.5451 92.3905 51.9382L91.6275 51.0161ZM89.6013 52.4153C88.9813 52.7474 88.4309 52.8939 87.942 52.8939V54.0908C88.6744 54.0908 89.4186 53.8709 90.1665 53.4702L89.6013 52.4153ZM87.942 52.8939C87.3682 52.8939 86.971 52.7427 86.6891 52.494L85.8973 53.3915C86.4459 53.8756 87.1479 54.0908 87.942 54.0908V52.8939ZM86.7163 52.5196C86.4547 52.2579 86.3054 51.9059 86.3054 51.4039H85.1085C85.1085 52.172 85.3501 52.8459 85.8701 53.3659L86.7163 52.5196ZM86.3054 51.4039C86.3054 50.9762 86.3694 50.5762 86.4945 50.2008L85.3591 49.8223C85.1911 50.3263 85.1085 50.8545 85.1085 51.4039H86.3054ZM86.4883 50.2184C86.6647 49.7396 86.7678 49.5043 86.8063 49.4401L85.7801 48.8243C85.672 49.0043 85.5309 49.3553 85.3653 49.8047L86.4883 50.2184ZM86.7163 48.7091L86.6431 48.6358L85.7968 49.4821L85.8701 49.5553L86.7163 48.7091ZM85.7696 48.6649C85.2682 49.2378 84.7431 49.7868 84.1941 50.3119L85.0214 51.1768C85.596 50.6271 86.1457 50.0525 86.6703 49.453L85.7696 48.6649ZM84.1941 50.3119C83.6486 50.8337 83.106 51.2934 82.5666 51.6921L83.278 52.6545C83.8623 52.2227 84.4433 51.7297 85.0214 51.1768L84.1941 50.3119ZM82.5806 51.6821C82.051 52.0505 81.5142 52.3469 80.9701 52.5736L81.4304 53.6783C82.0588 53.4165 82.67 53.0778 83.2641 52.6645L82.5806 51.6821ZM80.9617 52.5772C80.4683 52.7917 79.9874 52.8939 79.5148 52.8939V54.0908C80.1659 54.0908 80.8086 53.9487 81.4389 53.6747L80.9617 52.5772ZM79.5148 52.8939C78.7982 52.8939 78.43 52.7337 78.2525 52.5562L77.4063 53.4025C77.9128 53.909 78.6682 54.0908 79.5148 54.0908V52.8939ZM78.2669 52.5711C78.0254 52.3123 77.9149 52.0296 77.9149 51.697H76.718C76.718 52.3414 76.9495 52.9137 77.3919 53.3877L78.2669 52.5711ZM77.9149 51.697C77.9149 51.1985 78.0546 50.6284 78.3683 49.9786L77.2905 49.4583C76.9202 50.2252 76.718 50.9741 76.718 51.697H77.9149ZM78.3755 49.9632C78.6755 49.2938 79.1091 48.5296 79.683 47.6688L78.6872 47.0049C78.0886 47.9028 77.6184 48.7263 77.2833 49.4737L78.3755 49.9632ZM79.683 47.6688C80.2631 46.7986 80.9539 45.8168 81.7561 44.7229L80.791 44.0151C79.981 45.1196 79.2795 46.1164 78.6872 47.0049L79.683 47.6688ZM81.751 44.7298C82.5878 43.6222 83.4967 42.3571 84.4775 40.9349L83.4923 40.2554C82.519 41.6667 81.6203 42.9174 80.7961 44.0083L81.751 44.7298ZM83.9849 41.1935H86.4031V39.9967H83.9849V41.1935ZM111.001 43.7461L111.508 44.0633L111.857 43.5052L111.268 43.2109L111.001 43.7461ZM108.436 47.2636L107.976 46.8805L107.975 46.8814L108.436 47.2636ZM105.285 50.378L104.909 49.9126L104.909 49.9126L105.285 50.378ZM101.511 52.6496L101.742 53.2017L101.747 53.1997L101.511 52.6496ZM95.5387 53.2725L95.3743 53.8479L95.3743 53.8479L95.5387 53.2725ZM94.1831 52.613L93.8092 53.0803L93.8165 53.0861L93.824 53.0917L94.1831 52.613ZM93.3037 51.5138L93.8391 51.2461L93.8333 51.2351L93.3037 51.5138ZM93.5602 48.1796L93.0951 47.803L93.0951 47.803L93.5602 48.1796ZM96.125 47.7032L95.7274 48.1505L95.7534 48.1736L95.7818 48.1935L96.125 47.7032ZM96.2349 49.3887L96.7251 49.7318L96.7251 49.7318L96.2349 49.3887ZM94.8059 49.5352L94.3828 49.9584L94.399 49.9746L94.4165 49.9896L94.8059 49.5352ZM94.5128 48.9856L95.097 48.8558L94.9245 48.0795L94.2263 48.4603L94.5128 48.9856ZM93.9632 49.6452L94.5256 49.8497L94.5284 49.8421L94.5309 49.8344L93.9632 49.6452ZM94.7693 52.4298L94.4287 52.9218L94.4394 52.9292L94.4505 52.9362L94.7693 52.4298ZM98.2867 52.7595L98.5684 53.2877L98.5801 53.2811L98.2867 52.7595ZM99.2394 51.9535L98.7688 51.5837L98.765 51.5886L99.2394 51.9535ZM99.8256 50.781L100.402 50.9412L100.402 50.9412L99.8256 50.781ZM99.7523 48.033L99.1769 48.1974L99.1817 48.2142L99.1875 48.2307L99.7523 48.033ZM99.2394 46.5308L99.795 46.3085L99.795 46.3085L99.2394 46.5308ZM98.6898 45.1018L98.1249 45.2995L98.1282 45.3087L98.6898 45.1018ZM98.763 42.3172L99.292 42.5973L99.2983 42.5848L98.763 42.3172ZM99.6424 41.218L99.2833 40.7393L99.2759 40.7449L99.2686 40.7507L99.6424 41.218ZM100.961 40.5585L101.133 41.1317L101.146 41.1278L101.159 41.1233L100.961 40.5585ZM104.882 40.9615L104.532 41.4472L104.539 41.4519L104.545 41.4564L104.882 40.9615ZM105.065 44.0393L104.757 43.526L104.746 43.5333L105.065 44.0393ZM103.49 44.4789L102.964 44.1924L102.482 45.0774H103.49V44.4789ZM103.856 43.5263L103.285 43.3478L103.281 43.3599L103.278 43.3721L103.856 43.5263ZM103.563 41.2546L103.109 41.6441L103.123 41.6615L103.14 41.6778L103.563 41.2546ZM100.705 41.4012L101.167 41.7816L101.172 41.7752L101.177 41.7686L100.705 41.4012ZM100.448 44.4789L99.8836 44.6766L99.888 44.689L99.8929 44.7012L100.448 44.4789ZM101.108 45.9445L101.654 45.699L101.649 45.6878L101.643 45.6769L101.108 45.9445ZM101.694 47.4468L101.127 47.636L101.131 47.648L101.135 47.6598L101.694 47.4468ZM101.658 50.5245L101.122 50.2569L101.119 50.2633L101.116 50.2697L101.658 50.5245ZM100.852 51.697L101.275 52.1201L101.282 52.1128L101.289 52.1053L100.852 51.697ZM99.679 52.5763L99.3884 52.0532L99.382 52.0568L99.3756 52.0605L99.679 52.5763ZM98.3966 53.0527L98.2983 52.4624L97.1512 52.6536L97.9735 53.4758L98.3966 53.0527ZM98.4699 53.1259L98.0468 53.5491L98.2501 53.7525L98.536 53.7207L98.4699 53.1259ZM102.244 51.9901L102.516 52.5232L102.524 52.5187L102.244 51.9901ZM105.578 49.7184L105.967 50.1728L105.968 50.172L105.578 49.7184ZM108.473 46.7873L108.931 47.1714L108.936 47.1662L108.473 46.7873ZM110.781 43.6362L111.049 43.101L110.568 42.8607L110.278 43.3126L110.781 43.6362ZM110.493 43.429C109.776 44.5762 108.938 45.7268 107.976 46.8805L108.896 47.6467C109.888 46.4554 110.76 45.261 111.508 44.0633L110.493 43.429ZM107.975 46.8814C107.048 47.9994 106.026 49.0095 104.909 49.9126L105.661 50.8433C106.84 49.8899 107.919 48.8239 108.896 47.6457L107.975 46.8814ZM104.909 49.9126C103.804 50.806 102.593 51.5348 101.275 52.0996L101.747 53.1997C103.165 52.5919 104.47 51.8063 105.661 50.8433L104.909 49.9126ZM101.28 52.0975C100.014 52.6271 98.6517 52.8939 97.1875 52.8939V54.0908C98.8011 54.0908 100.321 53.7958 101.742 53.2017L101.28 52.0975ZM97.1875 52.8939C96.6514 52.8939 96.1576 52.827 95.7031 52.6971L95.3743 53.8479C95.9457 54.0111 96.5511 54.0908 97.1875 54.0908V52.8939ZM95.7031 52.6971C95.2539 52.5688 94.8693 52.3797 94.5421 52.1343L93.824 53.0917C94.2784 53.4325 94.7976 53.6831 95.3743 53.8479L95.7031 52.6971ZM94.5569 52.1457C94.2613 51.9093 94.0219 51.6122 93.8389 51.2462L92.7685 51.7814C93.0251 52.2948 93.372 52.7305 93.8092 53.0803L94.5569 52.1457ZM93.8333 51.2351C93.6411 50.87 93.5357 50.4312 93.5357 49.9016H92.3389C92.3389 50.5934 92.4778 51.2293 92.7742 51.7925L93.8333 51.2351ZM93.5357 49.9016C93.5357 49.4093 93.6926 48.967 94.0253 48.5561L93.0951 47.803C92.5972 48.418 92.3389 49.1238 92.3389 49.9016H93.5357ZM94.0253 48.5561C94.3177 48.1949 94.7026 48.0085 95.2456 48.0085V46.8117C94.3718 46.8117 93.6332 47.1383 93.0951 47.803L94.0253 48.5561ZM95.2456 48.0085C95.5029 48.0085 95.6422 48.0747 95.7274 48.1505L96.5225 47.256C96.1681 46.9409 95.7212 46.8117 95.2456 46.8117V48.0085ZM95.7818 48.1935C95.8288 48.2264 95.893 48.2877 95.893 48.5093H97.0898C97.0898 47.9981 96.9097 47.5221 96.4681 47.213L95.7818 48.1935ZM95.893 48.5093C95.893 48.7472 95.8352 48.9161 95.7446 49.0455L96.7251 49.7318C96.9765 49.3727 97.0898 48.9554 97.0898 48.5093H95.893ZM95.7446 49.0455C95.7034 49.1045 95.6453 49.1567 95.4655 49.1567V50.3535C95.9696 50.3535 96.4244 50.1614 96.7251 49.7318L95.7446 49.0455ZM95.4655 49.1567C95.3107 49.1567 95.2378 49.1173 95.1954 49.0809L94.4165 49.9896C94.716 50.2463 95.0828 50.3535 95.4655 50.3535V49.1567ZM95.2291 49.1121C95.1699 49.053 95.1234 48.9746 95.097 48.8558L93.9287 49.1155C94 49.4364 94.1488 49.7244 94.3828 49.9584L95.2291 49.1121ZM94.2263 48.4603C93.8233 48.6801 93.5406 49.0208 93.3955 49.4559L94.5309 49.8344C94.5813 49.6833 94.6649 49.5843 94.7994 49.511L94.2263 48.4603ZM93.4008 49.4407C93.2787 49.7766 93.2182 50.1268 93.2182 50.4879H94.4151C94.4151 50.2627 94.4523 50.0511 94.5256 49.8497L93.4008 49.4407ZM93.2182 50.4879C93.2182 51.5146 93.613 52.3571 94.4287 52.9218L95.1099 51.9378C94.6554 51.6231 94.4151 51.171 94.4151 50.4879H93.2182ZM94.4505 52.9362C95.2088 53.4137 96.0529 53.6511 96.9677 53.6511V52.4542C96.2704 52.4542 95.6488 52.2764 95.0881 51.9234L94.4505 52.9362ZM96.9677 53.6511C97.5561 53.6511 98.0972 53.5388 98.5683 53.2876L98.0051 52.2315C97.7435 52.3711 97.4052 52.4542 96.9677 52.4542V53.6511ZM98.5801 53.2811C99.0328 53.0265 99.4147 52.707 99.7137 52.3183L98.765 51.5886C98.5755 51.8351 98.3223 52.0529 97.9933 52.238L98.5801 53.2811ZM99.7099 52.3232C100.03 51.916 100.26 51.4532 100.402 50.9412L99.249 50.6208C99.147 50.9882 98.9863 51.307 98.7688 51.5838L99.7099 52.3232ZM100.402 50.9412C100.538 50.4513 100.607 49.9578 100.607 49.462H99.4104C99.4104 49.8455 99.3572 50.2313 99.249 50.6208L100.402 50.9412ZM100.607 49.462C100.607 48.9232 100.508 48.3801 100.317 47.8353L99.1875 48.2307C99.3388 48.663 99.4104 49.0725 99.4104 49.462H100.607ZM100.328 47.8686C100.176 47.3363 99.9981 46.8163 99.795 46.3085L98.6837 46.753C98.8715 47.2224 99.0359 47.7038 99.1769 48.1974L100.328 47.8686ZM99.795 46.3085C99.6015 45.8248 99.4202 45.3536 99.2513 44.8949L98.1282 45.3087C98.3012 45.7783 98.4864 46.2597 98.6837 46.753L99.795 46.3085ZM99.2546 44.9041C99.1006 44.4641 99.0317 44.0798 99.0317 43.7461H97.8349C97.8349 44.243 97.937 44.7625 98.1249 45.2995L99.2546 44.9041ZM99.0317 43.7461C99.0317 43.2922 99.1239 42.9145 99.2919 42.5972L98.2342 42.0372C97.9625 42.5504 97.8349 43.1253 97.8349 43.7461H99.0317ZM99.2983 42.5848C99.4813 42.2188 99.7207 41.9217 100.016 41.6853L99.2686 40.7507C98.8313 41.1005 98.4845 41.5362 98.2278 42.0496L99.2983 42.5848ZM100.001 41.6967C100.333 41.4477 100.709 41.2589 101.133 41.1317L100.789 39.9853C100.237 40.1512 99.7329 40.4021 99.2833 40.7393L100.001 41.6967ZM101.159 41.1233C101.582 40.9754 102.028 40.9004 102.5 40.9004V39.7036C101.898 39.7036 101.318 39.7996 100.764 39.9937L101.159 41.1233ZM102.5 40.9004C103.389 40.9004 104.05 41.1 104.532 41.4472L105.232 40.4759C104.492 39.9437 103.565 39.7036 102.5 39.7036V40.9004ZM104.545 41.4564C105.001 41.7659 105.199 42.1466 105.199 42.647H106.396C106.396 41.7306 105.985 40.9877 105.218 40.4667L104.545 41.4564ZM105.199 42.647C105.199 43.1008 105.042 43.3553 104.757 43.5261L105.373 44.5524C106.065 44.137 106.396 43.4633 106.396 42.647H105.199ZM104.746 43.5333C104.384 43.7619 103.971 43.8805 103.49 43.8805V45.0774C104.181 45.0774 104.818 44.9029 105.385 44.5452L104.746 43.5333ZM104.015 44.7655C104.189 44.4464 104.327 44.0825 104.434 43.6805L103.278 43.3721C103.19 43.7029 103.083 43.9741 102.964 44.1924L104.015 44.7655ZM104.427 43.7048C104.562 43.272 104.638 42.8564 104.638 42.4638H103.441C103.441 42.7062 103.394 42.999 103.285 43.3478L104.427 43.7048ZM104.638 42.4638C104.638 41.8319 104.426 41.2717 103.986 40.8315L103.14 41.6778C103.335 41.8727 103.441 42.1186 103.441 42.4638H104.638ZM104.017 40.8652C103.583 40.3587 102.97 40.1433 102.28 40.1433V41.3401C102.714 41.3401 102.956 41.4666 103.109 41.6441L104.017 40.8652ZM102.28 40.1433C101.442 40.1433 100.718 40.4099 100.233 41.0338L101.177 41.7686C101.376 41.5132 101.702 41.3401 102.28 41.3401V40.1433ZM100.243 41.0208C99.801 41.5576 99.5936 42.2105 99.5936 42.9401H100.79C100.79 42.4483 100.925 42.0753 101.167 41.7816L100.243 41.0208ZM99.5936 42.9401C99.5936 43.5422 99.6896 44.1222 99.8836 44.6766L101.013 44.2813C100.865 43.8587 100.79 43.4127 100.79 42.9401H99.5936ZM99.8929 44.7012C100.095 45.2057 100.321 45.7094 100.573 46.2122L101.643 45.6769C101.406 45.2027 101.193 44.7293 101.004 44.2567L99.8929 44.7012ZM100.562 46.1901C100.774 46.6601 100.962 47.142 101.127 47.636L102.262 47.2575C102.085 46.7256 101.882 46.2061 101.654 45.699L100.562 46.1901ZM101.135 47.6598C101.301 48.0949 101.389 48.5953 101.389 49.1688H102.586C102.586 48.4722 102.478 47.8245 102.253 47.2337L101.135 47.6598ZM101.389 49.1688C101.389 49.5346 101.303 49.8953 101.122 50.2569L102.193 50.7921C102.452 50.2744 102.586 49.7313 102.586 49.1688H101.389ZM101.116 50.2697C100.95 50.6238 100.717 50.9636 100.414 51.2887L101.289 52.1053C101.669 51.6976 101.975 51.2558 102.199 50.7793L101.116 50.2697ZM100.428 51.2738C100.127 51.5749 99.7814 51.8349 99.3884 52.0532L99.9696 53.0994C100.456 52.8293 100.892 52.503 101.275 52.1201L100.428 51.2738ZM99.3756 52.0605C99.0184 52.2707 98.66 52.4021 98.2983 52.4624L98.495 53.6429C99.0127 53.5567 99.5091 53.3706 99.9824 53.0921L99.3756 52.0605ZM97.9735 53.4758L98.0468 53.5491L98.8931 52.7028L98.8198 52.6295L97.9735 53.4758ZM98.536 53.7207C99.9277 53.5661 101.255 53.1662 102.516 52.5231L101.972 51.4571C100.838 52.0353 99.6502 52.3927 98.4038 52.5312L98.536 53.7207ZM102.524 52.5187C103.76 51.863 104.908 51.0809 105.967 50.1728L105.189 49.2641C104.196 50.1147 103.121 50.847 101.963 51.4615L102.524 52.5187ZM105.968 50.172C107.043 49.2473 108.031 48.247 108.931 47.1714L108.014 46.4031C107.156 47.4282 106.214 48.3821 105.188 49.2648L105.968 50.172ZM108.936 47.1662C109.828 46.0761 110.611 45.0074 111.284 43.9598L110.278 43.3126C109.632 44.3169 108.876 45.3488 108.009 46.4083L108.936 47.1662ZM110.513 44.1715L110.733 44.2814L111.268 43.2109L111.049 43.101L110.513 44.1715Z" fill="#151A21"/>
</svg>
