<svg width="6" height="7" viewBox="0 0 6 7" fill="none" xmlns="http://www.w3.org/2000/svg">
<path d="M1.42875 0.742752C1.28667 0.505962 0.979542 0.429179 0.742752 0.571254C0.505962 0.713328 0.429179 1.02046 0.571254 1.25725L1.42875 0.742752ZM2.5 3.5L2.92875 3.75725C3.02375 3.59891 3.02375 3.40109 2.92875 3.24275L2.5 3.5ZM0.571254 5.74275C0.429179 5.97954 0.505962 6.28667 0.742752 6.42875C0.979542 6.57082 1.28667 6.49404 1.42875 6.25725L0.571254 5.74275ZM0.571254 1.25725L2.07125 3.75725L2.92875 3.24275L1.42875 0.742752L0.571254 1.25725ZM2.07125 3.24275L0.571254 5.74275L1.42875 6.25725L2.92875 3.75725L2.07125 3.24275Z" fill="#151A21"/>
<path d="M3.92875 0.742752C3.78667 0.505962 3.47954 0.429179 3.24275 0.571254C3.00596 0.713328 2.92918 1.02046 3.07125 1.25725L3.92875 0.742752ZM5 3.5L5.42875 3.75725C5.52375 3.59891 5.52375 3.40109 5.42875 3.24275L5 3.5ZM3.07125 5.74275C2.92918 5.97954 3.00596 6.28667 3.24275 6.42875C3.47954 6.57082 3.78667 6.49404 3.92875 6.25725L3.07125 5.74275ZM3.07125 1.25725L4.57125 3.75725L5.42875 3.24275L3.92875 0.742752L3.07125 1.25725ZM4.57125 3.24275L3.07125 5.74275L3.92875 6.25725L5.42875 3.75725L4.57125 3.24275Z" fill="#151A21"/>
</svg>
