<svg width="35" height="35" viewBox="0 0 35 35" fill="none" xmlns="http://www.w3.org/2000/svg">
<path fill-rule="evenodd" clip-rule="evenodd" d="M31.9102 17.416C31.9102 25.4241 25.4183 31.916 17.4102 31.916C9.40203 31.916 2.91016 25.4241 2.91016 17.416C2.91016 9.40789 9.40203 2.91602 17.4102 2.91602C25.4183 2.91602 31.9102 9.40789 31.9102 17.416ZM17.9298 13.6206C16.5194 14.2072 13.7007 15.4213 9.47368 17.263C8.78727 17.5359 8.4277 17.803 8.39497 18.0641C8.33965 18.5053 8.89225 18.6791 9.64476 18.9157C9.74712 18.9479 9.85317 18.9813 9.9619 19.0166C10.7022 19.2573 11.6981 19.5388 12.2159 19.55C12.6855 19.5601 13.2096 19.3665 13.7883 18.9691C17.7378 16.3031 19.7765 14.9556 19.9045 14.9266C19.9948 14.9061 20.1199 14.8803 20.2047 14.9557C20.2895 15.031 20.2812 15.1737 20.2722 15.212C20.2175 15.4454 18.0483 17.4621 16.9257 18.5057C16.5758 18.831 16.3276 19.0618 16.2768 19.1145C16.1631 19.2326 16.0473 19.3443 15.9359 19.4516C15.2482 20.1146 14.7324 20.6119 15.9645 21.4238C16.5566 21.814 17.0304 22.1367 17.5031 22.4586C18.0193 22.8101 18.5342 23.1608 19.2004 23.5975C19.3701 23.7087 19.5322 23.8243 19.6901 23.9368C20.2909 24.3651 20.8306 24.7499 21.4974 24.6885C21.8849 24.6529 22.2851 24.2886 22.4884 23.202C22.9687 20.634 23.9129 15.07 24.1312 12.7772C24.1503 12.5763 24.1262 12.3192 24.1069 12.2064C24.0876 12.0935 24.0472 11.9327 23.9005 11.8137C23.7268 11.6727 23.4586 11.643 23.3387 11.645C22.7933 11.6547 21.9566 11.9457 17.9298 13.6206Z" stroke="#151A21" stroke-linejoin="round"/>
</svg>
