<svg width="35" height="35" viewBox="0 0 35 35" fill="none" xmlns="http://www.w3.org/2000/svg">
<path d="M2.91797 32.0827L2.43588 31.9501C2.38846 32.1224 2.43667 32.307 2.56233 32.4341C2.68798 32.5613 2.87196 32.6117 3.04488 32.5663L2.91797 32.0827ZM4.97644 24.6002L5.45853 24.7328C5.49397 24.604 5.47637 24.4663 5.40966 24.3505L4.97644 24.6002ZM3.05066 17.3822L3.55066 17.3828L3.55066 17.3812L3.05066 17.3822ZM27.7187 7.15014L27.3651 7.50364L27.366 7.50461L27.7187 7.15014ZM31.9528 17.3822L31.4528 17.3805V17.3822H31.9528ZM10.5918 30.069L10.8321 29.6306C10.72 29.5691 10.5886 29.5529 10.4649 29.5854L10.5918 30.069ZM13.885 11.3257L13.4271 11.5265L13.429 11.5308L13.885 11.3257ZM13.0768 10.7079L13.0436 11.2068C13.0547 11.2075 13.0657 11.2079 13.0768 11.2079V10.7079ZM11.4009 11.149L11.7684 11.4881L11.7692 11.4872L11.4009 11.149ZM11.6068 17.8966L12.0073 17.5973L12.0066 17.5963L11.6068 17.8966ZM17.7813 23.3508L17.5972 23.8156L17.5979 23.8159L17.7813 23.3508ZM22.118 24.2469L22.0629 23.7499L22.0623 23.75L22.118 24.2469ZM24.5582 22.527L25.0284 22.6971L25.03 22.6926L24.5582 22.527ZM24.7641 20.8072L25.1935 20.5511L25.1928 20.55L24.7641 20.8072ZM24.0731 20.3807L24.3116 19.9412C24.304 19.9371 24.2964 19.9332 24.2886 19.9295L24.0731 20.3807ZM21.6036 19.2045L21.7686 18.7325L21.7671 18.732L21.6036 19.2045ZM20.7945 19.3812L20.3786 19.1035L20.3732 19.1118L20.7945 19.3812ZM19.6485 20.7926L19.2831 20.4513C19.2797 20.4549 19.2763 20.4587 19.273 20.4624L19.6485 20.7926ZM18.8687 20.8804L19.0924 20.4332L19.0847 20.4295L18.8687 20.8804ZM15.9581 19.0874L16.2912 18.7145L16.2907 18.714L15.9581 19.0874ZM13.9436 16.5886L13.5068 16.832C13.511 16.8394 13.5153 16.8467 13.5197 16.8539L13.9436 16.5886ZM14.1056 15.8527L14.4448 16.2201C14.4493 16.2159 14.4538 16.2116 14.4582 16.2072L14.1056 15.8527ZM14.6501 15.2212L15.0296 15.5467L15.0311 15.545L14.6501 15.2212ZM15.0172 14.618L15.4527 14.8637C15.4569 14.8562 15.4609 14.8486 15.4647 14.841L15.0172 14.618ZM14.9879 13.9864L15.4351 13.7628C15.4323 13.7572 15.4294 13.7517 15.4264 13.7462L14.9879 13.9864ZM3.40006 32.2153L5.45853 24.7328L4.49435 24.4675L2.43588 31.9501L3.40006 32.2153ZM5.40966 24.3505C4.18871 22.2316 3.54753 19.8284 3.55066 17.3828L2.55066 17.3815C2.5473 20.0028 3.23455 22.5786 4.54321 24.8498L5.40966 24.3505ZM3.55066 17.3812C3.53652 9.6748 9.79534 3.41602 17.4867 3.41602V2.41602C9.24271 2.41602 2.53551 9.12326 2.55066 17.3831L3.55066 17.3812ZM17.4867 3.41602C21.2215 3.41602 24.7252 4.8629 27.3651 7.50363L28.0723 6.79664C25.2442 3.96766 21.4859 2.41602 17.4867 2.41602V3.41602ZM27.366 7.50461C28.6667 8.79854 29.6977 10.3377 30.3992 12.033L31.3232 11.6506C30.5711 9.8331 29.4658 8.18291 28.0713 6.79567L27.366 7.50461ZM30.3992 12.033C31.1007 13.7282 31.4588 15.5459 31.4528 17.3805L32.4528 17.3838C32.4593 15.4168 32.0753 13.4681 31.3232 11.6506L30.3992 12.033ZM31.4528 17.3822C31.4528 25.0736 25.1937 31.3328 17.5013 31.3328V32.3328C25.7459 32.3328 32.4528 25.626 32.4528 17.3822H31.4528ZM17.5013 31.3328C15.1592 31.3328 12.875 30.7505 10.8321 29.6306L10.3514 30.5075C12.5427 31.7088 14.9924 32.3328 17.5013 32.3328V31.3328ZM10.4649 29.5854L2.79106 31.5991L3.04488 32.5663L10.7187 30.5526L10.4649 29.5854ZM14.3429 11.1248C14.1857 10.7666 13.9875 10.508 13.7242 10.3569C13.4621 10.2065 13.2069 10.2079 13.0768 10.2079V11.2079C13.1965 11.2079 13.2131 11.2166 13.2265 11.2242C13.2388 11.2313 13.3197 11.2816 13.4271 11.5265L14.3429 11.1248ZM13.1099 10.209C12.8697 10.193 12.6163 10.1932 12.3702 10.1932V11.1932C12.6239 11.1932 12.8427 11.1934 13.0436 11.2068L13.1099 10.209ZM12.3702 10.1932C12.0226 10.1932 11.4817 10.3216 11.0325 10.8109L11.7692 11.4872C11.9955 11.2406 12.2491 11.1932 12.3702 11.1932V10.1932ZM11.0334 10.81C10.6901 11.182 9.63683 12.1757 9.63683 14.1622H10.6368C10.6368 12.5919 11.4343 11.8501 11.7684 11.4881L11.0334 10.81ZM9.63683 14.1622C9.63683 15.1641 9.99795 16.1207 10.3595 16.8344C10.7247 17.5551 11.1127 18.0713 11.207 18.1968L12.0066 17.5963C11.9242 17.4866 11.5773 17.0252 11.2516 16.3824C10.9224 15.7326 10.6368 14.9396 10.6368 14.1622H9.63683ZM11.2063 18.1959C11.2054 18.1946 11.2081 18.1984 11.2174 18.2119C11.2258 18.2241 11.2365 18.2399 11.2503 18.2603C11.2773 18.3004 11.3141 18.3551 11.3588 18.4206C11.4486 18.5522 11.5715 18.729 11.7257 18.9391C12.0339 19.3589 12.4674 19.9119 13.014 20.5047C14.102 21.6849 15.6617 23.0489 17.5972 23.8156L17.9655 22.8859C14.4527 21.4943 12.2209 17.883 12.0073 17.5973L11.2063 18.1959ZM17.5979 23.8159C19.1419 24.4247 20.104 24.6839 20.7818 24.7743C21.4771 24.867 21.872 24.7776 22.1736 24.7438L22.0623 23.75C21.7022 23.7903 21.4573 23.8555 20.914 23.783C20.3532 23.7082 19.4778 23.4823 17.9647 22.8856L17.5979 23.8159ZM22.1731 24.7438C22.6124 24.6952 23.221 24.4339 23.7406 24.1C24.2524 23.7711 24.8161 23.284 25.0284 22.6971L24.088 22.357C23.9918 22.6231 23.6659 22.9593 23.1999 23.2588C22.7417 23.5532 22.2845 23.7254 22.0629 23.7499L22.1731 24.7438ZM25.03 22.6926C25.1914 22.2324 25.2734 21.7976 25.3025 21.4501C25.3171 21.2768 25.3191 21.1176 25.3089 20.9826C25.3038 20.9153 25.2952 20.847 25.281 20.7822C25.2685 20.7251 25.2447 20.637 25.1935 20.5511L24.3347 21.0633C24.3054 21.0143 24.3009 20.9814 24.3041 20.9959C24.3056 21.0027 24.3091 21.0226 24.3117 21.058C24.3171 21.1284 24.3172 21.2329 24.306 21.3665C24.2837 21.6327 24.2188 21.9841 24.0864 22.3615L25.03 22.6926ZM25.1928 20.55C25.0724 20.3492 24.8746 20.236 24.7578 20.1721C24.6897 20.1348 24.6135 20.0967 24.5423 20.0609C24.4683 20.0236 24.3924 19.9851 24.3116 19.9412L23.8345 20.8201C23.9299 20.8719 24.0175 20.9162 24.0924 20.9539C24.1701 20.9931 24.2282 21.0222 24.2778 21.0494C24.3276 21.0766 24.3521 21.093 24.3633 21.1016C24.3738 21.1097 24.3557 21.0984 24.3354 21.0644L25.1928 20.55ZM24.2886 19.9295C24.1052 19.8419 23.5834 19.5828 23.0457 19.3213C22.5338 19.0724 21.9727 18.8039 21.7686 18.7325L21.4386 19.6765C21.5722 19.7232 22.0619 19.9549 22.6084 20.2206C23.1289 20.4738 23.673 20.7437 23.8575 20.8318L24.2886 19.9295ZM21.7671 18.732C21.6159 18.6797 21.3654 18.5904 21.1041 18.6199C20.7846 18.656 20.5507 18.8458 20.3786 19.1036L21.2104 19.6588C21.2453 19.6064 21.2633 19.5953 21.259 19.5982C21.2498 19.6047 21.2324 19.6118 21.2164 19.6136C21.2071 19.6146 21.2161 19.6116 21.2579 19.621C21.3013 19.6307 21.3562 19.648 21.4401 19.677L21.7671 18.732ZM20.3732 19.1118C20.1638 19.4395 19.4988 20.2203 19.2831 20.4513L20.0139 21.1339C20.2377 20.8943 20.9548 20.0587 21.2158 19.6505L20.3732 19.1118ZM19.273 20.4624C19.2598 20.4774 19.2497 20.4872 19.2426 20.4933C19.2356 20.4994 19.2321 20.5015 19.2322 20.5014C19.2348 20.4999 19.2442 20.4956 19.2553 20.4943C19.2642 20.4933 19.2589 20.496 19.232 20.4893C19.2037 20.4822 19.1587 20.4664 19.0923 20.4332L18.6451 21.3277C18.8587 21.4344 19.1064 21.5187 19.3718 21.4875C19.6565 21.4542 19.8677 21.3005 20.024 21.1227L19.273 20.4624ZM19.0847 20.4295C18.6811 20.2362 17.6061 19.8892 16.2912 18.7145L15.625 19.4602C17.0743 20.755 18.3223 21.1731 18.6528 21.3314L19.0847 20.4295ZM16.2907 18.714C15.2772 17.8111 14.5904 16.6796 14.3674 16.3233L13.5197 16.8539C13.7379 17.2024 14.4918 18.4507 15.6255 19.4607L16.2907 18.714ZM14.3803 16.3452C14.3523 16.295 14.3508 16.2747 14.3513 16.2791C14.3524 16.2875 14.3515 16.3042 14.3457 16.3201C14.3415 16.3317 14.3395 16.329 14.3558 16.3094C14.3734 16.2881 14.3995 16.2619 14.4448 16.2201L13.7664 15.4854C13.6759 15.5689 13.4948 15.7344 13.4061 15.9778C13.3026 16.2621 13.3521 16.5543 13.5068 16.832L14.3803 16.3452ZM14.4582 16.2072C14.638 16.0283 14.8812 15.7198 15.0296 15.5467L14.2706 14.8956C14.0658 15.1344 13.8971 15.3549 13.753 15.4983L14.4582 16.2072ZM15.0311 15.545C15.2481 15.2896 15.355 15.0369 15.4527 14.8637L14.5817 14.3723C14.414 14.6696 14.4037 14.7391 14.2691 14.8973L15.0311 15.545ZM15.4647 14.841C15.6823 14.4041 15.5558 14.0043 15.4351 13.7628L14.5407 14.21C14.5683 14.2653 14.5793 14.3046 14.5821 14.3312C14.5841 14.3513 14.5826 14.3691 14.5696 14.3951L15.4647 14.841ZM15.4264 13.7462C15.4294 13.7517 15.4188 13.7306 15.3881 13.6587C15.3616 13.5966 15.3272 13.5138 15.2864 13.4141C15.2047 13.2148 15.1007 12.9566 14.9883 12.6782C14.7656 12.1269 14.5079 11.4916 14.341 11.1206L13.429 11.5308C13.5861 11.88 13.8354 12.4942 14.061 13.0527C14.1727 13.3292 14.2781 13.5909 14.361 13.7932C14.4361 13.9764 14.5098 14.1544 14.5494 14.2267L15.4264 13.7462Z" fill="#151A21"/>
</svg>
